<svg width="136" height="170" xmlns="http://www.w3.org/2000/svg">
 <!-- Created with Method Draw - http://github.com/duopixel/Method-Draw/ -->
 <g>
  <title>background</title>
  <rect fill="none" id="canvas_background" height="172" width="138" y="-1" x="-1"/>
  <g display="none" overflow="visible" y="0" x="0" height="100%" width="100%" id="canvasGrid">
   <rect fill="url(#gridpattern)" stroke-width="0" y="0" x="0" height="100%" width="100%"/>
  </g>
 </g>
 <g>
  <title>Layer 1</title>
  <g id="svg_12">
   <path stroke="#000" id="svg_9" d="m97.390046,24.205339c-9.433762,-9.731663 -19.608593,-17.527334 -27.955092,-18.590119c-0.454378,-0.068937 -0.924985,-0.109151 -1.422637,-0.12064l-54.931107,0c-0.876301,0 -1.741784,0.361921 -2.35844,1.034061c-0.611247,0.654905 -0.973668,1.574071 -0.973668,2.51047l0,147.92817c0,0.930655 0.340784,1.821096 0.973668,2.498981c0.632884,0.666395 1.465911,1.028316 2.35844,1.028316l99.33578,0c0.876301,0 1.714738,-0.356177 2.347622,-1.028316c0.632884,-0.67214 0.984487,-1.562581 0.984487,-2.498981l0,-98.436862c-0.194734,-11.426374 -8.622372,-23.886809 -18.359052,-34.32508zm-4.689835,5.009451c4.35446,4.5154 8.270769,9.628257 11.191773,14.557281c-2.531537,-1.062785 -5.187487,-1.84982 -7.681159,-2.476002c-5.490406,-1.309811 -10.861808,-1.838331 -14.199326,-2.050888c0.016228,-0.764056 0.021637,-1.625774 0.021637,-2.562173c0,-4.992217 -0.29751,-12.110003 -1.925699,-18.383307c-0.016228,-0.057448 -0.027046,-0.114896 -0.048683,-0.172343c4.13268,2.895371 8.63319,6.738631 12.641457,11.087432zm16.373851,124.19647l-92.671563,0l0,-140.850597l51.615226,0l0,0.01149c2.250255,-0.14362 4.192182,2.217486 5.67973,7.617583c1.352317,5.141581 1.693101,11.845743 1.687691,16.493273c0.010819,3.406657 -0.14605,5.69308 -0.14605,5.69308l-0.265054,3.745599l3.548479,0.040213c0.016228,0 8.200449,0.103406 16.227801,2.039398c7.713615,1.769393 13.744947,5.29669 14.307511,9.289315c0.021637,0.356177 0.027046,0.712353 0.021637,1.045551l0,94.875096l-0.005409,0z" fill-opacity="null" stroke-opacity="null" stroke-width="0" fill="#696969"/>
   <path id="svg_11" d="m77.907132,81.829692c0,0 6.352536,1.772237 7.861295,7.899039c0,0 1.349898,2.379853 0.952878,3.645725c-0.39702,1.265844 -1.032308,1.670931 -1.191103,1.822849c0,0 0.794083,-1.164621 -1.905757,-3.038109c0,0 -1.389635,-0.303808 -1.667553,-0.607616c-0.277918,-0.303808 -4.367371,-1.316511 -5.240863,1.215233c-0.87347,2.531771 -1.07198,6.785085 -0.952878,6.987615c0.119102,0.20253 4.168861,4.050812 4.526188,5.164766c0.357327,1.113954 2.263105,3.392501 3.096882,3.34189c0.833755,-0.050612 2.818942,-0.050612 3.335085,-0.911424c0.516122,-0.860813 2.02488,-0.962064 2.382207,0c0.357327,0.962036 0.238225,0.911424 0.238225,0.911424c0,0 1.270512,-0.35442 1.667553,0.911424c0.39702,1.265872 -0.595573,1.822849 -0.714675,1.822849c-0.119102,0 0.754368,-1.924127 -0.47645,-1.519041c0,0 -0.714653,0.037986 -0.714653,-0.303808c0,-0.341795 0.416888,1.78489 0,1.822849c0,0 -1.399558,-1.974739 -1.667553,-0.911424c0,0 -0.893317,0.227863 -1.191103,0.303808c-0.297765,0.075945 -0.238225,0.303808 -0.238225,0.303808c0,0 -0.774215,0.379753 -0.238203,1.519041c0,0 0,0.41774 -0.238225,0.607644c-0.238225,0.189877 0.148893,1.101301 1.191103,0.303808c0,0 0.267995,-0.303808 0.238225,0c-0.029792,0.303808 -1.072002,1.93678 -2.382207,-0.303808c0,0 -0.47645,-1.708945 0.238225,-2.126685c0.714653,-0.41774 -0.238225,-1.253219 -1.191103,-0.607616c0,0 -0.059562,1.215233 0.238203,1.519041c0.297787,0.303808 -0.50622,0.037986 -0.714653,-0.303808c-0.208433,-0.341767 -0.47645,0.721548 -0.47645,0.911424c0,0.189877 -0.267995,0.835479 -0.476428,0.607644c-0.208455,-0.227863 -2.173773,-0.493712 -2.144003,-0.303836c0.029792,0.189904 -0.923087,0.987397 -1.191103,0.607644c-0.267995,-0.379781 -1.756863,-2.316561 -1.905757,-2.126685c-0.148893,0.189877 1.01244,2.316561 1.667553,2.734301c0.655092,0.417712 3.394646,0.683561 4.287963,-0.303808c0,0 1.369767,-0.341795 1.429328,0c0,0 1.54843,0.797493 1.429328,1.215233c-0.119123,0.41774 -0.119123,0.189877 -0.238225,0c-0.119102,-0.189904 -1.101772,-0.873466 -1.191103,-0.607616c-0.089332,0.265822 0,0.303808 0,0.303808c0,0 1.250665,0.455698 1.191103,0.607616c0,0 1.459098,0.759507 1.191103,2.430465c0,0 -0.446658,0.41774 -0.47645,0c-0.02977,-0.41774 0.178663,-1.557027 -0.714653,-1.519041c0,0 -0.148893,0.607616 -0.714653,0.303808c-0.565782,-0.303808 0.327535,-0.949411 -2.620432,-0.607616c0,0 0.119102,0.721548 0.476428,0.911424c0.357327,0.189877 0.9529,0.189877 0.9529,0.911424c0,0 0.387097,0.607616 0,1.215233c0,0 -0.238225,0.189877 -0.238225,0c0,-0.189877 0.238225,-1.101301 -0.952878,-1.519041c-1.191125,-0.41774 -0.9529,-0.303808 -0.9529,-0.303808c0,0 0.208455,1.822849 -0.238225,1.822849c-0.446658,0 0.297787,1.139287 1.191125,0.607616c0,0 0.08931,-0.455698 0.238203,-0.303808c0.148893,0.151918 -0.744423,2.35452 -2.382207,-0.303808c0,0 -0.53599,-1.405109 0,-1.822849c0,0 0.357327,-1.405109 -1.429328,-0.911424c0,0 -0.744423,0.15189 -0.714653,0c0.02977,-0.151918 -0.119102,0.721548 0,0.911424c0.119102,0.189877 -1.399558,-0.41774 -1.429328,-0.607616l-0.476428,0c0,0 0.277918,1.772237 0.476428,1.822849c0.19851,0.050612 -0.913163,-0.860813 -1.191103,-1.519041c0,0 0,1.265844 0.238225,1.519041c0.238225,0.253196 -1.072002,-1.36715 -0.952878,-1.519041c0,0 0.039693,1.620319 0.476428,2.430465c0.436735,0.810146 -0.952878,-0.759507 -1.191103,-1.215233c0,0 -0.238203,0.20253 0,0.607616c0.238225,0.405087 -0.794062,-0.405087 -0.952878,-1.519041c0,0 -0.67496,-0.708895 -0.952878,-0.911424c0,0 0.039693,1.72157 0.238225,1.822849c0,0 -0.555858,-0.557005 -0.714675,-1.215233c0,0 -0.317612,0.607616 -0.238225,0.911424c0,0 -0.913163,-1.316511 -1.191103,-2.430465c-0.277918,-1.113954 -0.238203,0.303808 -0.238203,0.303808c0,0 -0.555858,-0.101306 -0.9529,-2.126657c0,0 -2.302798,3.088693 -3.09686,3.34189c-0.794062,0.253169 0.952878,-1.215233 0.952878,-1.215233c0,0 -1.310205,0.506338 -1.429328,0.911424c0,0 0.119123,-0.557005 0.714675,-1.215233c0.595552,-0.658256 -0.714675,-0.303808 -0.714675,-0.303808c0,0 -0.277918,-0.101306 -0.238203,-3.341917c0,0 -1.786677,2.430493 -2.858657,2.430493c-1.072002,0 0.992593,-1.012731 1.191103,-1.822876c0.19851,-0.810146 -0.436735,-0.556977 -0.714675,-0.303808c-0.277918,0.253196 -2.342492,1.772237 -2.382207,2.126685c-0.039693,0.35442 -0.238203,-0.607616 -0.238203,-0.607616c0,0 -0.47645,0.303808 -0.9529,0.303808c-0.476428,0 1.389613,-1.113954 1.667553,-1.822876c0.27794,-0.708895 -2.580717,1.265872 -3.57331,2.126685c0,0 -0.833777,0.35442 -0.952878,0c-0.119123,-0.354447 1.429328,-1.72157 1.429328,-1.822876c0,-0.101279 0.555837,-0.962036 -0.47645,-0.303808c-1.032287,0.658256 -2.382207,0.151918 -3.335085,0.607616c-0.9529,0.455726 -1.985165,1.873488 -3.335106,1.822876c-1.34992,-0.050639 -1.349595,2.126657 -3.811513,2.126657c-1.429328,0 -0.833777,0.708895 -1.429328,0.607616c-0.595552,-0.101279 0.714653,-0.911424 0.714653,-0.911424c0,0 -1.429328,0.607616 -1.667532,0.607616c-0.238225,0 -1.310227,0.050612 1.191082,-1.215233c0,0 -1.826348,0 -1.191082,-0.303808c0.635245,-0.303808 2.22339,-0.911424 2.143982,-1.215233c-0.07943,-0.303808 -1.707247,-0.253196 -1.191103,-0.607616c0.516122,-0.354447 3.335085,-1.670959 2.620432,-1.822876c-0.714675,-0.15189 -1.746962,-0.20253 -1.191103,-0.607616c0.555858,-0.405087 7.384823,-1.367123 8.337723,-2.430465c0.952878,-1.063342 3.414493,-4.152035 4.049738,-4.253314c0.635267,-0.101306 0,-0.860813 -0.476428,-0.607644c-0.47645,0.253196 -0.913185,-0.15189 -0.714675,-1.822849c0.198532,-1.670931 -2.043253,3.66418 -3.335085,1.822849c-0.67496,-0.962036 -0.158817,-1.670931 -0.952878,-1.519041c-0.794062,0.151918 -0.754368,-1.113954 -0.952878,-0.607616c-0.19851,0.506338 -1.866063,3.645725 -2.620432,3.341917c-0.754368,-0.303808 -0.19851,-0.506338 -0.714675,-0.607616c-0.516143,-0.101306 -0.87347,-0.303808 -0.952878,-0.911452c-0.079408,-0.607616 -0.555837,0.405114 -0.714653,-0.607616c-0.158817,-1.012703 -0.277918,-2.278547 -0.952878,-1.215233c-0.674982,1.063342 -0.913207,0.354447 -0.9529,0c-0.039693,-0.35442 -1.469022,0.20253 -1.429307,-0.911424c0.039672,-1.113954 -1.389635,0.354447 -1.191125,-0.911424c0.198532,-1.265844 -1.207462,-0.17156 -0.952878,-1.215233c0.555858,-2.278575 -1.905757,-0.20253 -1.667532,-1.215233c0.238203,-1.012703 -1.15141,-0.20253 -0.9529,-1.215233c0.198532,-1.012703 -1.321927,-0.660963 -1.191103,-1.519041c0.277918,-1.822876 -1.429307,-0.557005 -1.191103,-2.126685c0.238225,-1.569652 -1.084092,-0.010526 -0.952878,-1.215233c0.198532,-1.822849 -1.701613,-1.160891 -1.191103,-2.430465c0.794083,-1.974767 -0.816508,-1.125861 -0.47645,-2.126657c0.516143,-1.519041 -3.316235,0.168521 -2.382207,-2.430493c0.436757,-1.215233 -2.593847,-2.024329 -1.191103,-3.038081c2.382207,-1.72157 -3.652696,-0.860813 -0.714653,-3.645698c2.739533,-1.620319 2.907407,-1.772928 -0.47645,-1.519041c-1.34992,0.101279 -3.3748,-2.278575 -1.429307,-2.430493c1.945472,-0.15189 5.915801,-1.367123 1.429307,-1.822849c-4.486473,-0.455698 -4.64529,-2.531744 -2.858635,-2.430465c1.786655,0.101279 8.774458,0.101279 6.908395,-0.607616c-1.866063,-0.708895 -10.406066,-2.44135 -7.14662,-4.253314c1.54843,-0.860813 12.459308,3.71609 9.290601,0.607616c-0.516122,-0.506338 -5.558475,-2.329214 -7.384845,-4.860958c-1.826348,-2.531744 -1.469022,-2.886191 -0.476428,-2.430465c0.992593,0.455698 12.506519,7.139505 10.719929,4.86093c-0.317633,-0.405087 -6.908395,-4.405232 -7.861295,-7.899012c-0.952878,-3.493807 -0.039693,-2.582383 0.714675,-1.519068c0.754347,1.063342 11.588481,11.217529 9.767051,7.899039c-0.555858,-1.012703 -5.399658,-5.06346 -6.431966,-9.114272c-1.032308,-4.050784 -0.238225,-2.936803 0.47645,-1.822849c0.714653,1.113954 11.754383,16.290824 10.005254,10.937121c-0.39702,-1.215233 -3.890943,-5.012848 -4.287963,-8.506655c-0.39702,-3.493807 0.635245,-2.177269 1.191103,-0.911424c0.555858,1.265872 8.377438,17.013311 8.575948,14.279038c0,0 0.039715,0.050612 0.238225,0c0.19851,-0.050639 -0.158817,-1.468429 0.238225,-1.215233c0,0 0.158817,-1.113954 0.476428,-0.911452c0.317633,0.20253 0.635267,0.050639 0.714675,-1.215233c0.079387,-1.265844 2.4219,0.20253 3.09686,6.683807c0,0 0.47645,0.657427 0.47645,2.126657c0,0.759534 2.858635,4.455871 4.526188,4.253342c1.667553,-0.20253 4.04976,4.253314 4.764413,4.557122c0.714653,0.303808 2.302798,2.126657 4.764413,0.303808c2.461615,-1.822849 4.883536,-2.430465 2.858657,-2.734273c-2.02488,-0.303808 -1.627838,-1.316511 -0.714653,-1.519041c0.913163,-0.20253 4.883515,-0.303808 3.57331,-1.215233c-1.310227,-0.911452 -2.442028,-5.780974 -0.714675,-4.55715c0.714675,0.506338 3.252708,5.00572 2.858657,1.822849c-0.119123,-0.962036 -1.667553,-2.126657 -1.191103,-5.468546c0.476428,-3.341917 1.137002,-0.683202 1.191103,-0.303808c0.079408,0.556977 2.005532,7.472238 2.382207,3.949506c0.119102,-1.113954 -0.87347,-2.582383 -0.47645,-6.683807c0.39702,-4.101396 0.952878,0 0.952878,0c0,0 1.13282,4.200133 0.9529,6.379998c-0.07943,0.962064 1.032287,0.607616 0.952878,-1.215233c-0.07943,-1.822849 -0.67496,-5.822994 -0.238225,-5.772382c0.436757,0.050639 1.745315,2.711758 1.429328,4.860958c-0.119123,0.810146 1.707247,1.620319 -0.238225,3.34189c-1.94545,1.72157 -4.04976,5.164766 -4.04976,5.164766c0,0 0.470687,2.225256 -1.905757,3.34189c-1.508737,0.708895 -0.238225,2.126657 -0.238225,2.126657z" fill-opacity="null" stroke-opacity="null" stroke-width="0" stroke="#000" fill="#696969"/>
   <path id="svg_10" d="m131.953584,45.075704l-8.810527,-5.334016c-2.222924,-1.344469 -5.152012,-0.697376 -6.552684,1.444245l-3.472727,5.324063l16.85491,10.196881l3.475466,-5.321592c1.395356,-2.14417 0.729404,-4.968108 -1.494438,-6.309581l0,0zm-48.829309,47.431779l16.855829,10.196776l27.472207,-42.125218l-16.863853,-10.199438l-27.464186,42.127877l0.000003,0.000003zm-2.574725,12.955384l-0.372285,9.577657l8.797011,-4.481907l8.174922,-4.157601l-16.261358,-9.843378l-0.338288,8.905231l0,0l-0.000003,-0.000003z" fill-opacity="null" stroke-opacity="null" stroke-width="0" stroke="#000" fill="#696969"/>
  </g>
 </g>
</svg>