<svg width="700" height="393" xmlns="http://www.w3.org/2000/svg">
 <!-- Created with Method Draw - http://github.com/duopixel/Method-Draw/ -->

 <g>
  <title>background</title>
  <rect x="-1" y="-1" width="702" height="395" id="canvas_background" fill="#ffffff"/>
  <g id="canvasGrid" display="none">
   <rect id="svg_6" width="100%" height="100%" x="0" y="0" stroke-width="0" fill="url(#gridpattern)"/>
  </g>
 </g>
 <g>
  <title>Layer 1</title>
  <ellipse fill="#181c34" stroke="#000" stroke-width="0" cx="393.000159" cy="337.450486" id="svg_37" rx="258.500081" ry="55.000035"/>
  <path id="svg_24" d="m-17.824249,327.449982c0,-29.63562 42.882689,-53.640442 95.82428,-53.640442c52.941605,0 95.824295,24.004822 95.824295,53.640442c0,29.63562 -42.88269,53.640472 -95.824295,53.640472c-52.941601,0 -95.82428,-24.004852 -95.82428,-53.640472z"/>
  <path id="svg_31" d="m-17.824249,327.449982c0,-29.63562 42.882689,-53.640442 95.82428,-53.640442c52.941605,0 95.824295,24.004822 95.824295,53.640442c0,29.63562 -42.88269,53.640472 -95.824295,53.640472c-52.941601,0 -95.82428,-24.004852 -95.82428,-53.640472z"/>
  <path id="svg_33" d="m-17.824249,327.449982c0,-29.63562 42.882689,-53.640442 95.82428,-53.640442c52.941605,0 95.824295,24.004822 95.824295,53.640442c0,29.63562 -42.88269,53.640472 -95.824295,53.640472c-52.941601,0 -95.82428,-24.004852 -95.82428,-53.640472z"/>
  <path id="svg_34" d="m-17.824249,327.449982c0,-29.63562 42.882689,-53.640442 95.82428,-53.640442c52.941605,0 95.824295,24.004822 95.824295,53.640442c0,29.63562 -42.88269,53.640472 -95.824295,53.640472c-52.941601,0 -95.82428,-24.004852 -95.82428,-53.640472z"/>
  <path id="svg_35" d="m-17.824249,327.449982c0,-29.63562 42.882689,-53.640442 95.82428,-53.640442c52.941605,0 95.824295,24.004822 95.824295,53.640442c0,29.63562 -42.88269,53.640472 -95.824295,53.640472c-52.941601,0 -95.82428,-24.004852 -95.82428,-53.640472z"/>
  <path id="svg_38" d="m-17.824249,327.449982c0,-29.63562 42.882689,-53.640442 95.82428,-53.640442c52.941605,0 95.824295,24.004822 95.824295,53.640442c0,29.63562 -42.88269,53.640472 -95.824295,53.640472c-52.941601,0 -95.82428,-24.004852 -95.82428,-53.640472z"/>
  <path id="svg_39" d="m-17.824249,327.449982c0,-29.63562 42.882689,-53.640442 95.82428,-53.640442c52.941605,0 95.824295,24.004822 95.824295,53.640442c0,29.63562 -42.88269,53.640472 -95.824295,53.640472c-52.941601,0 -95.82428,-24.004852 -95.82428,-53.640472z"/>
  <path id="svg_40" d="m-17.824249,327.449982c0,-29.63562 42.882689,-53.640442 95.82428,-53.640442c52.941605,0 95.824295,24.004822 95.824295,53.640442c0,29.63562 -42.88269,53.640472 -95.824295,53.640472c-52.941601,0 -95.82428,-24.004852 -95.82428,-53.640472z"/>
  <path id="svg_41" d="m-22.824261,335.450012c0,-29.63562 42.88269,-53.640472 95.824291,-53.640472c52.941589,0 95.82428,24.004852 95.82428,53.640472c0,29.63562 -42.88269,53.640442 -95.82428,53.640442c-52.941591,0 -95.824291,-24.004822 -95.824291,-53.640442z"/>
  <path id="svg_42" d="m-22.824261,335.450012c0,-29.63562 42.88269,-53.640472 95.824291,-53.640472c52.941589,0 95.82428,24.004852 95.82428,53.640472c0,29.63562 -42.88269,53.640442 -95.82428,53.640442c-52.941591,0 -95.824291,-24.004822 -95.824291,-53.640442z"/>
  <path d="m-22.824261,335.450012c0,-29.63562 42.882692,-53.640472 95.824284,-53.640472c52.941597,0 95.824287,24.004852 95.824287,53.640472c0,29.63562 -42.88269,53.640442 -95.824287,53.640442c-52.941591,0 -95.824284,-24.004822 -95.824284,-53.640442z"/>
  <path d="m-22.824261,335.450012c0,-29.63562 42.882692,-53.640472 95.824284,-53.640472c52.941597,0 95.824287,24.004852 95.824287,53.640472c0,29.63562 -42.88269,53.640442 -95.824287,53.640442c-52.941591,0 -95.824284,-24.004822 -95.824284,-53.640442z"/>
  <path d="m-22.824261,335.450012c0,-29.63562 42.882692,-53.640472 95.824284,-53.640472c52.941597,0 95.824287,24.004852 95.824287,53.640472c0,29.63562 -42.88269,53.640442 -95.824287,53.640442c-52.941591,0 -95.824284,-24.004822 -95.824284,-53.640442z"/>
  <path d="m-22.824261,335.450012c0,-29.63562 42.882692,-53.640472 95.824284,-53.640472c52.941597,0 95.824287,24.004852 95.824287,53.640472c0,29.63562 -42.88269,53.640442 -95.824287,53.640442c-52.941591,0 -95.824284,-24.004822 -95.824284,-53.640442z"/>
  <path d="m-22.824261,335.450012c0,-29.63562 42.882692,-53.640472 95.824284,-53.640472c52.941597,0 95.824287,24.004852 95.824287,53.640472c0,29.63562 -42.88269,53.640442 -95.824287,53.640442c-52.941591,0 -95.824284,-24.004822 -95.824284,-53.640442z"/>
  <path d="m-22.824261,335.450012c0,-29.63562 42.882692,-53.640472 95.824284,-53.640472c52.941597,0 95.824287,24.004852 95.824287,53.640472c0,29.63562 -42.88269,53.640442 -95.824287,53.640442c-52.941591,0 -95.824284,-24.004822 -95.824284,-53.640442z"/>
  <path d="m-22.824261,335.450012c0,-29.63562 42.882692,-53.640472 95.824284,-53.640472c52.941597,0 95.824287,24.004852 95.824287,53.640472c0,29.63562 -42.88269,53.640442 -95.824287,53.640442c-52.941591,0 -95.824284,-24.004822 -95.824284,-53.640442z"/>
  <path d="m-22.824261,335.450012c0,-29.63562 42.882692,-53.640472 95.824284,-53.640472c52.941597,0 95.824287,24.004852 95.824287,53.640472c0,29.63562 -42.88269,53.640442 -95.824287,53.640442c-52.941591,0 -95.824284,-24.004822 -95.824284,-53.640442z"/>
  <path d="m-22.824261,335.450012c0,-29.63562 42.882692,-53.640472 95.824284,-53.640472c52.941597,0 95.824287,24.004852 95.824287,53.640472c0,29.63562 -42.88269,53.640442 -95.824287,53.640442c-52.941591,0 -95.824284,-24.004822 -95.824284,-53.640442z"/>
  <path d="m-22.824261,335.450012c0,-29.63562 42.882692,-53.640472 95.824284,-53.640472c52.941597,0 95.824287,24.004852 95.824287,53.640472c0,29.63562 -42.88269,53.640442 -95.824287,53.640442c-52.941591,0 -95.824284,-24.004822 -95.824284,-53.640442z"/>
  <path d="m-22.824261,335.450012c0,-29.63562 42.882692,-53.640472 95.824284,-53.640472c52.941597,0 95.824287,24.004852 95.824287,53.640472c0,29.63562 -42.88269,53.640442 -95.824287,53.640442c-52.941591,0 -95.824284,-24.004822 -95.824284,-53.640442z"/>
  <path d="m-22.824261,335.450012c0,-29.63562 42.882692,-53.640472 95.824284,-53.640472c52.941597,0 95.824287,24.004852 95.824287,53.640472c0,29.63562 -42.88269,53.640442 -95.824287,53.640442c-52.941591,0 -95.824284,-24.004822 -95.824284,-53.640442z"/>
  <path d="m-22.824261,335.450012c0,-29.63562 42.882692,-53.640472 95.824284,-53.640472c52.941597,0 95.824287,24.004852 95.824287,53.640472c0,29.63562 -42.88269,53.640442 -95.824287,53.640442c-52.941591,0 -95.824284,-24.004822 -95.824284,-53.640442z"/>
  <path d="m-22.824261,335.450012c0,-29.63562 42.882692,-53.640472 95.824284,-53.640472c52.941597,0 95.824287,24.004852 95.824287,53.640472c0,29.63562 -42.88269,53.640442 -95.824287,53.640442c-52.941591,0 -95.824284,-24.004822 -95.824284,-53.640442z"/>
  <path d="m-22.824261,335.450012c0,-29.63562 42.882692,-53.640472 95.824284,-53.640472c52.941597,0 95.824287,24.004852 95.824287,53.640472c0,29.63562 -42.88269,53.640442 -95.824287,53.640442c-52.941591,0 -95.824284,-24.004822 -95.824284,-53.640442z"/>
  <path d="m-22.824261,335.450012c0,-29.63562 42.882692,-53.640472 95.824284,-53.640472c52.941597,0 95.824287,24.004852 95.824287,53.640472c0,29.63562 -42.88269,53.640442 -95.824287,53.640442c-52.941591,0 -95.824284,-24.004822 -95.824284,-53.640442z"/>
  <path d="m-22.824261,335.450012c0,-29.63562 42.882692,-53.640472 95.824284,-53.640472c52.941597,0 95.824287,24.004852 95.824287,53.640472c0,29.63562 -42.88269,53.640442 -95.824287,53.640442c-52.941591,0 -95.824284,-24.004822 -95.824284,-53.640442z"/>
  <path d="m-22.824261,335.450012c0,-29.63562 42.882692,-53.640472 95.824284,-53.640472c52.941597,0 95.824287,24.004852 95.824287,53.640472c0,29.63562 -42.88269,53.640442 -95.824287,53.640442c-52.941591,0 -95.824284,-24.004822 -95.824284,-53.640442z"/>
  <path d="m-22.824261,335.450012c0,-29.63562 42.882692,-53.640472 95.824284,-53.640472c52.941597,0 95.824287,24.004852 95.824287,53.640472c0,29.63562 -42.88269,53.640442 -95.824287,53.640442c-52.941591,0 -95.824284,-24.004822 -95.824284,-53.640442z"/>
  <path d="m-22.824261,335.450012c0,-29.63562 42.882692,-53.640472 95.824284,-53.640472c52.941597,0 95.824287,24.004852 95.824287,53.640472c0,29.63562 -42.88269,53.640442 -95.824287,53.640442c-52.941591,0 -95.824284,-24.004822 -95.824284,-53.640442z"/>
  <path d="m-22.824261,335.450012c0,-29.63562 42.882692,-53.640472 95.824284,-53.640472c52.941597,0 95.824287,24.004852 95.824287,53.640472c0,29.63562 -42.88269,53.640442 -95.824287,53.640442c-52.941591,0 -95.824284,-24.004822 -95.824284,-53.640442z"/>
  <path d="m-22.824261,335.450012c0,-29.63562 42.882692,-53.640472 95.824284,-53.640472c52.941597,0 95.824287,24.004852 95.824287,53.640472c0,29.63562 -42.88269,53.640442 -95.824287,53.640442c-52.941591,0 -95.824284,-24.004822 -95.824284,-53.640442z"/>
  <path d="m-22.824261,335.450012c0,-29.63562 42.882692,-53.640472 95.824284,-53.640472c52.941597,0 95.824287,24.004852 95.824287,53.640472c0,29.63562 -42.88269,53.640442 -95.824287,53.640442c-52.941591,0 -95.824284,-24.004822 -95.824284,-53.640442z"/>
  <path d="m-22.824261,335.450012c0,-29.63562 42.882692,-53.640472 95.824284,-53.640472c52.941597,0 95.824287,24.004852 95.824287,53.640472c0,29.63562 -42.88269,53.640442 -95.824287,53.640442c-52.941591,0 -95.824284,-24.004822 -95.824284,-53.640442z"/>
  <path d="m-22.824261,335.450012c0,-29.63562 42.882692,-53.640472 95.824284,-53.640472c52.941597,0 95.824287,24.004852 95.824287,53.640472c0,29.63562 -42.88269,53.640442 -95.824287,53.640442c-52.941591,0 -95.824284,-24.004822 -95.824284,-53.640442z"/>
  <path d="m-22.824261,335.450012c0,-29.63562 42.882692,-53.640472 95.824284,-53.640472c52.941597,0 95.824287,24.004852 95.824287,53.640472c0,29.63562 -42.88269,53.640442 -95.824287,53.640442c-52.941591,0 -95.824284,-24.004822 -95.824284,-53.640442z"/>
  <path d="m-22.824261,335.450012c0,-29.63562 42.882692,-53.640472 95.824284,-53.640472c52.941597,0 95.824287,24.004852 95.824287,53.640472c0,29.63562 -42.88269,53.640442 -95.824287,53.640442c-52.941591,0 -95.824284,-24.004822 -95.824284,-53.640442z"/>
  <path d="m-22.824261,335.450012c0,-29.63562 42.882692,-53.640472 95.824284,-53.640472c52.941597,0 95.824287,24.004852 95.824287,53.640472c0,29.63562 -42.88269,53.640442 -95.824287,53.640442c-52.941591,0 -95.824284,-24.004822 -95.824284,-53.640442z"/>
  <path d="m-22.824261,335.450012c0,-29.63562 42.882692,-53.640472 95.824284,-53.640472c52.941597,0 95.824287,24.004852 95.824287,53.640472c0,29.63562 -42.88269,53.640442 -95.824287,53.640442c-52.941591,0 -95.824284,-24.004822 -95.824284,-53.640442z"/>
  <path d="m-22.824261,335.450012c0,-29.63562 42.882692,-53.640472 95.824284,-53.640472c52.941597,0 95.824287,24.004852 95.824287,53.640472c0,29.63562 -42.88269,53.640442 -95.824287,53.640442c-52.941591,0 -95.824284,-24.004822 -95.824284,-53.640442z"/>
  <path d="m-22.824261,335.450012c0,-29.63562 42.882692,-53.640472 95.824284,-53.640472c52.941597,0 95.824287,24.004852 95.824287,53.640472c0,29.63562 -42.88269,53.640442 -95.824287,53.640442c-52.941591,0 -95.824284,-24.004822 -95.824284,-53.640442z"/>
  <path d="m-22.824261,335.450012c0,-29.63562 42.882692,-53.640472 95.824284,-53.640472c52.941597,0 95.824287,24.004852 95.824287,53.640472c0,29.63562 -42.88269,53.640442 -95.824287,53.640442c-52.941591,0 -95.824284,-24.004822 -95.824284,-53.640442z"/>
  <path d="m-22.824261,335.450012c0,-29.63562 42.882692,-53.640472 95.824284,-53.640472c52.941597,0 95.824287,24.004852 95.824287,53.640472c0,29.63562 -42.88269,53.640442 -95.824287,53.640442c-52.941591,0 -95.824284,-24.004822 -95.824284,-53.640442z"/>
  <path d="m-22.824261,335.450012c0,-29.63562 42.882692,-53.640472 95.824284,-53.640472c52.941597,0 95.824287,24.004852 95.824287,53.640472c0,29.63562 -42.88269,53.640442 -95.824287,53.640442c-52.941591,0 -95.824284,-24.004822 -95.824284,-53.640442z"/>
  <path d="m-22.824261,335.450012c0,-29.63562 42.882692,-53.640472 95.824284,-53.640472c52.941597,0 95.824287,24.004852 95.824287,53.640472c0,29.63562 -42.88269,53.640442 -95.824287,53.640442c-52.941591,0 -95.824284,-24.004822 -95.824284,-53.640442z"/>
  <path d="m-22.824261,335.450012c0,-29.63562 42.882692,-53.640472 95.824284,-53.640472c52.941597,0 95.824287,24.004852 95.824287,53.640472c0,29.63562 -42.88269,53.640442 -95.824287,53.640442c-52.941591,0 -95.824284,-24.004822 -95.824284,-53.640442z"/>
  <path d="m-22.824261,335.450012c0,-29.63562 42.882692,-53.640472 95.824284,-53.640472c52.941597,0 95.824287,24.004852 95.824287,53.640472c0,29.63562 -42.88269,53.640442 -95.824287,53.640442c-52.941591,0 -95.824284,-24.004822 -95.824284,-53.640442z"/>
  <path d="m-22.824261,335.450012c0,-29.63562 42.882692,-53.640472 95.824284,-53.640472c52.941597,0 95.824287,24.004852 95.824287,53.640472c0,29.63562 -42.88269,53.640442 -95.824287,53.640442c-52.941591,0 -95.824284,-24.004822 -95.824284,-53.640442z"/>
  <path d="m-22.824261,335.450012c0,-29.63562 42.882692,-53.640472 95.824284,-53.640472c52.941597,0 95.824287,24.004852 95.824287,53.640472c0,29.63562 -42.88269,53.640442 -95.824287,53.640442c-52.941591,0 -95.824284,-24.004822 -95.824284,-53.640442z"/>
  <path d="m-22.824261,335.450012c0,-29.63562 42.882692,-53.640472 95.824284,-53.640472c52.941597,0 95.824287,24.004852 95.824287,53.640472c0,29.63562 -42.88269,53.640442 -95.824287,53.640442c-52.941591,0 -95.824284,-24.004822 -95.824284,-53.640442z"/>
  <path d="m-22.824261,335.450012c0,-29.63562 42.882692,-53.640472 95.824284,-53.640472c52.941597,0 95.824287,24.004852 95.824287,53.640472c0,29.63562 -42.88269,53.640442 -95.824287,53.640442c-52.941591,0 -95.824284,-24.004822 -95.824284,-53.640442z"/>
  <path d="m-22.824261,335.450012c0,-29.63562 42.882692,-53.640472 95.824284,-53.640472c52.941597,0 95.824287,24.004852 95.824287,53.640472c0,29.63562 -42.88269,53.640442 -95.824287,53.640442c-52.941591,0 -95.824284,-24.004822 -95.824284,-53.640442z"/>
  <ellipse fill="#181c34" stroke="#000" stroke-width="0" cx="73.000026" cy="335.450005" id="svg_2" rx="95.824287" ry="53.640461" transform="rotate(1.50784, 73, 335.45)"/>
  <rect fill="#181c34" stroke="#000" stroke-width="0" x="-3.50071" y="-7.553031" width="709" height="343" id="svg_1"/>
  <path id="svg_43" d="m-16.824249,427.450165c0,-29.63562 42.882689,-53.640472 95.82428,-53.640472c52.941605,0 95.824295,24.004852 95.824295,53.640472c0,29.63559 -42.88269,53.640442 -95.824295,53.640442c-52.941591,0 -95.82428,-24.004852 -95.82428,-53.640442z"/>
  <path id="svg_44" d="m-16.824249,427.450165c0,-29.63562 42.882689,-53.640472 95.82428,-53.640472c52.941605,0 95.824295,24.004852 95.824295,53.640472c0,29.63559 -42.88269,53.640442 -95.824295,53.640442c-52.941591,0 -95.82428,-24.004852 -95.82428,-53.640442z"/>
  <path id="svg_45" d="m-16.824249,427.450165c0,-29.63562 42.882689,-53.640472 95.82428,-53.640472c52.941605,0 95.824295,24.004852 95.824295,53.640472c0,29.63559 -42.88269,53.640442 -95.824295,53.640442c-52.941591,0 -95.82428,-24.004852 -95.82428,-53.640442z"/>
  <path id="svg_46" d="m-16.824249,427.450165c0,-29.63562 42.882689,-53.640472 95.82428,-53.640472c52.941605,0 95.824295,24.004852 95.824295,53.640472c0,29.63559 -42.88269,53.640442 -95.824295,53.640442c-52.941591,0 -95.82428,-24.004852 -95.82428,-53.640442z" fill="#ffffff" stroke="#ffffff"/>
  <ellipse fill="#181c34" stroke="#000" stroke-width="0" cx="72.499586" cy="335.450482" id="svg_3" rx="137.999845" ry="55.000035"/>
  <path id="svg_48" d="m52.000019,302.375l262.999981,-264.749985l263,264.749985z" stroke-opacity="null" stroke-width="0" stroke="#000" fill="#646e84"/>
  <path id="svg_47" d="m151.999985,302.375l164.000015,-264.749992l164,264.749992z" stroke-opacity="null" stroke-width="0" stroke="#000" fill="#889bc9"/>
  <ellipse fill="#181c34" stroke="#000" stroke-width="0" cx="606.497532" cy="339.95091" id="svg_4" rx="200.999992" ry="52.500024"/>
  <path fill="#161616" stroke="#000" stroke-width="0" stroke-opacity="null" d="m271.19873,276.824615c-4.158478,-7.49707 -9.246216,-13.567352 -14.349854,-17.812744c-5.954559,4.352417 -13.206268,7.001434 -21.113831,7.001434c-7.922028,0 -15.185272,-2.65509 -21.129578,-7.001434c-5.104523,4.245392 -10.196259,10.315674 -14.364471,17.812744c-9.677902,17.40564 -10.742569,35.258881 -2.383514,39.887695c3.742081,2.085846 7.668121,0.531403 11.72197,-3.367096c-0.711334,3.952545 -1.127197,8.237061 -1.127197,12.718719c0,19.910614 7.752487,36.039673 17.304062,36.039673c5.757233,0 8.60733,-5.873688 9.978729,-14.864868c1.366028,8.99118 4.215881,14.864868 9.951904,14.864868c9.56813,0 17.320038,-16.129059 17.320038,-36.039673c0,-4.481659 -0.415833,-8.766174 -1.141846,-12.718719c4.064941,3.898499 7.983887,5.452942 11.738525,3.367096c8.352203,-4.628815 7.272675,-22.482056 -2.404938,-39.887695zm-35.474365,-17.602386c16.073242,0 29.109528,-13.010056 29.109528,-29.057968s-13.036285,-29.056702 -29.109528,-29.056702c-16.079102,0 -29.124832,13.011292 -29.124832,29.056702s13.045731,29.057968 29.124832,29.057968z" id="svg_5"/>
  <path fill="#303030" stroke="#000" stroke-width="0" stroke-opacity="null" d="m268.213684,277.062195c-3.63269,-7.124542 -8.077179,-12.893188 -12.535568,-16.927612c-5.201721,4.136139 -11.536591,6.653534 -18.444382,6.653534c-6.920441,0 -13.265381,-2.523132 -18.458145,-6.653534c-4.459152,4.034424 -8.907135,9.80307 -12.548355,16.927612c-8.454315,16.54071 -9.384384,33.506805 -2.082169,37.905579c3.268967,1.982208 6.698639,0.505035 10.239944,-3.199738c-0.621399,3.756134 -0.98468,7.827728 -0.98468,12.0867c0,18.921204 6.772339,34.248779 15.116287,34.248779c5.029343,0 7.519104,-5.581818 8.717117,-14.126221c1.193314,8.544403 3.682861,14.126221 8.693665,14.126221c8.358444,0 15.130249,-15.327576 15.130249,-34.248779c0,-4.258972 -0.363251,-8.330566 -0.997467,-12.0867c3.550995,3.704773 6.974457,5.181946 10.254395,3.199738c7.296234,-4.398773 6.35318,-21.364868 -2.100891,-37.905579zm-30.989288,-16.727692c14.041092,0 25.429169,-12.363571 25.429169,-27.614029s-11.388077,-27.612793 -25.429169,-27.612793c-14.046204,0 -25.442551,12.364716 -25.442551,27.612793s11.396347,27.614029 25.442551,27.614029z" id="svg_9"/>
  <ellipse fill="#a5754a" stroke="#000" stroke-width="0" stroke-opacity="null" cx="236.000004" cy="230.950133" id="svg_7" rx="29.5" ry="29.5"/>
  <ellipse fill="#d19660" stroke="#000" stroke-width="0" stroke-opacity="null" cx="231.500005" cy="233.950133" id="svg_8" rx="25.000001" ry="26.499999"/>
  <rect fill="#999999" stroke="#000" stroke-width="0" stroke-opacity="null" x="344.500039" y="190.45002" width="238.000418" height="160.000282" id="svg_30"/>
  <rect fill="#dbdbdb" stroke="#000" stroke-width="0" stroke-opacity="null" x="339.500023" y="199.450033" width="238.000418" height="160.000282" id="svg_32"/>
  <ellipse fill="#ffff7c" stroke="#000" stroke-width="0" stroke-opacity="null" cx="143.49999" cy="269.950155" id="svg_11" rx="42.000002" ry="42.499999"/>
  <ellipse fill="#1e1212" stroke="#000" stroke-width="0" stroke-opacity="null" cx="233.999982" cy="211.450131" id="svg_12" rx="23.500011" ry="12"/>
  <ellipse fill="#1e1212" stroke="#000" stroke-width="0" stroke-opacity="null" cx="256.333357" cy="221.950056" id="svg_13" rx="9.500039" ry="12.500005"/>
  <ellipse fill="#a5754a" stroke="#000" stroke-width="0" stroke-opacity="null" cx="205.000643" cy="308.950898" id="svg_17" rx="11.999815" ry="11.999809"/>
  <ellipse fill="#a5754a" stroke="#000" stroke-width="0" stroke-opacity="null" cx="271.250457" cy="303.450915" id="svg_16" rx="11.249818" ry="11.49981"/>
  <ellipse fill="#0f1430" stroke="#000" stroke-width="0" stroke-opacity="null" cx="224.249686" cy="334.749756" id="svg_19" rx="15.749977" ry="20.24997"/>
  <ellipse fill="#0f1430" stroke="#000" stroke-width="0" stroke-opacity="null" cx="248.249651" cy="335.749755" id="svg_20" rx="15.249977" ry="20.24997"/>
  <rect fill="#0f1430" stroke="#000" stroke-width="0" stroke-opacity="null" x="208.499708" y="312.499792" width="54.499919" height="20.499972" id="svg_21"/>
  <ellipse fill="#d19660" stroke="#000" stroke-width="0" stroke-opacity="null" cx="270.000423" cy="305.950934" id="svg_15" rx="10.499841" ry="10.999843"/>
  <ellipse fill="#d19660" stroke="#000" stroke-width="0" stroke-opacity="null" cx="205.499653" cy="310.700959" id="svg_14" rx="11.000131" ry="10.749844"/>
  <ellipse fill="#111b49" stroke="#000" stroke-width="0" stroke-opacity="null" cx="223.749684" cy="332.249761" id="svg_22" rx="12.749982" ry="18.249973"/>
  <ellipse fill="#111b49" stroke="#000" stroke-width="0" stroke-opacity="null" cx="249.249648" cy="332.74976" id="svg_23" rx="12.749982" ry="18.249973"/>
  <ellipse fill="#161212" stroke="#000" stroke-width="0" stroke-opacity="null" cx="251.499643" cy="353.749734" id="svg_25" rx="18.499973" ry="10.749985"/>
  <ellipse fill="#161212" stroke="#000" stroke-width="0" stroke-opacity="null" cx="221.499685" cy="353.749734" id="svg_26" rx="18.499973" ry="10.749985"/>
  <ellipse fill="#282121" stroke="#000" stroke-width="0" stroke-opacity="null" cx="218.749689" cy="353.999736" id="svg_27" rx="15.249979" ry="8.999987"/>
  <ellipse fill="#282121" stroke="#000" stroke-width="0" stroke-opacity="null" cx="254.999634" cy="353.249737" id="svg_28" rx="13.499981" ry="9.249987"/>
  <text fill="#62b262" stroke="#62b262" stroke-width="2" x="366.500082" y="290.450198" id="svg_36" font-size="35" font-family="'Trebuchet MS', Gadget, sans-serif" text-anchor="start" xml:space="preserve">My Interests</text>
  <ellipse fill="#ffff7c" stroke="#000" stroke-width="0" stroke-opacity="null" cx="284.49999" cy="162.950155" id="svg_50" rx="42.000002" ry="42.499999"/>
  <ellipse fill="#ffff7c" stroke="#000" stroke-width="0" stroke-opacity="null" cx="328.49999" cy="256.950155" id="svg_51" rx="42.000002" ry="42.499999"/>
  <path id="svg_52" d="m330.433868,236.82019c-16.292511,0 -29.499969,9.682312 -29.499969,21.624207c0,4.080658 1.561401,7.894226 4.247742,11.151459l-4.247742,9.102631l11.827332,-2.965149c4.928558,2.708954 11.035126,4.336823 17.672638,4.336823c16.292511,0 29.500031,-9.682373 29.500031,-21.625763s-13.20752,-21.624207 -29.500031,-21.624207zm-4.838135,29.928467l-4.926575,4.81131l-13.548706,-13.244476l13.546661,-13.247559l4.928619,4.822296l-8.620148,8.425262l8.620148,8.433167zm14.899872,4.805023l-4.92453,-4.817566l8.622498,-8.423706l-8.622498,-8.42691l4.92453,-4.817566l13.548706,13.235016l-13.548706,13.250732z" stroke-opacity="null" stroke-width="0" stroke="#000" fill="#ffffff"/>
  <path id="svg_53" d="m145.680603,238.000015c-0.247589,0.00116 -0.486832,0.012115 -0.704224,0.034882c-1.159409,0.121414 -2.319672,0.484833 -2.319672,0.484833c0,0 0.001465,1.700119 -0.164154,2.914246c-0.165634,1.214111 -0.827942,3.276978 -0.827942,3.276978l0.81366,1.194641l0.014282,-0.221481l2.738388,0.352295l0.242676,0.010452c0,0 0.330139,-0.242676 0.661407,-0.606918c0.331253,-0.364227 0.994476,-0.606903 0.994476,-0.606903c0,0 0.164169,-1.821121 0.164169,-3.156647c0,-1.335541 0.663788,-3.521149 0.663788,-3.521149c0,0 -1.203934,-0.160233 -2.276855,-0.155212zm-0.449661,8.036362l-2.738403,-0.109879l-0.014267,-0.02092l-1.42511,21.479172c0.049942,0.00705 0.114197,0.015686 0.114197,0.015686c0.038162,0.412292 0.209366,0.726074 0.47821,0.971405l3.054825,1.023743c0.091827,0.017914 0.183685,0.035553 0.275986,0.054077l0.330704,-23.402817l-0.076141,-0.010452zm-0.254562,23.413239l0,0.038391l-0.275986,-0.092438c-1.239182,-0.241669 -2.418777,-0.443298 -3.054825,-1.023743l-0.644745,-0.216248l0.052338,-0.770844c-0.558289,-0.078918 -3.970337,-0.536469 -5.186554,-0.090698c-1.325027,0.485657 -2.319107,1.213806 -2.65036,2.792145c-0.331268,1.578369 0.662857,4.492798 0.497238,6.435394c-0.165634,1.942596 -1.98877,3.763519 -2.81691,5.341888c-0.828156,1.578339 -1.655182,3.399811 -0.661407,6.070892c0.993774,2.671051 4.638382,4.492371 6.625931,5.099457c1.987549,0.607056 6.126297,0.971405 6.126297,0.971405c0,0 3.977341,0.487671 6.461777,0.366241c5.217178,-0.689056 7.405273,-2.959015 7.729858,-5.795319c0.324585,-2.836334 -1.215622,-6.2388 -3.456909,-9.194397c-2.450592,-3.231628 2.216263,-7.514557 -0.197464,-9.92688c-2.51152,-2.51004 -4.367493,1.633423 -6.131073,0.732483c-0.715805,-0.365692 -1.572342,-0.568176 -2.417206,-0.737732z" stroke-opacity="null" stroke-width="0" stroke="#000" fill="#ffffff"/>
  <path id="svg_54" d="m277.10434,128.555466c-14.081665,0 -25.503448,11.862717 -25.503448,26.499512c0,14.633362 11.421783,26.498932 25.503448,26.498932c14.082245,0 25.497894,-11.86557 25.497894,-26.498932c0,-14.636795 -11.415649,-26.499512 -25.497894,-26.499512zm5.541748,39.752853c-0.139313,0.117157 -0.321167,0.236465 -0.187347,0.375626c0.139374,0.142044 -0.154724,0.239304 -0.154724,0.3116s0.181824,0.448029 0.090576,0.611954c-0.090576,0.167358 -0.160309,0.406677 -0.229828,0.548096c-0.069733,0.142044 -0.230652,0.283844 -0.182678,0.495377c0.043365,0.211517 -0.181885,0.142044 -0.181885,0.356247c0,0.211166 0.203522,0.116669 0.16098,0.378525c-0.048737,0.261292 -0.16098,0.333664 -0.16098,0.519882c0,0.189209 0.112244,0.447998 0.112244,0.520309s-0.112244,0.308807 -0.272461,0.495392c-0.160919,0.188843 -0.273102,0.311615 -0.252289,0.425278c0.027069,0.119995 0.182709,0.261841 0.16095,0.336975c-0.021637,0.066864 -0.22522,0.305969 -0.203491,0.470093c0.021729,0.164078 0.22525,0.097275 0.273254,0.211517c0.04248,0.119324 -0.273254,0.216812 -0.139343,0.333771c0.139343,0.117065 0.321136,0.09433 0.273163,0.381073c-0.032532,0.203217 0.112183,0.2948 0.224365,0.358841c-1.563263,0.40361 -3.190613,0.64296 -4.872253,0.64296c-11.1586,0 -20.23941,-9.431351 -20.23941,-21.026855c0,-3.781052 0.979767,-7.322647 2.665985,-10.388718c0.139282,-0.07515 0.241486,-0.124954 0.300323,-0.111008c0.112244,0.02211 0.139343,0.189087 0.321075,0.236465c0.181915,0.047012 0.342834,-0.141815 0.455017,-0.214355c0.112366,-0.069489 0.203552,-0.356247 0.09137,-0.330917c-0.118439,0.022125 -0.412445,0 -0.412445,0s0.321075,-0.189209 0.321075,-0.308777s0.042664,-0.308807 0.225342,-0.378281c0.181763,-0.072327 0.181763,-0.025269 0.069611,0.258575c-0.118469,0.283859 0.229889,0.16394 0.363739,0.047348s0.230591,-0.02533 0.476715,-0.189377c0.251526,-0.166763 0.251526,-0.261414 0.385376,-0.261414c0.139282,0 0.390778,0.261414 0.524628,0.166992c0.139374,-0.094452 0.52475,0.116455 0.755371,0.116455c0.224457,0 0.958038,0.308807 1.091888,0.308807c0.139404,0 0.551819,0.164536 0.572693,0.473343c0.021729,0.305939 0.155548,0.283432 0.294891,0.283432s0.455078,0.119995 0.455078,0.236862c0,0.119537 -0.09137,0.592239 0.139221,0.712234c0.225189,0.11647 0.433472,0.305984 0.524811,0.258514c0.091187,-0.046982 0,-0.422638 -0.112244,-0.472931c-0.117676,-0.047379 -0.048859,-0.214371 -0.091309,-0.308716c-0.048065,-0.091827 0.13382,-0.091827 0.203552,0.072327c0.06958,0.164047 0.251495,0.472855 0.364441,0.472855c0.112244,0 0.36377,0.283936 0.293945,0.450607c-0.064087,0.166992 0.069824,0.403458 0.273285,0.403458c0.203583,0 0.46051,0.331299 0.551727,0.356155c0.090607,0.02211 0.203613,0.142044 0.203613,0.211548c0,0.075241 0.112152,0.475754 0.112152,0.639709c0,0.164124 -0.06958,0.829086 -0.09137,1.090515s0.181885,0.709732 0.412567,0.946182c0.225159,0.239304 0.427979,0.689941 0.567261,0.784576c0.139282,0.094452 0.225159,0.353333 0.434174,0.330826c0.203552,-0.024872 0.342804,0.14183 0.524658,0.472946c0.181885,0.334152 0.363708,0.876526 0.49765,0.923538c0.139252,0.047394 0.369904,0.214355 0.251495,0.331253c-0.112244,0.11676 -0.294098,0.378479 -0.090576,0.378479c0.208984,0 0.273132,-0.117081 0.43338,0.09726c0.16095,0.211548 0.364532,0.330933 0.342865,0.475769c-0.026276,0.138977 0.181793,0.186417 0.273102,0.211349c0.0914,0.022293 0.294922,0.450806 0.503021,0.258575c0.203552,-0.188873 -0.273132,-0.469925 -0.411621,-0.592316c-0.139343,-0.116913 0,-0.378311 -0.322052,-0.640045c-0.315704,-0.258545 -0.272339,-0.450806 -0.497528,-0.639709c-0.230591,-0.189392 -0.412506,-0.353531 -0.187347,-0.520309c0.229858,-0.166931 0.251526,0.166779 0.342896,0.378311c0.090515,0.211533 0.572632,0.639694 0.776184,0.829102c0.203583,0.189087 0.572723,0.851196 0.685699,0.851196s0.433411,0.381378 0.433411,0.381378s0.176361,0.305969 0.112244,0.400391c-0.069733,0.094772 0.091187,0.450806 0.251465,0.545227c0.155518,0.094818 0.797913,0.40097 0.889099,0.450775c0.091339,0.047455 0.273254,0.403625 0.524719,0.403625c0.246094,0 0.433472,0.024963 0.503052,0.094635c0.06424,0.069519 0.267792,0.353363 0.407135,0.188828c0.139191,-0.166672 0.160889,-0.236404 0.36441,-0.236404c0.208984,0 0.294159,0.164078 0.411774,0.283844c0.112946,0.117096 0.434082,0.428314 0.594299,0.403381c0.155518,-0.022049 0.364471,0.189468 0.476685,0.116959s0.294922,0.047195 0.385406,0.094635c0.096771,0.047363 0.412506,0.216995 0.391632,0.497772c-0.021759,0.286545 0.181793,0.353394 0.315613,0.425705c0.139465,0.072342 0.321259,0.236481 0.438873,0.356262c0.112274,0.113892 0.359039,0.13916 0.428741,0.211533c0.06958,0.069687 0.117645,0.211121 0.321228,0.094559c0.2034,-0.117081 0.160187,-0.331421 0.160187,-0.331421s0.225098,-0.046997 0.342743,0.047577c0.112274,0.091644 0.181915,0.400406 0.251587,0.450607c0.064209,0.047485 0.203522,0.400604 0.107483,0.659531c-0.085876,0.264236 -0.064117,0.520386 -0.155457,0.520386c-0.091339,0 -0.203613,0.311249 -0.342834,0.380722c-0.133881,0.072311 -0.50296,0.403549 -0.476746,0.523148c0.021667,0.114059 0.230682,0.470047 0.182617,0.637207c-0.043243,0.166977 -0.342865,0.35582 -0.273163,0.614975c0.069611,0.264008 0.550964,0.333725 0.567291,0.570175c0.027008,0.239044 0.369873,0.75943 0.412415,0.99585c0.042603,0.23645 0.43335,0.495422 0.43335,0.826279c0,0.333755 0.546448,0.545242 0.658661,0.567337c0.112946,0.025284 0.32196,0.239319 0.476685,0.311661s0.300354,0.211502 0.412506,0.40097s0.091248,0.475723 0.091248,0.545181c0,0.072388 -0.069611,0.803833 -0.133881,1.229523c-0.075012,0.428329 0.085175,0.759689 -0.048706,0.881836zm-14.724701,-22.028336c0.069733,0.025314 0.203552,0.166733 0.273102,0.166733c0.069763,0 0.412567,0.283844 0.503937,0.37851c0.090546,0.094833 0.090546,0.356155 -0.0271,0.378296s-0.181915,-0.258606 -0.203552,-0.378296c-0.021637,-0.116714 -0.251495,-0.116714 -0.363708,-0.189087c-0.112946,-0.072342 -0.369934,-0.420227 -0.182678,-0.356155zm29.375092,9.520462c-0.25235,0.33371 -0.22525,0.497803 -0.337463,0.523132c-0.112946,0.02211 0.112213,0.116486 0.154846,0.352951c0.037872,0.203018 -0.112183,0.408875 0.113007,0.595551c-0.85675,8.421066 -6.511475,15.379364 -14.066101,17.844254c-0.010895,-0.019699 -0.032562,-0.044601 -0.037964,-0.061188c-0.048004,-0.141861 -0.048004,-0.425705 0.112183,-0.520325c0.160919,-0.094452 0.546387,-0.422852 0.637756,-0.49527c0.090424,-0.072556 0.229797,-0.403412 0.160187,-0.450821c-0.069763,-0.046982 -0.406372,0 -0.455078,-0.069489c-0.047943,-0.072525 -0.047943,-0.16983 0.181854,-0.333847c0.225159,-0.163986 0.342834,-0.403259 0.434082,-0.472778c0.09137,-0.07251 0.267792,-0.21434 0.342896,-0.381332c0.06424,-0.163895 -0.075104,-0.072311 -0.208954,-0.072311s-0.203491,-0.258575 -0.203491,-0.375443s0.337341,0.047348 0.594269,0.094376c0.251495,0.044586 0.13385,-0.119324 0.112244,-0.258499c-0.026337,-0.142059 0.043274,-0.38118 0.182526,-0.311676c0.133209,0.072357 0.840515,-0.021988 0.93103,-0.047379c0.091431,-0.022125 0.342926,-0.447968 0.434143,-0.567337c0.090576,-0.119934 0.112183,-0.236435 0,-0.306168c-0.117554,-0.072311 -0.251495,-0.336487 -0.2948,-0.403152c-0.047913,-0.07518 -0.069641,-0.50116 -0.026306,-0.620438c0.048004,-0.114243 0,0.687103 0.321106,0.784546c0.321228,0.094376 0.497681,0.141815 0.797882,-0.142075c0.294128,-0.283905 0.519318,-0.47551 0.545593,-0.662155c0.021606,-0.189026 0.09137,-0.381332 0.203583,-0.448029c0.118378,-0.072296 0.182678,0.186676 0.322021,-0.119308c0.138458,-0.308975 0.272308,-0.286652 0.411591,-0.545227c0.13382,-0.261856 -0.229858,-0.592865 0.043335,-0.784988c0.273224,-0.186157 0.749115,-0.422653 0.749115,-0.422653s0.139282,-0.072327 0.412567,-0.144608c0.273102,-0.066895 0.56723,-0.024963 0.658569,-0.164185c0.091278,-0.1418 0.181793,-0.447952 0.321106,-0.614761c0.139252,-0.166931 0.294861,-0.425888 0.230591,-0.545212c-0.06958,-0.119949 0.181885,-0.642883 0.154816,-0.782059c-0.020966,-0.141678 -0.224396,-0.475815 0.118439,-0.759293s0.70108,-0.712402 0.72821,-0.826248c0.020844,-0.119751 0.294067,-0.617615 0.267761,-0.856888c-0.016327,-0.234055 -0.267761,-0.517487 -0.428741,-0.592682c-0.161011,-0.066635 -0.503082,-0.089355 -0.636902,-0.281006s-0.52475,-0.378479 -0.664001,-0.330902c-0.133881,0.047089 -0.364594,0.094482 -0.546356,-0.028152c-0.181915,-0.113861 -0.476776,-0.258499 -0.588928,-0.35318c-0.117676,-0.09201 -0.412445,-0.163879 -0.551788,-0.163879s-0.112183,-0.097839 -0.315735,0.188843c-0.209045,0.286697 0,0.381332 -0.363647,0.331039c-0.370026,-0.044342 0.042419,-0.069717 0.251434,-0.353149c0.203491,-0.283844 -0.027069,-0.450638 -0.251434,-0.378265c-0.230713,0.072311 -0.069794,0.213974 -0.434235,0.283401c-0.363739,0.069504 -0.363739,-0.16687 -0.139282,-0.21109c0.230621,-0.047409 0.637543,-0.261749 0.637543,-0.353409c0,-0.097427 -0.043243,-0.359161 -0.225128,-0.359161s-0.139221,-0.233658 -0.412415,-0.539612c-0.273254,-0.311615 -0.615265,-0.500443 -0.888458,-0.456299c-0.2677,0.047379 -0.476654,0.11972 -0.615967,-0.136337c-0.13385,-0.264252 -0.294861,-0.31163 -0.385498,-0.450439c-0.091217,-0.141815 -0.321014,0 -0.390778,-0.072327s-0.06958,-0.069489 -0.06958,-0.069489s-0.294922,0.069489 -0.13385,-0.144653c0.160126,-0.211578 0.224365,-0.61496 0.160126,-0.592896c-0.069672,0.024933 -0.181854,0.359268 -0.293976,0.333893c-0.112335,-0.022278 -0.027222,-0.072098 -0.25705,-0.211105c-0.225189,-0.142029 -0.588898,-0.02533 -0.588898,0.094452c0,0.116653 -0.112915,0.211517 -0.112915,0.211517s-0.069763,-0.066864 -0.139343,-0.211517c-0.06897,-0.142014 -0.385468,-0.166977 -0.545593,-0.024933c-0.16095,0.141586 -0.251465,-0.356201 -0.364441,-0.356201s-0.342865,0.116882 -0.455078,0.333649c-0.112183,0.211563 -0.069702,0.52034 -0.160248,0.498306c-0.091248,-0.02533 -0.113007,-0.42598 -0.091248,-0.570602c0.021637,-0.14447 0.273163,-0.378525 0.091248,-0.425476c-0.182617,-0.047501 -0.455872,0.236481 -0.568054,0.261307c-0.112183,0.022125 -0.342865,0.189499 -0.482086,0.378326c-0.133118,0.189468 -0.202789,0.308777 -0.336639,0.378479c-0.139313,0.072327 -0.342896,0 -0.2948,-0.069702c0.042511,-0.072342 -0.39093,-0.330795 -0.46051,-0.239075c-0.069641,0.094437 -0.273254,0.166733 -0.476654,0.264008c-0.203552,0.095047 -0.3909,-0.119324 -0.433411,-0.213745s-0.139282,-0.117126 -0.161072,-0.425934c-0.020813,-0.305908 0.048859,-0.639633 0.117706,-0.829102c0.064209,-0.189041 -0.342072,-0.567322 -0.502991,-0.545227c-0.160156,0.024887 -0.321228,0.189453 -0.476715,0.164078c-0.160248,-0.022049 -0.090576,-0.069489 -0.342865,-0.069489c-0.251495,0 -0.047913,-0.044388 0,-0.258759c0.043274,-0.211288 -0.090576,-0.498062 0.16098,-0.687042c0.251465,-0.192307 0.160919,-0.642548 0,-0.662155c-0.16098,-0.027756 -0.455078,0.069519 -0.6586,0.047409c-0.203491,-0.027802 -0.369171,0.16391 -0.299438,0.375427c0.06955,0.214386 -0.112976,0.35582 -0.182709,0.333755c-0.06958,-0.022125 -0.154755,-0.141815 -0.411652,0.047394c-0.246948,0.189087 -0.337402,0.116669 -0.589691,-0.094833c-0.251617,-0.213959 -0.524719,-0.425278 -0.572662,-0.756393c-0.042633,-0.334076 -0.069763,-0.665024 0.027039,-0.854401c0.085205,-0.188904 0.085205,-0.519913 -0.048767,-0.570175c-0.133087,-0.044601 0.161041,-0.281067 0.32196,-0.328018c0.160217,-0.04747 0.406281,-0.26181 0.455017,-0.356293c0.042603,-0.094543 0.273254,-0.072495 0.519318,-0.072495c0.251495,0 0.299438,0 0.551697,0.142014c0.246216,0.141846 0.294098,-0.072327 0.294098,-0.142014c0,-0.072327 0.09137,-0.214172 0.364502,-0.188797c0.272461,0.022034 0.6586,-0.095062 0.728333,-0.025375s0.202637,0.356186 0.342041,0.26181c0.139282,-0.095047 0.182587,-0.26181 0.230499,0.024857c0.042664,0.283966 0.154816,0.712051 0.363831,0.781555c0.203552,0.072525 0.091248,0.353531 0.294769,0.378479c0.203552,0.022552 0.29953,-0.447983 0.229828,-0.614746c-0.069519,-0.164124 -0.208069,-0.662354 -0.321045,-0.781738c-0.112305,-0.11705 -0.112305,-0.425858 0.112976,-0.520294c0.229736,-0.094604 0.776093,-0.567322 0.930939,-0.709351c0.166412,-0.144638 0.59436,-0.26181 0.46048,-0.450607c-0.13858,-0.192291 -0.181915,-0.309006 -0.181915,-0.450836s0.13385,-0.094437 0.203583,0s0.342865,-0.142029 0.273132,-0.261398c-0.06427,-0.116867 -0.047943,-0.28389 0.112274,-0.261765c0.16098,0.024902 0.203491,-0.116547 0.139221,-0.211578c-0.069611,-0.097198 0.161041,-0.213974 0.321198,-0.166687c0.160919,0.047379 0.568024,-0.024963 0.637695,-0.119583c0.064178,-0.094833 -0.139374,-0.189209 -0.139374,-0.378281c0,-0.189438 0.273254,-0.356201 0.433411,-0.37854c0.161072,-0.024857 0.364441,0 0.390808,-0.072296c0.021759,-0.069519 0.246887,-0.261337 0.267822,-0.094437c0.027039,0.166733 0,0.450836 0.181854,0.450836c0.187988,0 0.407013,-0.214371 0.482117,-0.236832c0.064148,-0.02211 0.498352,-0.116745 0.588867,-0.141617c0.09137,-0.022537 0.637787,-0.069565 0.573517,-0.236862c-0.069702,-0.16394 -0.139252,-0.330887 -0.209015,-0.400436c-0.06958,-0.07251 -0.13385,0.022125 -0.225159,0.14183c-0.090607,0.119644 -0.251465,0.119644 -0.294128,0.024948c-0.048767,-0.094406 0.015533,-0.37825 -0.139221,-0.28627c-0.161011,0.094574 -0.182617,0.189041 -0.273224,0.141617c-0.096741,-0.047043 -0.181885,-0.211105 -0.181885,-0.211105s0.224396,-0.117172 0.064301,-0.334152c-0.155457,-0.211121 -0.386169,-0.164124 -0.610596,-0.044144c-0.230621,0.11647 -0.208923,0.094345 -0.482117,0.163864s-0.412537,0.142044 -0.412537,0.142044s0.369904,-0.233566 0.52475,-0.37851c0.16098,-0.141846 0.369904,-0.214157 0.503815,-0.356171c0.139252,-0.141846 0.497528,0.072281 0.497528,0.072281s0.187347,-0.19162 0.187347,-0.072281s-0.048096,0.425949 0.091309,0.425949c0.133911,0 0.524658,-0.189499 0.364532,-0.236481c-0.161072,-0.047455 0.229828,0 0.385284,-0.12001c0.160187,-0.119293 0.342896,-0.119293 0.433472,-0.16391c0.091278,-0.047394 0.160919,-0.261368 0.321167,-0.261368c0.16095,0 0.225159,0.213974 0,0.35582s-0.251648,0.498291 -0.363861,0.592636c-0.112183,0.09462 -0.047882,0.214432 0.133972,0.189087c0.181854,-0.02211 0.342834,0.025345 0.503021,-0.02211s0.251526,0.047455 0.294922,0.116943c0.042419,0.072144 0.181763,-0.069489 0.181763,-0.069489s0.294861,-0.072388 0.385468,0.046997c0.096649,0.117065 0.166321,-0.072342 0.096649,-0.189087c-0.069611,-0.116898 -0.160919,-0.236206 -0.230621,-0.381149c-0.06955,-0.141815 -0.160156,-0.189407 -0.337402,-0.141815c-0.181763,0.047455 -0.229828,-0.047592 -0.342834,-0.117065c-0.117645,-0.071945 -0.20813,0.094833 -0.117645,-0.071945c0.096802,-0.164551 0.139252,-0.21434 0.208984,-0.356247c0.069733,-0.142044 0.364441,-0.403351 0.069733,-0.470032c-0.299591,-0.07515 -0.3909,-0.11998 -0.433441,-0.261841c-0.048706,-0.141998 -0.390778,-0.403336 -0.482147,-0.403336c-0.09137,0 -0.407043,0 -0.428711,-0.119781c-0.026337,-0.116501 -0.251526,-0.378296 -0.36911,-0.497818c-0.112274,-0.116943 -0.546448,-0.639694 -0.615967,-0.687088c-0.064331,-0.04744 -0.154907,-0.022079 -0.363892,0.261322c-0.20343,0.286774 -0.385284,0.334183 -0.546204,0.261826c-0.160309,-0.069687 -0.181976,-0.047577 -0.337555,-0.23645c-0.165588,-0.189438 0.155579,-0.211533 0.085907,-0.331512c-0.06958,-0.116486 -0.434052,-0.166733 -0.658447,-0.188812c-0.230682,-0.024948 -0.390961,-0.283859 -0.728302,-0.308807c-0.342865,-0.022736 -0.75531,0.046997 -0.867493,0.046997c-0.112244,0 -0.112244,0.16716 -0.155579,0.425751c-0.047974,0.261353 0.155579,0.333878 -0.047974,0.381332c-0.203552,0.047363 -0.299469,0.069489 -0.091339,0.163925c0.203552,0.097397 0.476654,0.475677 0.476654,0.475677s0,0.211533 -0.160126,0.331299c-0.16098,0.119537 -0.321198,0.236496 -0.407104,0.097488c-0.09671,-0.144852 -0.342834,-0.12001 -0.273132,0.022049c0.06424,0.141907 0.203583,0.214249 0.203583,0.356262c0,0.1418 0.203552,0.49498 0.06955,0.614746c-0.139313,0.119492 -0.2948,0.024872 -0.412415,0.046982s-0.229858,-0.188873 -0.13385,-0.236267c0.085876,-0.04718 -0.026306,-0.403427 -0.026306,-0.403427s-0.273285,0.403427 -0.25238,0.189484c0.0271,-0.21434 -0.112183,-0.236877 -0.112183,-0.403839c0,-0.16394 -0.139313,-0.236481 -0.337402,-0.188812c-0.208893,0.046967 -0.455048,-0.072525 -0.845886,-0.144867c-0.385315,-0.069565 -0.546387,-0.116959 -0.867462,-0.28392c-0.315704,-0.164047 -0.43338,-0.046967 -0.594391,-0.022034c-0.155518,0.022034 -0.091248,-0.333725 -0.294037,-0.378296c-0.203552,-0.050278 -0.316528,0.044571 -0.364502,-0.261398c-0.042603,-0.306168 0.069611,-0.381332 0.567291,-0.712631c0.503754,-0.330841 0.434082,-0.47287 0.824951,-0.519943c0.385376,-0.047394 0.56723,0.047073 0.56723,-0.072327s0.091217,-0.592636 0.091217,-0.356155s0.460541,0.253189 0.256958,0.417358c-0.208862,0.166794 -0.095886,0.188904 0.069733,0.188904c0.155426,0 0.449585,-0.163956 0.449585,-0.163956s0.369904,-0.166962 0.460449,-0.024948c0.09137,0.141815 0.09137,0.286682 0.251526,0.286682s0.498413,-0.192215 0.203552,-0.3564c-0.294128,-0.166733 -0.475891,-0.141785 -0.658539,-0.33371s-0.139313,-0.116867 -0.342102,-0.069504c-0.203583,0.047058 -0.203583,-0.072311 -0.273163,-0.072311s-0.182678,0.047028 -0.230621,-0.047592c-0.042633,-0.094452 0.027039,-0.11647 0.256958,-0.11647c0.225159,0 0.49826,0.069489 0.49826,0.069489s0.273315,-0.094803 0.342896,-0.116943c0.06424,-0.024979 0.427948,-0.072342 0.363708,-0.283859c-0.069611,-0.214371 -0.299469,-0.214371 -0.363708,-0.283875s0.13382,-0.164108 0.246216,-0.213989c0.117493,-0.047394 0.433228,0 0.433228,0s0.208954,0.024918 0.208954,-0.069519s-0.053314,-0.214401 0.085907,-0.142029s0,0.283936 0.209045,0.236465c0.20343,-0.047379 0.251465,0 0.363678,0.069489c0.112152,0.072342 -0.026306,0.356476 -0.139343,0.403458c-0.112152,0.044556 -0.294037,0.141815 -0.042572,0.16394c0.251526,0.025253 0.427948,0.025253 0.427948,0.025253s0.166382,-0.164276 0.230713,-0.305878c0.06958,-0.14476 0.181793,-0.050293 0.273102,0c0.090576,0.044342 0.433411,0.116684 0.112213,0.211121c-0.321075,0.094757 -0.385315,0.214401 -0.455078,0.331238c-0.064056,0.119553 -0.091217,0.19191 -0.385345,0.119553c-0.300232,-0.072327 -0.455017,-0.047012 -0.52475,0.072357c-0.069611,0.116882 -0.021637,0.498215 0.090607,0.447983c0.112946,-0.047241 0.225189,-0.047241 0.364441,-0.094666c0.139404,-0.047333 0.684875,0.047424 0.818848,0.024963c0.139282,-0.024963 0.369965,0.236496 0.434082,0.189423c0.069733,-0.047363 0.208954,0.094437 0.342804,0.189087c0.133972,0.094376 0.090637,-0.211533 0.337494,-0.022095c0.256897,0.188889 0.117584,0.188889 0.256897,0.188889c0.133972,0 0.427979,0.022415 0.427979,0.022415s0.027069,-0.234024 0.251465,-0.189209c0.230621,0.047379 0.434143,0.308777 0.407074,0.116898c-0.016113,-0.1866 0.027069,-0.32843 -0.154663,-0.472946c-0.182648,-0.141876 -0.476807,-0.236603 -0.52478,-0.30629c-0.048706,-0.071991 -0.091339,-0.166809 -0.021637,-0.213821c0.069611,-0.044769 0.385345,0.024948 0.56723,0.144318c0.182617,0.116867 0.342834,0.236755 0.476715,0.14183c0.139252,-0.094437 0.300171,-0.14183 0.36911,-0.213837c0.06427,-0.072311 0.22525,-0.283829 0.22525,-0.283829s-0.685699,-0.091751 -0.770782,-0.214371c-0.096741,-0.116714 -0.412445,-0.283859 -0.503754,-0.283859s-0.342133,0.167145 -0.433472,-0.069504s-0.091309,-0.522736 -0.181763,-0.545242c-0.091339,-0.024933 -1.049438,-0.166992 -1.183411,-0.239349c-0.139252,-0.069427 -0.685638,-0.23645 -0.88913,-0.353104s-0.503052,-0.286697 -0.685608,-0.286697c-0.181915,0 -0.936401,0.094559 -1.070374,0.07251c-0.139282,-0.024933 -0.546265,0.047012 -0.707336,0.069534c-0.160156,0.024887 0.203583,0.333664 -0.13385,0.403137c-0.342041,0.072525 -0.299377,0.12001 -0.229797,-0.236267c0.06427,-0.356369 -0.230652,-0.45079 -0.524658,-0.308914c-0.294922,0.142044 -0.776215,0.239212 -0.664032,0.403351c0.117676,0.167023 -0.016235,0.286713 0.208984,0.450867c0.224396,0.166733 0.321075,0.214142 0.615173,0.189255c0.294952,-0.022522 0.59433,0.046997 0.59433,0.046997s0,0.283844 -0.112152,0.331085c-0.117645,0.047409 -0.299561,0.047409 -0.348297,0.189224c-0.042511,0.142029 -0.2677,0.214371 -0.2677,0.142029s0.112976,-0.308823 -0.048065,-0.425903c-0.155487,-0.119339 -0.203522,-0.1418 -0.385376,-0.024933c-0.181854,0.119583 -0.203552,0.166992 -0.29953,-0.022018c-0.091187,-0.189484 -0.364471,-0.356308 -0.364471,-0.356308s-0.181824,-0.23642 -0.321106,-0.353271c-0.133942,-0.119537 -0.385437,-0.094666 -0.407043,0.022476c-0.021667,0.116486 0.04245,0.236481 0.13382,0.450623c0.091339,0.213974 0.181946,0.614975 0.027069,0.639832c-0.160889,0.024963 -0.182556,0.047043 -0.342804,0.094452c-0.160889,0.047394 -0.230682,-0.069489 -0.230682,-0.25853s-0.06955,-0.356216 -0.020813,-0.428757c0.042603,-0.069519 -0.182587,0.050507 -0.412445,0c-0.22522,-0.044571 -0.407135,0.094635 -0.181854,0.1698c0.229797,0.069489 0.277771,0.353363 0.069641,0.423035c-0.203522,0.072342 -0.98056,0 -1.232086,0s-0.615173,0.072342 -0.684845,-0.069672c-0.069611,-0.14183 0.208191,-0.236481 0.363708,-0.236481c0.16098,0 0.636932,0.022339 0.819489,-0.236176c0.181885,-0.261826 -0.22522,-0.309036 -0.407013,-0.309036c-0.181824,0 -0.321136,-0.069489 -0.524689,-0.281097c-0.208923,-0.214142 0.133942,-0.356171 0.090546,-0.450623c-0.047943,-0.094559 -0.272369,-0.024887 -0.475891,-0.024887c-0.203552,0 -0.52478,-0.164108 -0.52478,0.024887c0,0.188904 0.251526,0.73172 0.090576,0.614777c-0.160187,-0.117096 -0.139313,-0.286682 -0.251495,-0.428299c-0.112183,-0.14183 -0.294891,-0.116928 -0.52475,-0.094864c-0.225189,0.02536 -0.615997,0.094864 -0.72818,0.072327c-0.112213,-0.024948 -0.021667,-0.024948 -0.273102,-0.1418c-0.251648,-0.119522 -0.363861,-0.094635 -0.546387,-0.213974c-0.181915,-0.12262 -0.020935,-0.167343 -0.342102,-0.192307c-0.316559,-0.022034 -0.294891,0.164169 -0.615936,0.12001c-0.315796,-0.047501 -0.407166,0.022034 -0.728333,0c-0.315765,-0.025375 -0.476654,-0.047501 -0.524628,0.116455c-0.042572,0.166977 -0.133942,0.450806 -0.273224,0.450806c-0.133881,0 -0.294861,0.167023 0.139282,0.189499c0.43338,0.024857 0.181915,0.236481 0.56723,0.213745c0.390869,-0.024933 0.728333,-0.024933 0.819672,-0.213745c0.095917,-0.189499 0.160156,-0.189499 0.208832,-0.117142c0.042633,0.069473 0.385468,0.495468 0.385468,0.495468s0.229858,0.188995 0.321075,0.236389c0.091339,0.047043 -0.091217,0.261398 -0.273102,0.141861c-0.181915,-0.116943 -0.52478,-0.09198 -0.664032,-0.21138c-0.133881,-0.117096 -0.749054,-0.117096 -0.910126,-0.094574c-0.16098,0.024887 -0.433289,-0.069473 -0.524628,-0.069473c-0.091339,0 -0.390778,0.236435 -0.390778,0.236435s-0.112213,-0.192322 -0.176483,-0.286789c-0.069672,-0.094315 -0.182648,0.094467 -0.273254,0.119827c-0.091217,0.022049 -0.369904,-0.192108 -0.643005,-0.097656c-0.27243,0.097656 -0.181946,0.19223 -0.567322,0.166946s-0.476685,-0.09465 -0.615936,-0.06929c-0.139282,0.022049 -0.139282,0.022049 -0.139282,0.022049s0.021576,0.09465 -0.133972,0.189087c-0.160156,0.094818 -0.272369,0.214355 -0.390778,0.072296c-0.112244,-0.1418 -0.181915,-0.1418 -0.246063,-0.166733c-0.069702,-0.022125 -0.209015,-0.142059 -0.503082,-0.072357c-0.2948,0.072357 -0.75528,-0.091797 -0.841156,-0.091797c-0.068939,0 -0.551086,-0.027679 -0.861389,-0.061111c3.699219,-4.178848 8.989471,-6.819214 14.874115,-6.819214c3.7323,0 7.223389,1.074127 10.226837,2.913254c-0.203552,0.130692 -0.556427,0.108261 -0.679474,0.041382c-0.13385,-0.077637 -0.278595,-0.141815 -0.835785,-0.110886c-0.550995,0.033249 -1.161713,0.222321 -1.043945,0.411713c0.128418,0.189087 -0.246124,0.300323 -0.342896,0.205856c-0.095947,-0.094772 -0.540222,0.111099 -0.513855,0.303162c0.027069,0.189072 -0.069519,0.40889 -0.304901,0.361511c-0.236023,-0.049896 -0.401672,0.108582 -0.417847,0.267014c-0.010895,0.158844 -0.540955,0.267456 -0.583588,0.267456c-0.042542,0 -0.722717,-0.014145 -0.471222,0.172409c0.166351,0.125076 0.262268,0.049835 0.471222,0.094467c0.209045,0.04718 0.374573,0.394852 0.487579,0.445145c0.10675,0.047012 0.26236,0 0.33197,-0.09729c0.068909,-0.094818 0.165588,-0.425888 0.165588,-0.425888s0,0.314499 0.171051,0.378464c0.166473,0.063828 0.578918,-0.047394 0.691162,-0.030518c0.112152,0.016373 0.765289,0.111389 0.942566,0.205856c0.187225,0.09436 0.626038,0.158371 0.754486,0.36145c0.123047,0.205826 0.139282,0.918457 0.208923,0.996063c0.069763,0.077988 0.304871,-0.253082 0.35907,-0.331131c0.053467,-0.080582 0.347504,-0.033203 0.444305,0.075363c0.095886,0.111313 0.321075,0.378311 0.304871,0.489792c-0.015442,0.113663 -0.053375,0.286316 -0.139282,0.222244c-0.079681,-0.061188 -0.218994,-0.044525 -0.165588,-0.172409c0.053375,-0.125061 0.085907,-0.394882 -0.027039,-0.394882c-0.112305,0 -0.209076,0 -0.209076,0s-0.208191,-0.064453 -0.347443,0.17244s-0.0271,0.475693 0.069672,0.475693s0.321228,0 0.321228,0.061203c0,0.063828 -0.236084,0.253281 -0.225311,0.364319c0.016296,0.111237 0.192749,0.489746 0.251556,0.567734c0.054199,0.080475 0.348236,0.158463 0.428802,0.175201c0.085754,0.016495 -0.192841,0.030655 -0.123108,0.141876c0.069611,0.111099 0.181793,0.378464 0.331909,0.442322c0.154877,0.064041 0.583588,0.347885 0.637024,0.472946c0.058807,0.127869 0.390808,-0.094452 0.460388,-0.11145c0.069672,-0.013611 0.058746,0.333893 0.251556,0.350754c0.192719,0.01355 0.262238,-0.033447 0.428741,-0.175278s0.128387,-0.333694 0.139282,-0.475754c0.016205,-0.14183 0,-0.250427 0.181793,-0.205887c0.181976,0.047012 0.278595,-0.033432 0.262421,-0.189377c-0.010895,-0.158508 -0.16571,-0.347397 0.123047,-0.39476c0.294769,-0.047577 0.444153,-0.253479 0.626862,-0.253479c0.181763,0 0.684875,0.080841 0.738251,0c0.05423,-0.07756 0.289429,-0.442307 0.444977,-0.455887c0.117615,-0.014175 0.390747,-0.039124 0.674774,-0.078049c2.773712,3.438675 4.492462,7.812057 4.690582,12.591583c-0.208923,0.289215 -0.021698,0.55658 0.03717,0.742859c0,0.055847 0.005402,0.105713 0.005402,0.161636c0,0.247223 -0.027069,0.48938 -0.037903,0.737c0,0.002777 0,0.005661 -0.004669,0.008469zm-17.043274,-7.887207c-0.112915,0.024979 -0.300201,-0.094757 -0.300201,-0.258881s-0.155609,0.305939 -0.069702,0.450607c0.096802,0.142029 -0.181885,0.306122 -0.273132,0.306122s-0.154846,-0.211487 -0.133942,-0.423035c0.021729,-0.214005 -0.13382,-0.403214 -0.390808,-0.380692c-0.246063,0.024857 -0.363739,0.236404 -0.449585,0.308792c-0.096039,0.071899 -0.096039,0.472855 -0.069733,0.567291s0.021759,0.430908 -0.208862,0.403244c-0.203583,-0.02211 -0.160248,-0.422516 -0.133942,-0.567398c0.021729,-0.14183 -0.069641,-0.498169 0.021729,-0.687073c0.096649,-0.189423 0.363739,-0.258896 0.546234,-0.283859s0.572754,0.119797 0.636993,0.094437c0.069702,-0.024918 0.390839,-0.024918 0.551849,0c0.154663,0.019608 0.385284,0.448013 0.273102,0.470444zm0.406342,0.072388c0.069611,0.046997 0.546387,-0.072388 0.637604,0.046997c0.090546,0.119919 -0.091217,0.142029 -0.321045,0.236465c-0.22522,0.094803 -0.294922,0.072342 -0.386261,0.189423s-0.385376,0.164154 -0.524597,0.305969c-0.13855,0.144623 -0.380035,0.227966 -0.433472,0.119385c-0.069641,-0.141922 0.0271,-0.072403 0.047974,-0.141922c0.021667,-0.071915 0.428741,-0.236374 0.428741,-0.236374s0.481354,-0.567352 0.551056,-0.519943zm-1.82019,-0.829163c-0.069672,0.022079 -0.321167,-0.047394 -0.530212,-0.047394c-0.203461,0 -0.155487,-0.142044 -0.251495,-0.117081c-0.085876,0.022644 -0.294769,0.069687 -0.428741,0.142014c-0.139282,0.069519 -0.36908,0.055908 -0.36908,-0.072327c0,-0.189072 0.091339,-0.141617 0.390869,-0.261414c0.294769,-0.119507 0.615967,-0.450806 0.749786,-0.308762c0.139313,0.141815 0.390778,0.308762 0.551086,0.330887c0.16095,0.028183 -0.047974,0.308777 -0.112213,0.334076zm-2.334778,-7.350342c-0.139374,0.047592 -0.609955,0.253448 -0.561829,0.361649c0.016174,0.041702 0.139221,0.128265 0.33194,0.094849c0.19812,-0.030624 0.486786,-0.06163 0.626068,-0.078094c0.13385,-0.016754 0.166321,-0.253235 0.010864,-0.266983c-0.150146,-0.016876 -0.273224,-0.158905 -0.407043,-0.11142zm-1.686401,0.188995c-0.10672,0.047409 -0.423279,-0.077576 -0.59433,0.033447c-0.10675,0.069489 -0.042511,0.297882 0.123138,0.314453c0.171021,0.016861 0.455017,-0.111023 0.487549,-0.016571c0.031738,0.094574 0.13385,0.523148 0.411652,0.381302c0.273254,-0.141998 0.25769,-0.269882 0.332062,-0.286728c0.075012,-0.01416 -0.015564,-0.36145 -0.139374,-0.442307c-0.117554,-0.078049 -0.513794,-0.030563 -0.620697,0.016403zm-0.546265,-1.340942c0.0271,0.080826 -0.016296,0.14183 0.19812,0.17244c0.208893,0.033417 0.300201,0.064407 0.42334,0.064407c0.122925,0 0.075012,-0.205826 -0.032562,-0.347855c-0.10675,-0.141815 -0.075104,-0.125427 -0.347473,-0.205856c-0.273163,-0.078003 -0.546417,-0.078003 -0.72818,-0.063858c-0.182709,0.016464 -0.380798,-0.031021 -0.428772,0.191727c-0.021576,0.111404 0.123016,0.203049 0.304901,0.203049s0.578888,-0.091644 0.610626,-0.014053zm0.396271,0.868027c0.075012,0.172607 0.075012,0.092209 0.289307,0.111496c0.209045,0.016388 0.374573,-0.222717 0.3909,-0.300323c0.016205,-0.080872 -0.107635,-0.23645 -0.39624,-0.205856c-0.289459,0.03038 -1.166992,-0.047653 -1.290863,0.06102c-0.112213,0.105728 0,0.425873 -0.042511,0.45932c-0.048035,0.030365 0.016235,0.172409 0.13385,0.141434c0.122925,-0.030655 0.181732,-0.330933 0.273163,-0.330933c0.091309,0 0.5672,-0.111435 0.642395,0.063843zm-2.85965,-0.648163c0.091309,0.078033 0.322021,0.01416 0.305695,-0.063782c-0.016205,-0.078094 0.090576,-0.39534 -0.091217,-0.408905c-0.181946,-0.017059 -0.438873,0.175232 -0.712006,0.269699c-0.181824,0.058289 -0.139252,0.236389 -0.016296,0.236389s0.423309,-0.111435 0.513824,-0.033401zm1.296356,0.283859c-0.155609,0.08046 -0.203552,0.128021 -0.337494,0.094604c-0.13385,-0.030518 -0.13385,-0.283859 -0.379883,-0.236404c-0.241547,0.047379 -0.28949,0.189011 -0.364502,0.253235s-0.240723,0.111053 -0.299561,0.077591c-0.064148,-0.030594 -0.412445,-0.233627 -0.412445,-0.233627s-0.728271,-0.033432 -0.759918,-0.127792c-0.032532,-0.094482 -0.150146,-0.250504 -0.487549,-0.219894s-0.910095,0.236267 -1.001465,0.236267c-0.091339,0 0.106812,0.189484 -0.016266,0.189484c-0.122955,0 -0.273193,-0.014053 -0.315674,0.124969c-0.031708,0.097488 0.133881,0.09465 0.326538,0.09465c0.19809,0 0.519287,0 0.610657,-0.046997c0.091217,-0.047653 0.546295,-0.158875 0.53009,-0.017059c-0.010925,0.144852 0.187195,0.364746 0.288666,0.334137c0.107544,-0.030975 0.321808,-0.236832 0.428711,-0.158859c0.106781,0.080887 0.122986,0.26709 0.22522,0.317291c0.10675,0.044586 0.39621,0.044586 0.534698,0c0.13382,-0.050201 0.514648,-0.050201 0.68573,-0.0168c0.16629,0.033447 0.653137,0.125458 0.696442,0.033447c0.048004,-0.097504 0.181854,-0.111008 0.198059,-0.206055s0.090607,-0.394699 0.090607,-0.394699s-0.090607,-0.175522 -0.240662,-0.097488zm7.693939,16.330917c-0.208984,0.038895 -0.160278,0.461517 0.091339,0.383926c0.251495,-0.077988 0.112152,-0.423019 -0.091339,-0.383926zm1.98114,-0.564896c-0.181854,-0.047241 -0.385376,0 -0.524658,0.025269c-0.139374,0.022125 -0.52475,0.378281 -0.52475,0.378281s0.251526,0.047089 0.407104,0.047089c0.16098,0 0.256927,0.094574 0.390778,0.164063c0.13382,0.072357 0.385315,-0.094559 0.476685,-0.094559c0.091339,0 0.209015,0.284027 0.229858,-0.024994c0.021637,-0.305939 -0.272339,-0.447754 -0.455017,-0.495148zm-6.350464,-15.354065c-0.074371,-0.189468 -0.455048,-0.253525 -0.534882,-0.064026c-0.064117,0.164093 0.609955,0.252808 0.534882,0.064026zm4.34848,14.193817c0.251465,-0.046936 0.112183,-0.264206 -0.096802,-0.236435c-0.203552,0.022308 -0.15564,0.283829 0.096802,0.236435zm3.030457,1.463287c-0.208984,0.03894 -0.166351,0.462036 0.085083,0.384018c0.257751,-0.075195 0.1185,-0.422684 -0.085083,-0.384018zm-2.762756,-0.706436c-0.155518,0.024918 -0.498352,-0.164154 -0.680298,-0.330963c-0.181885,-0.166916 -0.524536,-0.166916 -0.663971,-0.166916c-0.13382,0 -0.685577,0.166916 -0.685577,0.166916c-0.020966,0.236496 0.208893,0.166809 0.482117,0.166809s0.749817,-0.047394 0.840424,0.069687c0.091339,0.116562 0.503723,0.305954 0.615967,0.403229c0.112152,0.094635 0.476776,0.119904 0.503082,0.024948s-0.251495,-0.355865 -0.411743,-0.33371zm-2.714813,-15.123306c-0.230591,-0.01683 -0.519287,-0.01683 -0.701965,0c-0.181732,0.013763 -0.321075,-0.127884 -0.455017,-0.208679c-0.139282,-0.078079 -0.444183,-0.330933 -0.620636,-0.361923c-0.182587,-0.030609 -0.155487,-0.030609 -0.535492,-0.124969c-0.192719,-0.049896 -0.513885,-0.111481 -0.513885,-0.158478c0,-0.047379 -0.091339,0.222443 0.074371,0.303101c0.166382,0.078018 0.439514,0.219635 0.637604,0.297623c0.19809,0.078094 0.578156,0.094467 0.701141,0.253326c0.117615,0.158417 0.530182,0.283844 0.530182,0.283844l0.487549,0.046967c0,0 0.33194,-0.077942 0.684845,-0.046967c0.348206,0.033447 0.862061,0.080444 1.156952,0.064072c0.284058,-0.014267 0.33197,-0.111435 0.36377,-0.172668c0.027039,-0.063797 -0.535583,-0.189255 -0.674072,-0.172424c-0.133942,0.010941 -0.910889,0.010941 -1.135345,-0.002823zm0.845886,3.630508c-0.058838,0.072357 0.278564,0.172638 0.337402,0.078018c0.058838,-0.092026 -0.181885,-0.250427 -0.337402,-0.078018zm1.022308,0.330841c0.150208,-0.063782 0.075012,-0.252823 -0.138489,-0.191605c-0.241486,0.075119 -0.016327,0.256042 0.138489,0.191605z" fill-opacity="null" stroke-opacity="null" stroke-width="0" stroke="#000" fill="#ffffff"/>
  <path id="svg_55" d="m308.000641,163c-0.250031,0 -0.472473,0.109207 -0.660156,0.307297c-0.1875,0.197922 -0.342621,0.481537 -0.47171,0.835754c-0.258118,0.708298 -0.41687,1.703323 -0.503723,2.894943c-0.08667,1.189331 -0.101288,2.574188 -0.065277,4.056671c-3.088409,1.348099 -9.352264,4.131592 -9.855469,4.753082c-0.669922,0.827469 -0.453461,1.775772 -0.183533,2.405289l10.297638,-2.230103c0.217682,2.906204 0.527161,5.784622 0.796875,8.0401c-1.00705,0.313599 -2.886871,0.932816 -3.274902,1.316803c-0.534546,0.528976 -0.534546,2.237259 -0.534546,2.237259l4.214661,-0.364731c0.099243,0.736359 0.161316,1.166016 0.161316,1.166016l0.006165,0.038773l0.033264,0l0.077576,0l0.033264,0l0.006134,-0.038773c0,0 0.061981,-0.429672 0.161377,-1.166016l4.215851,0.364731c0,0 0,-1.708282 -0.534546,-2.237259c-0.388153,-0.38414 -2.269348,-1.004761 -3.276093,-1.318237c0.269104,-2.248566 0.578064,-5.115967 0.795593,-8.012802l10.176941,2.204239c0.269958,-0.629517 0.48764,-1.57782 -0.182281,-2.405289c-0.496948,-0.613785 -6.609467,-3.335388 -9.735992,-4.701416c0.037354,-1.501663 0.023621,-2.905411 -0.064026,-4.108337l0,-0.002869c-0.086914,-1.190308 -0.24585,-2.184357 -0.503754,-2.892075c-0.129028,-0.354111 -0.282898,-0.637756 -0.47049,-0.835754c-0.187683,-0.19809 -0.410126,-0.307297 -0.660156,-0.307297z" fill-opacity="null" stroke-opacity="null" stroke-width="0" stroke="#000" fill="#ffffff"/>
  <path d="m195.200668,148.680786l-4.814301,-2.773407c-1.214661,-0.699066 -2.815201,-0.36261 -3.580566,0.750916l-1.897598,2.76825l9.209976,5.301849l1.899094,-2.766968c0.762466,-1.114838 0.398575,-2.58313 -0.816605,-3.28064l0,0zm-26.681641,24.662048l9.21048,5.301788l15.011551,-21.902924l-9.214859,-5.303162l-15.007172,21.904297zm-1.406906,6.736115l-0.20343,4.979889l4.806931,-2.330353l4.466995,-2.161743l-8.885635,-5.118042l-0.18486,4.63028l0,0z"/>
  <ellipse fill="#ffff7c" stroke="#000" stroke-width="0" stroke-opacity="null" cx="174.16693" cy="167.284044" id="svg_49" rx="42.000002" ry="42.499999"/>
  <path id="svg_57" d="m192.448318,144.085968l-3.657639,-2.288651c-0.922821,-0.576889 -2.138809,-0.29924 -2.720306,0.619675l-1.441666,2.284393l6.997192,4.375153l1.442825,-2.28334c0.579269,-0.919983 0.302795,-2.131638 -0.620407,-2.70723l0,0zm-20.271133,20.351486l6.997559,4.375107l11.404907,-18.0746l-7.000916,-4.376251l-11.40155,18.075729zm-1.068878,5.558762l-0.154572,4.109467l3.652023,-1.92305l3.393768,-1.78389l-6.750793,-4.22348l-0.140427,3.820953l0,0z" stroke-opacity="null" stroke-width="0" stroke="#000" fill="#ffffff"/>
  <path id="svg_58" d="m173.024002,159.673004c-1.744003,-1.694 -3.625,-3.05101 -5.167999,-3.236008c-0.084,-0.011993 -0.171005,-0.018997 -0.263,-0.020996l-10.154999,0c-0.162003,0 -0.322006,0.063004 -0.436005,0.179993c-0.112991,0.114014 -0.179993,0.274002 -0.179993,0.437012l0,25.75c0,0.162003 0.062988,0.317001 0.179993,0.434998c0.117004,0.115997 0.270996,0.179001 0.436005,0.179001l18.363998,0c0.162003,0 0.317001,-0.062012 0.43399,-0.179001c0.117004,-0.117004 0.182007,-0.272003 0.182007,-0.434998l0,-17.13501c-0.035995,-1.988998 -1.593994,-4.15799 -3.393997,-5.974991zm2.160004,22.490997l-17.132004,0l0,-24.518005l9.541992,0l0,0.001999c0.416,-0.024994 0.775009,0.386002 1.050003,1.326004c0.25,0.895004 0.313004,2.061996 0.311996,2.871002c0.002014,0.593002 -0.026993,0.990997 -0.026993,0.990997l-0.048996,0.652008l0.655991,0.006989c0.003006,0 1.516006,0.018005 3,0.355011c1.42601,0.307999 2.541,0.921997 2.645004,1.616989c0.003998,0.062012 0.005005,0.124008 0.003998,0.182007l0,16.514999z" opacity="0.5" stroke-opacity="null" stroke-width="0" stroke="#000" fill="#ffffff"/>
 </g>
</svg>