<svg width="211" height="131" xmlns="http://www.w3.org/2000/svg">
 <!-- Created with Method Draw - http://github.com/duopixel/Method-Draw/ -->
 <g>
  <title>background</title>
  <rect fill="none" id="canvas_background" height="133" width="213" y="-1" x="-1"/>
  <g display="none" overflow="visible" y="0" x="0" height="100%" width="100%" id="canvasGrid">
   <rect fill="url(#gridpattern)" stroke-width="0" y="0" x="0" height="100%" width="100%"/>
  </g>
 </g>
 <g>
  <title>Layer 1</title>
  <g id="svg_8">
   <path id="svg_2" d="m23.102154,130.117686c-9.073525,-1.382296 -13.97266,-14.303761 -4.906349,-19.037109c9.451408,-4.667142 15.072549,11.94771 4.748635,13.571697c-5.653069,2.029644 7.339602,5.428544 9.761206,2.015714c7.566657,-3.509952 6.397795,-12.645336 4.577296,-19.079115c-0.631786,-4.92891 -1.421873,-10.205739 -7.91085,-7.404481c-15.655191,1.207132 -28.049401,-14.013724 -26.804466,-28.252781c0.422661,-13.430596 11.901749,-22.629433 20.401732,-31.956009c-2.790564,-12.201495 -3.63315,-26.297565 4.456431,-36.930237c7.451445,-8.643193 11.23362,7.173146 12.494064,12.540051c2.799769,12.545134 -2.782735,25.728075 -12.071922,34.571333c0.886977,4.194709 1.759688,8.392222 2.663604,12.583615c9.816326,-1.816335 19.186462,6.133032 19.721872,15.444217c1.516778,8.408141 -4.110444,16.348569 -11.796661,19.962148c-0.126387,7.220173 4.036478,14.709653 2.540703,22.165524c-1.436471,7.708705 -10.457216,11.488835 -17.87529,9.805431l-0.000005,0zm10.247913,-32.895113c2.781123,-5.003204 -2.263444,-13.839219 -2.540412,-20.261451c0.10893,-11.198999 -12.28625,2.169358 -8.600191,7.668923c1.092661,3.254226 10.576752,9.221967 1.864863,5.541424c-9.095443,-5.217023 -8.678851,-18.640155 -0.368228,-24.307804c6.972316,-1.480107 2.71389,-10.396852 1.400132,-13.325682c-8.563488,7.479437 -18.269833,16.897547 -16.792967,29.003075c1.112471,11.346456 14.019027,18.229587 25.036802,15.68152l0,-0.000004zm5.761881,-2.165763c8.167544,-5.025034 7.899497,-18.212874 -1.036389,-22.303122c-9.534637,-4.828354 -3.004018,7.821122 -2.829316,12.635961c1.323212,1.843181 0.573665,12.583188 3.865704,9.667161zm-10.066051,-60.450246c5.024074,-5.824694 10.767132,-14.233756 7.238751,-21.934774c-7.598348,-4.806869 -11.820809,8.189174 -12.007679,13.879856c-0.069127,3.689966 -0.636538,16.408649 4.768932,8.054918l0,0l-0.000005,0z" fill-opacity="null" stroke-opacity="null" stroke-width="0" stroke="#000" fill="#696969"/>
   <path id="svg_5" d="m189.515358,79.180722c-2.65667,-0.572612 -5.203335,-2.91976 -4.699823,-5.728386c0.038713,-3.503887 3.098878,-5.976594 5.803364,-7.872807c3.493881,-2.326344 8.310086,-3.062358 12.153109,-1.087338c0.230309,-16.368529 0.100227,-32.741089 0.134615,-49.111458c0.671348,0.152161 2.132704,-0.457327 1.794842,0.667819c-0.032934,17.020454 0.075405,34.041814 -0.086133,51.061526c-0.016961,2.309136 -0.04926,4.811333 -1.734431,6.64244c-3.112601,3.778915 -8.309621,6.286318 -13.365544,5.428202l0,0.000002z" fill-opacity="null" stroke-opacity="null" stroke-width="0" stroke="#000" fill="#696969"/>
   <path id="svg_6" d="m76.490288,105.869911c-3.908892,-0.449947 -5.562229,-4.881385 -4.763197,-8.198548c1.374648,-5.240007 6.752492,-8.861189 12.147992,-9.449916c2.047136,-0.163428 4.304271,-0.135735 5.990283,1.111951c1.383686,-0.531465 0.410167,-2.627495 0.662716,-3.883787c0,-15.460647 0,-30.921303 0,-46.381948c3.479662,-0.490227 1.232757,4.274697 1.846494,6.226302c-0.023057,17.065765 0.144357,34.133242 -0.176588,51.197385c-1.69681,6.377583 -9.152095,10.41802 -15.7077,9.37856zm0.661029,-2.787784c5.340115,-1.642207 10.309781,-5.069497 12.850399,-9.996307c0.221972,-3.045679 -3.718527,-2.412123 -5.499699,-1.383769c-3.137029,1.52012 -6.08956,3.516937 -8.536008,5.956701c-1.624548,1.443742 -3.692364,5.88142 0.182835,5.629648l0.53531,-0.073068l0.467158,-0.133207l0,0l0.000005,0.000002z" fill-opacity="null" stroke-opacity="null" stroke-width="0" stroke="#000" fill="#696969"/>
   <path id="svg_7" d="m119.213462,82.332729c-3.488471,-0.732354 -4.691401,-5.848465 -2.611586,-8.913574c2.760177,-4.740401 8.664461,-7.93603 13.290537,-4.944956c0.092186,-16.747768 0.038999,-33.496455 0.05309,-50.244634c11.534586,-2.648954 23.095251,-5.150031 34.633869,-7.777058c-0.024995,18.708997 -0.049979,37.417995 -0.074967,56.126992c-1.807744,5.658722 -7.648973,9.582701 -12.735201,7.828022c-3.028088,-1.052246 -3.754034,-5.589601 -2.06787,-8.369699c2.309038,-4.147045 6.606733,-6.994354 10.927301,-6.217568c1.232971,-0.144791 3.048613,2.172495 2.527475,-0.448948c-0.0428,-14.798003 0.106449,-29.59995 -0.110129,-44.394838c-1.88244,-0.811296 -5.230187,1.055323 -7.640438,1.206342c-8.059989,1.820992 -16.137208,3.545488 -24.178686,5.472926c0.242635,16.396705 0.129492,32.803448 0.09337,49.20362c0.426932,3.743708 -1.350537,7.270223 -4.053194,9.221741c-2.332191,1.969351 -5.213603,2.679272 -8.053569,2.251639l-0.000002,-0.000007z" fill-opacity="null" stroke-opacity="null" stroke-width="0" stroke="#000" fill="#696969"/>
  </g>
 </g>
</svg>