<svg width="700" height="393" xmlns="http://www.w3.org/2000/svg">
 <!-- Created with Method Draw - http://github.com/duopixel/Method-Draw/ -->

 <g>
  <title>background</title>
  <rect x="-1" y="-1" width="702" height="395" id="canvas_background" fill="#ffffff"/>
  <g id="canvasGrid" display="none">
   <rect id="svg_6" width="100%" height="100%" x="0" y="0" stroke-width="0" fill="url(#gridpattern)"/>
  </g>
 </g>
 <g>
  <title>Layer 1</title>
  <ellipse fill="#181c34" stroke="#000" stroke-width="0" cx="393.000159" cy="337.450486" id="svg_37" rx="258.500081" ry="55.000035"/>
  <path id="svg_24" d="m-17.824249,327.449982c0,-29.63562 42.882689,-53.640442 95.82428,-53.640442c52.941605,0 95.824295,24.004822 95.824295,53.640442c0,29.63562 -42.88269,53.640472 -95.824295,53.640472c-52.941601,0 -95.82428,-24.004852 -95.82428,-53.640472z"/>
  <path id="svg_31" d="m-17.824249,327.449982c0,-29.63562 42.882689,-53.640442 95.82428,-53.640442c52.941605,0 95.824295,24.004822 95.824295,53.640442c0,29.63562 -42.88269,53.640472 -95.824295,53.640472c-52.941601,0 -95.82428,-24.004852 -95.82428,-53.640472z"/>
  <path id="svg_33" d="m-17.824249,327.449982c0,-29.63562 42.882689,-53.640442 95.82428,-53.640442c52.941605,0 95.824295,24.004822 95.824295,53.640442c0,29.63562 -42.88269,53.640472 -95.824295,53.640472c-52.941601,0 -95.82428,-24.004852 -95.82428,-53.640472z"/>
  <path id="svg_34" d="m-17.824249,327.449982c0,-29.63562 42.882689,-53.640442 95.82428,-53.640442c52.941605,0 95.824295,24.004822 95.824295,53.640442c0,29.63562 -42.88269,53.640472 -95.824295,53.640472c-52.941601,0 -95.82428,-24.004852 -95.82428,-53.640472z"/>
  <path id="svg_35" d="m-17.824249,327.449982c0,-29.63562 42.882689,-53.640442 95.82428,-53.640442c52.941605,0 95.824295,24.004822 95.824295,53.640442c0,29.63562 -42.88269,53.640472 -95.824295,53.640472c-52.941601,0 -95.82428,-24.004852 -95.82428,-53.640472z"/>
  <path id="svg_38" d="m-17.824249,327.449982c0,-29.63562 42.882689,-53.640442 95.82428,-53.640442c52.941605,0 95.824295,24.004822 95.824295,53.640442c0,29.63562 -42.88269,53.640472 -95.824295,53.640472c-52.941601,0 -95.82428,-24.004852 -95.82428,-53.640472z"/>
  <path id="svg_39" d="m-17.824249,327.449982c0,-29.63562 42.882689,-53.640442 95.82428,-53.640442c52.941605,0 95.824295,24.004822 95.824295,53.640442c0,29.63562 -42.88269,53.640472 -95.824295,53.640472c-52.941601,0 -95.82428,-24.004852 -95.82428,-53.640472z"/>
  <path id="svg_40" d="m-17.824249,327.449982c0,-29.63562 42.882689,-53.640442 95.82428,-53.640442c52.941605,0 95.824295,24.004822 95.824295,53.640442c0,29.63562 -42.88269,53.640472 -95.824295,53.640472c-52.941601,0 -95.82428,-24.004852 -95.82428,-53.640472z"/>
  <path id="svg_41" d="m-22.824261,335.450012c0,-29.63562 42.88269,-53.640472 95.824291,-53.640472c52.941589,0 95.82428,24.004852 95.82428,53.640472c0,29.63562 -42.88269,53.640442 -95.82428,53.640442c-52.941591,0 -95.824291,-24.004822 -95.824291,-53.640442z"/>
  <path id="svg_42" d="m-22.824261,335.450012c0,-29.63562 42.88269,-53.640472 95.824291,-53.640472c52.941589,0 95.82428,24.004852 95.82428,53.640472c0,29.63562 -42.88269,53.640442 -95.82428,53.640442c-52.941591,0 -95.824291,-24.004822 -95.824291,-53.640442z"/>
  <path d="m-22.824261,335.450012c0,-29.63562 42.882692,-53.640472 95.824284,-53.640472c52.941597,0 95.824287,24.004852 95.824287,53.640472c0,29.63562 -42.88269,53.640442 -95.824287,53.640442c-52.941591,0 -95.824284,-24.004822 -95.824284,-53.640442z"/>
  <path d="m-22.824261,335.450012c0,-29.63562 42.882692,-53.640472 95.824284,-53.640472c52.941597,0 95.824287,24.004852 95.824287,53.640472c0,29.63562 -42.88269,53.640442 -95.824287,53.640442c-52.941591,0 -95.824284,-24.004822 -95.824284,-53.640442z"/>
  <path d="m-22.824261,335.450012c0,-29.63562 42.882692,-53.640472 95.824284,-53.640472c52.941597,0 95.824287,24.004852 95.824287,53.640472c0,29.63562 -42.88269,53.640442 -95.824287,53.640442c-52.941591,0 -95.824284,-24.004822 -95.824284,-53.640442z"/>
  <path d="m-22.824261,335.450012c0,-29.63562 42.882692,-53.640472 95.824284,-53.640472c52.941597,0 95.824287,24.004852 95.824287,53.640472c0,29.63562 -42.88269,53.640442 -95.824287,53.640442c-52.941591,0 -95.824284,-24.004822 -95.824284,-53.640442z"/>
  <path d="m-22.824261,335.450012c0,-29.63562 42.882692,-53.640472 95.824284,-53.640472c52.941597,0 95.824287,24.004852 95.824287,53.640472c0,29.63562 -42.88269,53.640442 -95.824287,53.640442c-52.941591,0 -95.824284,-24.004822 -95.824284,-53.640442z"/>
  <path d="m-22.824261,335.450012c0,-29.63562 42.882692,-53.640472 95.824284,-53.640472c52.941597,0 95.824287,24.004852 95.824287,53.640472c0,29.63562 -42.88269,53.640442 -95.824287,53.640442c-52.941591,0 -95.824284,-24.004822 -95.824284,-53.640442z"/>
  <path d="m-22.824261,335.450012c0,-29.63562 42.882692,-53.640472 95.824284,-53.640472c52.941597,0 95.824287,24.004852 95.824287,53.640472c0,29.63562 -42.88269,53.640442 -95.824287,53.640442c-52.941591,0 -95.824284,-24.004822 -95.824284,-53.640442z"/>
  <path d="m-22.824261,335.450012c0,-29.63562 42.882692,-53.640472 95.824284,-53.640472c52.941597,0 95.824287,24.004852 95.824287,53.640472c0,29.63562 -42.88269,53.640442 -95.824287,53.640442c-52.941591,0 -95.824284,-24.004822 -95.824284,-53.640442z"/>
  <path d="m-22.824261,335.450012c0,-29.63562 42.882692,-53.640472 95.824284,-53.640472c52.941597,0 95.824287,24.004852 95.824287,53.640472c0,29.63562 -42.88269,53.640442 -95.824287,53.640442c-52.941591,0 -95.824284,-24.004822 -95.824284,-53.640442z"/>
  <path d="m-22.824261,335.450012c0,-29.63562 42.882692,-53.640472 95.824284,-53.640472c52.941597,0 95.824287,24.004852 95.824287,53.640472c0,29.63562 -42.88269,53.640442 -95.824287,53.640442c-52.941591,0 -95.824284,-24.004822 -95.824284,-53.640442z"/>
  <path d="m-22.824261,335.450012c0,-29.63562 42.882692,-53.640472 95.824284,-53.640472c52.941597,0 95.824287,24.004852 95.824287,53.640472c0,29.63562 -42.88269,53.640442 -95.824287,53.640442c-52.941591,0 -95.824284,-24.004822 -95.824284,-53.640442z"/>
  <path d="m-22.824261,335.450012c0,-29.63562 42.882692,-53.640472 95.824284,-53.640472c52.941597,0 95.824287,24.004852 95.824287,53.640472c0,29.63562 -42.88269,53.640442 -95.824287,53.640442c-52.941591,0 -95.824284,-24.004822 -95.824284,-53.640442z"/>
  <path d="m-22.824261,335.450012c0,-29.63562 42.882692,-53.640472 95.824284,-53.640472c52.941597,0 95.824287,24.004852 95.824287,53.640472c0,29.63562 -42.88269,53.640442 -95.824287,53.640442c-52.941591,0 -95.824284,-24.004822 -95.824284,-53.640442z"/>
  <path d="m-22.824261,335.450012c0,-29.63562 42.882692,-53.640472 95.824284,-53.640472c52.941597,0 95.824287,24.004852 95.824287,53.640472c0,29.63562 -42.88269,53.640442 -95.824287,53.640442c-52.941591,0 -95.824284,-24.004822 -95.824284,-53.640442z"/>
  <path d="m-22.824261,335.450012c0,-29.63562 42.882692,-53.640472 95.824284,-53.640472c52.941597,0 95.824287,24.004852 95.824287,53.640472c0,29.63562 -42.88269,53.640442 -95.824287,53.640442c-52.941591,0 -95.824284,-24.004822 -95.824284,-53.640442z"/>
  <path d="m-22.824261,335.450012c0,-29.63562 42.882692,-53.640472 95.824284,-53.640472c52.941597,0 95.824287,24.004852 95.824287,53.640472c0,29.63562 -42.88269,53.640442 -95.824287,53.640442c-52.941591,0 -95.824284,-24.004822 -95.824284,-53.640442z"/>
  <path d="m-22.824261,335.450012c0,-29.63562 42.882692,-53.640472 95.824284,-53.640472c52.941597,0 95.824287,24.004852 95.824287,53.640472c0,29.63562 -42.88269,53.640442 -95.824287,53.640442c-52.941591,0 -95.824284,-24.004822 -95.824284,-53.640442z"/>
  <path d="m-22.824261,335.450012c0,-29.63562 42.882692,-53.640472 95.824284,-53.640472c52.941597,0 95.824287,24.004852 95.824287,53.640472c0,29.63562 -42.88269,53.640442 -95.824287,53.640442c-52.941591,0 -95.824284,-24.004822 -95.824284,-53.640442z"/>
  <path d="m-22.824261,335.450012c0,-29.63562 42.882692,-53.640472 95.824284,-53.640472c52.941597,0 95.824287,24.004852 95.824287,53.640472c0,29.63562 -42.88269,53.640442 -95.824287,53.640442c-52.941591,0 -95.824284,-24.004822 -95.824284,-53.640442z"/>
  <path d="m-22.824261,335.450012c0,-29.63562 42.882692,-53.640472 95.824284,-53.640472c52.941597,0 95.824287,24.004852 95.824287,53.640472c0,29.63562 -42.88269,53.640442 -95.824287,53.640442c-52.941591,0 -95.824284,-24.004822 -95.824284,-53.640442z"/>
  <path d="m-22.824261,335.450012c0,-29.63562 42.882692,-53.640472 95.824284,-53.640472c52.941597,0 95.824287,24.004852 95.824287,53.640472c0,29.63562 -42.88269,53.640442 -95.824287,53.640442c-52.941591,0 -95.824284,-24.004822 -95.824284,-53.640442z"/>
  <path d="m-22.824261,335.450012c0,-29.63562 42.882692,-53.640472 95.824284,-53.640472c52.941597,0 95.824287,24.004852 95.824287,53.640472c0,29.63562 -42.88269,53.640442 -95.824287,53.640442c-52.941591,0 -95.824284,-24.004822 -95.824284,-53.640442z"/>
  <path d="m-22.824261,335.450012c0,-29.63562 42.882692,-53.640472 95.824284,-53.640472c52.941597,0 95.824287,24.004852 95.824287,53.640472c0,29.63562 -42.88269,53.640442 -95.824287,53.640442c-52.941591,0 -95.824284,-24.004822 -95.824284,-53.640442z"/>
  <path d="m-22.824261,335.450012c0,-29.63562 42.882692,-53.640472 95.824284,-53.640472c52.941597,0 95.824287,24.004852 95.824287,53.640472c0,29.63562 -42.88269,53.640442 -95.824287,53.640442c-52.941591,0 -95.824284,-24.004822 -95.824284,-53.640442z"/>
  <path d="m-22.824261,335.450012c0,-29.63562 42.882692,-53.640472 95.824284,-53.640472c52.941597,0 95.824287,24.004852 95.824287,53.640472c0,29.63562 -42.88269,53.640442 -95.824287,53.640442c-52.941591,0 -95.824284,-24.004822 -95.824284,-53.640442z"/>
  <path d="m-22.824261,335.450012c0,-29.63562 42.882692,-53.640472 95.824284,-53.640472c52.941597,0 95.824287,24.004852 95.824287,53.640472c0,29.63562 -42.88269,53.640442 -95.824287,53.640442c-52.941591,0 -95.824284,-24.004822 -95.824284,-53.640442z"/>
  <path d="m-22.824261,335.450012c0,-29.63562 42.882692,-53.640472 95.824284,-53.640472c52.941597,0 95.824287,24.004852 95.824287,53.640472c0,29.63562 -42.88269,53.640442 -95.824287,53.640442c-52.941591,0 -95.824284,-24.004822 -95.824284,-53.640442z"/>
  <path d="m-22.824261,335.450012c0,-29.63562 42.882692,-53.640472 95.824284,-53.640472c52.941597,0 95.824287,24.004852 95.824287,53.640472c0,29.63562 -42.88269,53.640442 -95.824287,53.640442c-52.941591,0 -95.824284,-24.004822 -95.824284,-53.640442z"/>
  <path d="m-22.824261,335.450012c0,-29.63562 42.882692,-53.640472 95.824284,-53.640472c52.941597,0 95.824287,24.004852 95.824287,53.640472c0,29.63562 -42.88269,53.640442 -95.824287,53.640442c-52.941591,0 -95.824284,-24.004822 -95.824284,-53.640442z"/>
  <path d="m-22.824261,335.450012c0,-29.63562 42.882692,-53.640472 95.824284,-53.640472c52.941597,0 95.824287,24.004852 95.824287,53.640472c0,29.63562 -42.88269,53.640442 -95.824287,53.640442c-52.941591,0 -95.824284,-24.004822 -95.824284,-53.640442z"/>
  <path d="m-22.824261,335.450012c0,-29.63562 42.882692,-53.640472 95.824284,-53.640472c52.941597,0 95.824287,24.004852 95.824287,53.640472c0,29.63562 -42.88269,53.640442 -95.824287,53.640442c-52.941591,0 -95.824284,-24.004822 -95.824284,-53.640442z"/>
  <ellipse fill="#181c34" stroke="#000" stroke-width="0" cx="73.000026" cy="335.450005" id="svg_2" rx="95.824287" ry="53.640461" transform="rotate(1.50784, 73, 335.45)"/>
  <rect fill="#181c34" stroke="#000" stroke-width="0" x="-4.500015" y="-7.550818" width="709" height="343" id="svg_1"/>
  <rect id="svg_49" height="200" width="471" y="59.949997" x="122.5" stroke-opacity="null" stroke-width="0" stroke="#000" fill="#6d7482"/>
  <rect id="svg_48" height="200" width="471" y="70.949997" x="112.5" stroke-opacity="null" stroke-width="0" stroke="#000" fill="#8f98aa"/>
  <path id="svg_43" d="m-16.824249,427.450165c0,-29.63562 42.882689,-53.640472 95.82428,-53.640472c52.941605,0 95.824295,24.004852 95.824295,53.640472c0,29.63559 -42.88269,53.640442 -95.824295,53.640442c-52.941591,0 -95.82428,-24.004852 -95.82428,-53.640442z"/>
  <path id="svg_44" d="m-16.824249,427.450165c0,-29.63562 42.882689,-53.640472 95.82428,-53.640472c52.941605,0 95.824295,24.004852 95.824295,53.640472c0,29.63559 -42.88269,53.640442 -95.824295,53.640442c-52.941591,0 -95.82428,-24.004852 -95.82428,-53.640442z"/>
  <path id="svg_45" d="m-16.824249,427.450165c0,-29.63562 42.882689,-53.640472 95.82428,-53.640472c52.941605,0 95.824295,24.004852 95.824295,53.640472c0,29.63559 -42.88269,53.640442 -95.824295,53.640442c-52.941591,0 -95.82428,-24.004852 -95.82428,-53.640442z"/>
  <path id="svg_46" d="m-16.824249,427.450165c0,-29.63562 42.882689,-53.640472 95.82428,-53.640472c52.941605,0 95.824295,24.004852 95.824295,53.640472c0,29.63559 -42.88269,53.640442 -95.824295,53.640442c-52.941591,0 -95.82428,-24.004852 -95.82428,-53.640442z" fill="#ffffff" stroke="#ffffff"/>
  <ellipse fill="#181c34" stroke="#000" stroke-width="0" cx="72.499586" cy="335.450482" id="svg_3" rx="137.999845" ry="55.000035"/>
  <ellipse fill="#181c34" stroke="#000" stroke-width="0" cx="585.497532" cy="337.95091" id="svg_4" rx="200.999992" ry="52.500024"/>
  <rect id="svg_50" height="72.000009" width="469.999971" y="197.949994" x="113.50001" stroke-opacity="null" stroke-width="0" stroke="#000" fill="#6b90a3"/>
  <path fill="#c6c6c6" stroke="#000" stroke-width="0" stroke-opacity="null" d="m271.19873,276.824615c-4.158478,-7.49707 -9.246216,-13.567352 -14.349854,-17.812744c-5.954559,4.352417 -13.206268,7.001434 -21.113831,7.001434c-7.922028,0 -15.185272,-2.65509 -21.129578,-7.001434c-5.104523,4.245392 -10.196259,10.315674 -14.364471,17.812744c-9.677902,17.40564 -10.742569,35.258881 -2.383514,39.887695c3.742081,2.085846 7.668121,0.531403 11.72197,-3.367096c-0.711334,3.952545 -1.127197,8.237061 -1.127197,12.718719c0,19.910614 7.752487,36.039673 17.304062,36.039673c5.757233,0 8.60733,-5.873688 9.978729,-14.864868c1.366028,8.99118 4.215881,14.864868 9.951904,14.864868c9.56813,0 17.320038,-16.129059 17.320038,-36.039673c0,-4.481659 -0.415833,-8.766174 -1.141846,-12.718719c4.064941,3.898499 7.983887,5.452942 11.738525,3.367096c8.352203,-4.628815 7.272675,-22.482056 -2.404938,-39.887695zm-35.474365,-17.602386c16.073242,0 29.109528,-13.010056 29.109528,-29.057968s-13.036285,-29.056702 -29.109528,-29.056702c-16.079102,0 -29.124832,13.011292 -29.124832,29.056702s13.045731,29.057968 29.124832,29.057968z" id="svg_5"/>
  <path fill="#ffffff" stroke="#000" stroke-width="0" stroke-opacity="null" d="m268.213684,277.062195c-3.63269,-7.124542 -8.077179,-12.893188 -12.535568,-16.927612c-5.201721,4.136139 -11.536591,6.653534 -18.444382,6.653534c-6.920441,0 -13.265381,-2.523132 -18.458145,-6.653534c-4.459152,4.034424 -8.907135,9.80307 -12.548355,16.927612c-8.454315,16.54071 -9.384384,33.506805 -2.082169,37.905579c3.268967,1.982208 6.698639,0.505035 10.239944,-3.199738c-0.621399,3.756134 -0.98468,7.827728 -0.98468,12.0867c0,18.921204 6.772339,34.248779 15.116287,34.248779c5.029343,0 7.519104,-5.581818 8.717117,-14.126221c1.193314,8.544403 3.682861,14.126221 8.693665,14.126221c8.358444,0 15.130249,-15.327576 15.130249,-34.248779c0,-4.258972 -0.363251,-8.330566 -0.997467,-12.0867c3.550995,3.704773 6.974457,5.181946 10.254395,3.199738c7.296234,-4.398773 6.35318,-21.364868 -2.100891,-37.905579zm-30.989288,-16.727692c14.041092,0 25.429169,-12.363571 25.429169,-27.614029s-11.388077,-27.612793 -25.429169,-27.612793c-14.046204,0 -25.442551,12.364716 -25.442551,27.612793s11.396347,27.614029 25.442551,27.614029z" id="svg_9"/>
  <ellipse fill="#a5754a" stroke="#000" stroke-width="0" stroke-opacity="null" cx="236.000004" cy="230.950133" id="svg_7" rx="29.5" ry="29.5"/>
  <path id="svg_53" d="m300.424011,140.44606c3.180481,-3.799591 3.819794,-8.984741 2.0896,-13.345398l-6.385071,7.736832l-6.294189,-1.27153l-2.085571,-6.299973l6.369019,-7.718872c-4.380981,-1.145264 -9.207458,0.237366 -12.373932,4.021927c-3.339447,3.989853 -3.885956,9.51503 -1.819,13.997772l-16.643372,19.886932c-1.770935,2.114334 -1.555176,5.321152 0.479675,7.160553c2.034851,1.83812 5.120422,1.615982 6.890747,-0.498383l16.623871,-19.867355c4.57605,1.532578 9.793304,0.20549 13.148224,-3.802505z" stroke-opacity="null" stroke-width="0" stroke="#000" fill="#646d77"/>
  <ellipse fill="#d19660" stroke="#000" stroke-width="0" stroke-opacity="null" cx="231.500005" cy="233.950133" id="svg_8" rx="25.000001" ry="26.499999"/>
  <rect fill="#999999" stroke="#000" stroke-width="0" stroke-opacity="null" x="344.500039" y="190.45002" width="238.000418" height="160.000282" id="svg_30"/>
  <rect fill="#dbdbdb" stroke="#000" stroke-width="0" stroke-opacity="null" x="336.500023" y="198.450033" width="238.000418" height="160.000282" id="svg_32"/>
  <ellipse fill="#1e1212" stroke="#000" stroke-width="0" stroke-opacity="null" cx="233.999982" cy="211.450131" id="svg_12" rx="23.500011" ry="12"/>
  <ellipse fill="#1e1212" stroke="#000" stroke-width="0" stroke-opacity="null" cx="256.333357" cy="221.950056" id="svg_13" rx="9.500039" ry="12.500005"/>
  <ellipse fill="#a5754a" stroke="#000" stroke-width="0" stroke-opacity="null" cx="205.000643" cy="308.950898" id="svg_17" rx="11.999815" ry="11.999809"/>
  <ellipse fill="#a5754a" stroke="#000" stroke-width="0" stroke-opacity="null" cx="271.250457" cy="303.450915" id="svg_16" rx="11.249818" ry="11.49981"/>
  <ellipse fill="#0f1430" stroke="#000" stroke-width="0" stroke-opacity="null" cx="224.249686" cy="334.749756" id="svg_19" rx="15.749977" ry="20.24997"/>
  <ellipse fill="#0f1430" stroke="#000" stroke-width="0" stroke-opacity="null" cx="248.249651" cy="335.749755" id="svg_20" rx="15.249977" ry="20.24997"/>
  <rect fill="#0f1430" stroke="#000" stroke-width="0" stroke-opacity="null" x="208.499708" y="312.499792" width="54.499919" height="20.499972" id="svg_21"/>
  <ellipse fill="#d19660" stroke="#000" stroke-width="0" stroke-opacity="null" cx="270.000423" cy="305.950934" id="svg_15" rx="10.499841" ry="10.999843"/>
  <ellipse fill="#d19660" stroke="#000" stroke-width="0" stroke-opacity="null" cx="205.499653" cy="310.700959" id="svg_14" rx="11.000131" ry="10.749844"/>
  <ellipse fill="#111b49" stroke="#000" stroke-width="0" stroke-opacity="null" cx="223.749684" cy="332.249761" id="svg_22" rx="12.749982" ry="18.249973"/>
  <ellipse fill="#111b49" stroke="#000" stroke-width="0" stroke-opacity="null" cx="249.249648" cy="332.74976" id="svg_23" rx="12.749982" ry="18.249973"/>
  <ellipse fill="#161212" stroke="#000" stroke-width="0" stroke-opacity="null" cx="251.499643" cy="353.749734" id="svg_25" rx="18.499973" ry="10.749985"/>
  <ellipse fill="#161212" stroke="#000" stroke-width="0" stroke-opacity="null" cx="221.499685" cy="353.749734" id="svg_26" rx="18.499973" ry="10.749985"/>
  <ellipse fill="#282121" stroke="#000" stroke-width="0" stroke-opacity="null" cx="218.749689" cy="353.999736" id="svg_27" rx="15.249979" ry="8.999987"/>
  <ellipse fill="#282121" stroke="#000" stroke-width="0" stroke-opacity="null" cx="254.999634" cy="353.249737" id="svg_28" rx="13.499981" ry="9.249987"/>
  <text fill="#62b262" stroke="#62b262" stroke-width="2" x="367.500082" y="290.450198" id="svg_36" font-size="35" font-family="'Trebuchet MS', Gadget, sans-serif" text-anchor="start" xml:space="preserve">My Projects</text>
  <path id="svg_55" d="m220.643417,106.722305c0.063232,-0.753334 0.105927,-1.512787 0.105927,-2.278099c0,-13.317169 -9.746231,-24.114883 -21.742661,-24.114883c-9.32074,0 -17.261429,6.517372 -20.340408,15.660179c-2.057587,-2.490265 -4.967209,-4.085739 -8.259293,-4.085739c-6.17778,0 -11.189423,5.557716 -11.189423,12.416695c0,0.812653 0.062912,1.601166 0.214523,2.366585c-8.260742,1.507309 -14.566116,9.402252 -14.566116,18.975288c0,10.656136 7.791656,19.293251 17.387985,19.293251l11.847443,0l-2.463364,-2.726196c-1.316071,-1.454102 -2.035736,-3.390915 -2.035736,-5.451736c0,-2.060455 0.719666,-3.997299 2.035736,-5.451752l1.933136,-2.148911c1.38179,-1.536446 3.248108,-2.419548 5.117081,-2.419548c0.085144,0 0.191315,0 0.276138,0.005951l0,-1.81916c0,-4.262901 3.120483,-7.724541 6.962814,-7.724541l11.358765,0c3.845123,0 6.965591,3.461639 6.965591,7.724541l0,1.81916c0.084625,-0.005951 0.169739,-0.005951 0.276657,-0.005951c1.846909,0 3.713806,0.883102 5.115021,2.431328l1.931717,2.125397c2.718567,3.014343 2.718567,7.912537 0,10.915222l-2.462036,2.726196l8.366531,0c9.594467,0 17.38652,-8.637115 17.38652,-19.293251c0,-9.454987 -6.135345,-17.285477 -14.222549,-18.940025zm-11.530502,27.323776l-1.930145,-2.137177c-1.360321,-1.501343 -3.354935,-1.737 -4.438568,-0.530014c-1.081604,1.200867 -1.974762,0.453491 -1.974762,-1.665863l0,-4.780655c0,-2.11969 -1.570114,-3.856201 -3.483475,-3.856201l-11.358765,0c-1.909714,0 -3.480927,1.736511 -3.480927,3.856201l0,4.780655c0,2.119354 -0.891632,2.86673 -1.975662,1.665863c-1.081985,-1.206985 -3.076492,-0.971329 -4.43605,0.530014l-1.933167,2.137177c-1.357468,1.501129 -1.357468,3.950119 0,5.451782l15.053131,16.714417c0.681458,0.74733 1.571472,1.118546 2.46344,1.118546s1.76152,-0.371216 2.441223,-1.118546l15.053726,-16.714417c1.360077,-1.495453 1.360077,-3.950653 0,-5.451782z" stroke-opacity="null" stroke-width="0" stroke="#000" fill="#7287ff"/>
  <path id="svg_47" d="m235.785782,192.365662c-4.906158,-1.193466 -7.748444,-6.100098 -7.413177,-10.551239c-0.125595,-5.814011 0.459381,-11.931824 -2.572479,-17.277771c-1.728119,-3.991455 -4.671997,-7.515594 -5.900513,-11.67514c-1.528778,-6.453278 0.359573,-13.76741 6.049286,-18.099731c6.416656,-5.041901 16.663574,-5.699051 23.727036,-1.413742c4.981903,3.146774 8.576477,8.336914 8.442932,14.000565c0.584564,4.23201 -1.236877,8.212585 -3.379578,11.850677c-1.535156,2.929291 -3.328003,5.795761 -4.721405,8.757706c-0.367325,6.073105 -0.156647,12.201889 -1.153,18.222763c-1.659744,4.665482 -7.914673,7.837555 -13.079102,6.185913zm12.957886,-10.858795c-2.911667,-1.439194 -7.095734,-0.503494 -10.480103,-0.813324c-2.764603,0.507065 -7.676987,-1.040039 -9.146713,1.280655c3.361145,1.205719 7.311218,0.301895 10.889465,0.501373c2.863144,-0.252167 6.157257,0.23912 8.73735,-0.968704zm-0.218063,-2.708176c0.428497,-3.656433 -5.876953,-1.790619 -8.438461,-2.334915c-3.39032,0.629272 -8.785706,-1.347 -10.917953,1.462372c1.263504,2.823196 6.898392,0.837677 9.857376,1.464081c3.155441,-0.102554 6.429077,0.103683 9.499023,-0.591537zm0.039276,-6.406372c0.832382,-7.122833 5.58168,-13.053482 8.331711,-19.569077c2.261047,-7.80101 -2.216919,-16.713318 -10.324203,-19.987854c-8.069595,-3.667419 -18.820892,-0.896912 -23.381271,6.289322c-4.393967,5.936005 -3.555405,14.001389 0.739136,19.774109c3.06427,5.045044 5.509094,10.714661 5.11084,16.585938c6.360703,0 12.72142,0 19.082138,0c0.147217,-1.030792 0.294403,-2.061676 0.44165,-3.092438zm-14.081558,-10.091125c-2.520142,-4.018219 -5.107254,-8.067383 -6.862152,-12.42215c1.577774,-1.872818 2.036758,-3.958954 2.526871,-6.159439c4.428329,-0.797638 -0.563675,4.627594 3.61731,4.749847c3.711227,1.480698 2.08316,-7.18486 5.16655,-4.06134c-2.213364,3.42804 4.34761,6.838303 4.588394,1.934326c-0.318054,-3.702744 3.965622,-3.008987 2.295486,0.350143c0.137863,1.728012 3.205948,2.223404 3.258469,3.61322c-2.208694,4.39325 -4.128555,8.928925 -6.743927,13.134689c-0.588699,-1.628357 2.315369,-5.709564 3.243332,-8.105865c1.790634,-2.071426 3.329346,-7.653671 -1.33873,-6.892746c-2.70787,3.873032 -6.350555,-2.441376 -9.001953,1.270355c-2.250748,0.615662 -5.79071,-3.574432 -6.443619,0.454422c1.69516,4.785263 5.222458,8.86351 7.067993,13.599365c-0.626236,-0.338562 -0.982849,-0.932587 -1.374023,-1.464828zm-3.537292,-17.537384c-1.225479,-0.548462 0.516525,2.915695 -0.000031,0l0.000031,0zm7.324661,0.409164c-1.59079,-2.468796 -0.737625,2.995407 0,0zm7.099686,0c-1.59079,-2.468796 -0.737625,2.995407 0,0zm-33.052322,-18.242218c-2.811722,-2.616768 -5.919708,-5.072174 -8.364975,-7.956566c6.10881,4.637009 11.700073,9.859261 17.205276,15.094597c1.461868,1.842102 -2.550339,-1.7202 -3.297073,-2.317322c-1.868393,-1.586777 -3.712341,-3.197647 -5.543228,-4.820709zm43.418381,7.481598c4.752472,-5.430084 9.186646,-11.122734 14.310486,-16.263557c-0.857971,2.213379 -3.619873,4.861855 -5.356445,7.141426c-2.900085,3.308548 -5.610901,6.806732 -8.927216,9.773163c-0.41391,0.401199 -1.032013,-0.549057 -0.026764,-0.651031l-0.000061,0zm-10.293945,-5.151428c1.641998,-4.306824 4.023788,-8.406418 6.681,-12.260925c-0.061768,2.138283 -2.879929,6.191048 -4.234512,8.842438c-0.766281,1.066956 -1.412628,2.768509 -2.446487,3.418488zm-21.027649,-5.523354c-1.143814,-1.52993 -4.587021,-5.092346 -3.944122,-5.578163c3.319687,3.375229 6.696075,6.858978 9.08078,10.850479c-2.030807,-1.428268 -3.492065,-3.491165 -5.136658,-5.272316zm13.145859,-1.204071c-0.231491,-1.436821 0.487137,-8.295876 0.886353,-3.638443c0.001419,2.918114 0.333588,6.203178 -0.55217,8.8592c-0.379303,-1.707611 -0.287277,-3.485344 -0.334183,-5.220757z" stroke-opacity="null" stroke-width="0" stroke="#000" fill="#bfdbff"/>
  <path id="svg_51" d="m194.488998,189.905273l9.804245,-4.938507c-0.192719,-1.829758 -0.565216,-3.604752 -1.031189,-5.349655l-10.891113,-1.436325c-0.942673,-2.162704 -2.187485,-4.168549 -3.650757,-6.009811l4.15155,-9.724167c-1.365097,-1.267929 -2.839355,-2.423904 -4.391037,-3.487579l-9.247986,5.529297c-2.168655,-1.086151 -4.505173,-1.911087 -6.957962,-2.440903l-3.342087,-9.860733c-0.947845,-0.068161 -1.895416,-0.140182 -2.86203,-0.140182s-1.911514,0.070358 -2.862198,0.140182l-3.308975,9.773392c-2.518539,0.512833 -4.906647,1.347351 -7.131058,2.446899l-9.103943,-5.447952c-1.549728,1.063675 -3.023926,2.219666 -4.388916,3.487579l4.037292,9.455566c-1.573532,1.92067 -2.890945,4.039856 -3.880447,6.323853l-10.547287,1.389236c-0.46402,1.742447 -0.838455,3.515549 -1.029205,5.349442l9.466461,4.770035c0.107254,2.510986 0.544373,4.944534 1.318405,7.236176l-7.140976,7.51976c0.830688,1.6409 1.755524,3.232224 2.825394,4.725174l10.513504,-2.149551c1.72377,1.786224 3.687698,3.351257 5.854523,4.645493l-0.398514,10.244614c1.726669,0.741699 3.520706,1.362396 5.369507,1.858551l6.651291,-8.142456c1.180145,0.143494 2.375198,0.240143 3.594101,0.240143c1.32048,0 2.611816,-0.113617 3.88237,-0.279877l6.685913,8.187622c1.851715,-0.495575 3.643005,-1.116272 5.369507,-1.857971l-0.406189,-10.428604c2.065247,-1.273392 3.937973,-2.796799 5.588989,-4.5168l10.786926,2.204361c1.069855,-1.492737 1.994843,-3.082367 2.825226,-4.724625l-7.372284,-7.765991c0.708191,-2.170639 1.10379,-4.462051 1.218964,-6.825684zm-16.295395,11.862701l-4.648376,2.881989l-2.859039,-4.183563c-1.487335,0.544861 -3.088608,0.87616 -4.776611,0.87616c-7.372238,0 -13.346756,-5.692261 -13.346756,-12.712357c0,-7.020386 5.974518,-12.710434 13.346756,-12.710434c7.370331,0 13.347031,5.690048 13.347031,12.710434c0,3.508148 -1.492203,6.679489 -3.904251,8.980453l2.841248,4.157318z" stroke-opacity="null" stroke-width="0" stroke="#000" fill="#3b4e66"/>
  <path id="svg_52" d="m163.952057,240.136093l6.34108,-3.011917c-0.124634,-1.115936 -0.365555,-2.198486 -0.666931,-3.262665l-7.044052,-0.875992c-0.609695,-1.319 -1.414795,-2.542328 -2.361206,-3.665283l2.685104,-5.930618c-0.882904,-0.773285 -1.836411,-1.478302 -2.839996,-2.127014l-5.981323,3.372223c-1.402618,-0.662415 -2.913803,-1.165543 -4.500198,-1.488663l-2.16156,-6.013901c-0.613037,-0.041565 -1.225906,-0.085495 -1.851074,-0.085495s-1.236313,0.042908 -1.851181,0.085495l-2.140152,5.960632c-1.628922,0.312775 -3.173477,0.821732 -4.612152,1.492325l-5.888168,-3.322617c-1.002319,0.648712 -1.95578,1.353745 -2.838623,2.127014l2.611206,5.7668c-1.017715,1.171387 -1.869781,2.463837 -2.50975,3.856812l-6.821671,0.847275c-0.300125,1.062683 -0.542297,2.144073 -0.665665,3.262527l6.12262,2.90918c0.069366,1.531403 0.352081,3.015579 0.852707,4.413223l-4.618561,4.586166c0.537262,1.000763 1.135406,1.971283 1.827377,2.881805l6.79982,-1.310974c1.114883,1.089386 2.385086,2.043884 3.78653,2.833221l-0.257751,6.248001c1.11676,0.452362 2.277084,0.830933 3.472839,1.133514l4.301865,-4.965958c0.763275,0.087524 1.536194,0.146469 2.324554,0.146469c0.85405,0 1.68924,-0.06929 2.511002,-0.1707l4.324249,4.993515c1.197632,-0.302246 2.356186,-0.680817 3.472839,-1.133179l-0.262711,-6.360214c1.335739,-0.776627 2.546951,-1.705719 3.614792,-2.75473l6.976654,1.344406c0.691956,-0.910385 1.290207,-1.879883 1.827271,-2.88147l-4.768173,-4.736343c0.458038,-1.323837 0.713898,-2.721344 0.788391,-4.162872zm-10.539368,7.234863l-3.006439,1.757675l-1.849136,-2.551483c-0.961975,0.332306 -1.99762,0.534348 -3.089371,0.534348c-4.768143,0 -8.632294,-3.471603 -8.632294,-7.753052c0,-4.281616 3.864151,-7.751892 8.632294,-7.751892c4.766907,0 8.632462,3.470276 8.632462,7.751892c0,2.139557 -0.965118,4.073715 -2.525162,5.477036l1.837646,2.535477z" stroke-opacity="null" stroke-width="0" stroke="#000" fill="#3b4e66"/>
  <path id="svg_54" d="m277.053009,182.800003c-1.132019,-0.453003 -1.584015,-1.697998 -1.584015,-1.697998s-0.51001,0.281998 -0.51001,-0.51001s0.51001,0.51001 1.02002,-2.547989c0,0 1.414001,-0.397003 1.131989,-3.680008l-0.339996,0c0,0 0.848999,-3.509995 0,-4.699005c-0.850006,-1.188995 -1.188995,-1.980988 -3.057983,-2.547989s-1.188019,-0.45401 -2.546997,-0.396011c-1.359009,0.057007 -2.492004,0.792007 -2.492004,1.188004c0,0 -0.848999,0.057007 -1.188019,0.397003c-0.339996,0.339996 -0.906006,1.923996 -0.906006,2.320999s0.28302,3.057999 0.56601,3.624008l-0.337006,0.112991c-0.28299,3.283005 1.132019,3.680008 1.132019,3.680008c0.509003,3.057999 1.018982,1.755997 1.018982,2.547989s-0.509979,0.51001 -0.509979,0.51001s-0.452026,1.244995 -1.584015,1.697998c-1.131989,0.451996 -7.415985,2.886002 -7.927002,3.395996c-0.510986,0.511002 -0.453003,2.888 -0.453003,2.888l26.947021,0c0,0 0.05899,-2.376999 -0.452026,-2.888c-0.511993,-0.509995 -6.79599,-2.944 -7.927979,-3.395996zm-12.470001,-0.171997c-0.098999,-0.180008 -0.14801,-0.310013 -0.14801,-0.310013s-0.432007,0.239014 -0.432007,-0.431992s0.432007,0.431992 0.864014,-2.158997c0,0 1.199005,-0.335999 0.958984,-3.119003l-0.287994,0c0,0 0.143005,-0.591003 0.237,-1.334c-0.003998,-0.307999 0.006012,-0.636002 0.037018,-0.996002l0.037994,-0.425995c-0.020996,-0.492004 -0.106995,-0.939011 -0.312012,-1.225998c-0.720001,-1.007004 -1.007996,-1.679001 -2.591003,-2.159012c-1.582977,-0.479996 -1.007996,-0.384995 -2.158997,-0.335999c-1.152008,0.048004 -2.112,0.671005 -2.112,1.008011c0,0 -0.720001,0.047989 -1.007996,0.335999c-0.270996,0.270996 -0.704987,1.46199 -0.756989,1.884995l0,0.281006c0.046997,0.653 0.257996,2.44899 0.468994,2.871994l-0.286011,0.095993c-0.238983,2.783005 0.959015,3.119003 0.959015,3.119003c0.431976,2.591003 0.863983,1.488007 0.863983,2.158997s-0.432007,0.432007 -0.432007,0.432007s-0.382996,1.057007 -1.342987,1.438995c-0.061005,0.024002 -0.139008,0.056 -0.231995,0.09201l0,5.233994l0.574982,0c-0.028992,-1.278 0.077026,-2.927002 0.746002,-3.593994c0.356018,-0.355011 1.52301,-0.939011 6.35202,-2.862zm22.329987,-9.056c-0.040009,-0.378006 -0.126984,-0.715012 -0.291992,-0.945999c-0.718994,-1.008011 -1.007996,-1.679001 -2.589996,-2.159012c-1.584015,-0.479996 -1.007996,-0.384995 -2.160004,-0.335999c-1.151001,0.048004 -2.110992,0.671005 -2.110992,1.008011c0,0 -0.718994,0.047989 -1.007996,0.335999c-0.271027,0.271988 -0.709015,1.472 -0.758026,1.890991l0.03302,0l0.079987,0.91301c0.02002,0.230988 0.022003,0.435989 0.027008,0.644989c0.089996,0.666 0.209991,1.350006 0.329987,1.589005l-0.28598,0.095993c-0.239014,2.783005 0.959991,3.119003 0.959991,3.119003c0.432007,2.591003 0.863007,1.488007 0.863007,2.158997s-0.432007,0.432007 -0.432007,0.432007s-0.053009,0.141998 -0.162994,0.337997c4.769989,1.900009 5.927002,2.479996 6.278992,2.834c0.670013,0.667007 0.774994,2.315002 0.746002,3.593994l0.480011,0l0,-5.306c-0.016022,-0.005997 -0.038025,-0.014984 -0.052002,-0.020996c-0.959015,-0.382996 -1.343018,-1.438995 -1.343018,-1.438995s-0.432983,0.238998 -0.432983,-0.432007s0.432983,0.432007 0.863983,-2.158997c0,0 0.804016,-0.229004 0.963013,-1.841003l0,-1.22699c-0.001007,-0.018005 -0.001007,-0.033005 -0.002991,-0.05101l-0.289001,0c0,0 0.214996,-0.889999 0.291992,-1.860992l0,-1.175995z" stroke-opacity="null" stroke-width="0" stroke="#000" fill="#30373f"/>
  <path id="svg_56" d="m291.023987,216.673004c-1.743988,-1.694 -3.625,-3.05101 -5.167969,-3.236008c-0.084015,-0.011993 -0.171021,-0.018997 -0.263,-0.020996l-10.155029,0c-0.161987,0 -0.321991,0.063004 -0.435974,0.180008c-0.113007,0.113983 -0.179993,0.273987 -0.179993,0.436996l0,25.75c0,0.162003 0.062988,0.317001 0.179993,0.434998c0.117004,0.115997 0.270996,0.179001 0.435974,0.179001l18.364014,0c0.161987,0 0.317017,-0.062012 0.43399,-0.179001c0.117004,-0.117004 0.182007,-0.272003 0.182007,-0.434998l0,-17.13501c-0.03598,-1.988998 -1.593994,-4.15799 -3.394012,-5.974991zm2.160034,22.490997l-17.132019,0l0,-24.518005l9.541992,0l0,0.001999c0.416016,-0.024994 0.775024,0.386002 1.049988,1.326004c0.25,0.895004 0.313019,2.061996 0.312012,2.871002c0.002014,0.593002 -0.026978,0.990997 -0.026978,0.990997l-0.049011,0.652008l0.656006,0.006989c0.002991,0 1.515991,0.018005 3,0.355011c1.425995,0.307999 2.540985,0.921997 2.644989,1.616989c0.003998,0.061996 0.005005,0.124008 0.003998,0.182007l0,16.514999z" stroke-opacity="null" stroke-width="0" stroke="#000" fill="#000000"/>
  <rect id="svg_58" height="10.333352" width="7.000142" y="265.616645" x="231.833262" fill-opacity="null" stroke-opacity="null" stroke-width="0" stroke="#000" fill="#181c34"/>
  <rect id="svg_59" height="31.999403" width="8.666762" y="274.616374" x="231.166615" fill-opacity="null" stroke-opacity="null" stroke-width="0" stroke="#000" fill="#181c34"/>
  <rect id="svg_60" height="8.000083" width="6.000169" y="267.949912" x="231.833263" stroke-opacity="null" stroke-width="0" stroke="#000" fill="#272e54"/>
  <rect id="svg_61" height="26.6662" width="6.000169" y="276.616347" x="232.166587" stroke-opacity="null" stroke-width="0" stroke="#000" fill="#272e54"/>
 </g>
</svg>