<svg width="123" height="170" xmlns="http://www.w3.org/2000/svg">
 <!-- Created with Method Draw - http://github.com/duopixel/Method-Draw/ -->
 <g>
  <title>background</title>
  <rect fill="none" id="canvas_background" height="172" width="125" y="-1" x="-1"/>
  <g display="none" overflow="visible" y="0" x="0" height="100%" width="100%" id="canvasGrid">
   <rect fill="url(#gridpattern)" stroke-width="0" y="0" x="0" height="100%" width="100%"/>
  </g>
 </g>
 <g>
  <title>Layer 1</title>
  <g id="svg_19">
   <path id="svg_13" d="m33.92217,59.531406c0,-5.365132 4.162043,-9.710895 9.300354,-9.710895c5.138318,0 9.300346,4.345762 9.300346,9.710895c0,5.365132 -4.162028,9.710895 -9.300346,9.710895c-5.138318,0 -9.300354,-4.345762 -9.300354,-9.710895zm31.269377,27.488033l0,-4.904281c0,-5.160023 -4.003948,-9.343706 -8.948688,-9.343706l-26.069481,0c-4.941876,0 -8.948684,4.183683 -8.948684,9.343706l0,4.904281c-0.008642,0.111318 -0.014412,0.225659 -0.014412,0.341492l0,28.247757c0,2.194891 1.703013,3.973064 3.805109,3.973064c2.09922,0 3.806539,-1.778181 3.806539,-3.973064l0,-27.829533l2.55162,0l0,31.805603l0.018728,0l0,44.94036c0,2.921498 2.27212,5.295408 5.07299,5.295408c2.802316,0 5.07299,-2.370899 5.07299,-5.295408l0,-44.94036l3.346935,0l0,44.94036c0,2.921498 2.273527,5.295408 5.072983,5.295408c2.802304,0 5.072979,-2.370899 5.072979,-5.295408l0,-44.94036l0.015849,0l0,-31.805603l2.551624,0l0,27.82802c0,2.194895 1.707315,3.974573 3.806543,3.974573c2.102122,0 3.805109,-1.779678 3.805109,-3.974573l0,-28.247749c-0.00143,-0.117339 -0.010087,-0.228669 -0.018732,-0.339991l0,0.000004z" fill-opacity="null" stroke-opacity="null" stroke-width="0" stroke="#000" fill="#696969"/>
   <path id="svg_14" d="m99.230499,158.487944c-0.041094,-1.801193 0.767486,-3.570823 2.127677,-4.57791c2.217688,-1.859446 5.144689,-2.706749 7.896074,-2.194811c1.362443,-0.23192 1.965429,1.328416 1.486132,2.529994c-0.740851,0.799273 -2.029489,0.039105 -2.988973,0.452499c-3.110694,0.441882 -6.181308,1.93387 -8.28369,4.555286c-0.012825,-0.280438 -0.338269,-0.467303 -0.237219,-0.765058l-0.000001,0zm0.037574,1.598407c0.16564,-1.270627 1.314299,-1.932195 2.112991,-2.704375c2.68877,-2.099366 6.059294,-2.931879 9.318679,-2.790682c0.080767,1.447714 -0.536775,2.829508 -1.279778,3.976395c-1.020249,0.627494 -2.289012,-0.087009 -3.370535,0.484203c-1.896876,0.506546 -4.008297,1.14479 -5.222381,2.969168c-0.441155,1.465033 -1.373598,-0.026116 -1.445733,-0.888377c-0.102544,-0.342585 -0.088277,-0.694529 -0.113241,-1.046332l-0.000001,-0.000001zm0.520798,-4.344819c0.162361,-1.594218 1.114806,-2.912411 1.988571,-4.127131c0.984955,-1.294605 2.325802,-2.243692 3.832593,-2.591375c1.19431,-0.344123 2.425206,-0.487287 3.649659,-0.631835c0.928592,0.786831 1.519299,2.155078 1.363709,3.449306c-0.721227,0.201529 -1.996446,-0.479816 -2.968968,-0.313662c-2.758158,0.028658 -5.577817,1.248154 -7.441778,3.523241c-0.155196,0.219546 -0.294732,0.452218 -0.423786,0.691456l0,0.000001zm-0.147841,6.288884c1.031391,0.912399 1.065205,2.493767 1.699042,3.684088c-0.759776,-1.079012 -1.428553,-2.339582 -1.699042,-3.684088zm0.816707,0.869242c0.323546,-0.983484 1.337834,-2.365698 2.184088,-2.262909c0.338295,0.961279 0.484857,2.002862 1.034708,2.869454c1.476344,2.989698 4.178053,5.576058 7.389961,5.657481c0.525255,0.117451 1.917703,-0.272757 1.861114,-0.11131c-1.342443,0.727348 -2.896682,0.886842 -4.375849,0.828324c-2.747067,-0.20125 -5.483312,-1.656786 -7.134766,-4.119407c-0.467399,-0.884468 -0.733089,-1.875214 -0.959256,-2.861493l0,-0.00014zm2.261098,-2.507591c0.741241,-0.380296 2.129981,-1.537098 2.686972,-0.604728c1.359318,2.953527 3.657407,5.46489 6.486612,6.645856c1.468912,0.540623 3.121392,0.532102 4.553846,-0.142593c-0.597416,1.023289 -1.586016,1.67955 -2.51765,2.282321c-2.381049,1.12119 -5.259246,0.513251 -7.26544,-1.234733c-1.941743,-1.69575 -3.465979,-4.122761 -3.939163,-6.830205l-0.002797,-0.062707l-0.00238,-0.05321l0,0l0,0zm0.993323,-10.635116c1.802029,-1.367367 4.035073,-2.00863 6.213186,-1.838287c-1.114946,0.785057 -2.513976,0.486813 -3.736568,0.911867c-0.852939,0.204868 -1.699548,0.480361 -2.476618,0.92642l0,0.000001zm1.555973,9.634312c1.18641,-0.619531 2.536575,-0.609475 3.818756,-0.524703c0.773005,1.328165 1.324211,2.871966 2.524483,3.829475c1.398781,1.377883 3.434216,1.766836 5.19671,1.119373c0.605262,-0.451101 1.277241,-0.162844 0.946698,0.731958c-0.3979,1.485702 -1.810729,2.138192 -3.105441,2.210257c-2.648804,0.29189 -5.07201,-1.368248 -6.861342,-3.373346c-1.04386,-1.152891 -1.9255,-2.497259 -2.519863,-3.993015l0.000001,0.000001zm4.023464,-11.046985c0.965434,-0.844984 2.280277,-0.080402 3.268119,0.323955c0.982524,0.927369 1.114187,2.470388 1.373837,3.787729c0.434104,3.092419 0.258513,6.414509 -1.05266,9.237315c-0.313328,0.989489 -1.213817,1.525503 -1.790978,0.45571c-0.670713,-0.816034 -1.18356,-1.765582 -1.667543,-2.721552c-0.286237,-0.914772 0.650713,-1.559583 0.846939,-2.396006c0.382325,-0.833909 0.479551,-1.771865 0.522469,-2.684543c0.180148,-1.365342 0.002912,-2.781745 -0.322572,-4.103766c-0.228256,-0.731524 -0.598934,-1.440046 -1.177611,-1.898844l0,0.000001zm2.774895,14.605099c1.900485,-2.368631 2.201785,-5.73206 2.058732,-8.760165c-0.087099,-1.785356 -0.333206,-3.630361 -1.1866,-5.185153c0.881878,0.030126 1.830349,0.943948 2.521319,1.616912c1.95834,2.746887 2.53423,6.765335 1.045443,9.921508c-0.585642,1.276212 -1.378901,2.428127 -2.310154,3.421526c-0.77959,-0.070667 -1.569811,-0.396076 -2.128739,-1.014628l0.000001,0zm2.167225,1.028316c2.046703,-2.176181 3.52891,-5.303864 3.086578,-8.510873c-0.176097,-1.502041 -0.673244,-2.953009 -1.417768,-4.223705c1.363585,0.937383 2.12178,2.597646 2.803758,4.140049c0.980374,2.695716 0.447398,5.981353 -1.304587,8.135888c-0.899732,0.562968 -2.169253,0.649138 -3.167981,0.458642zm3.369522,-0.503335c0.702113,-1.353024 1.498791,-2.724624 1.571966,-4.329873c0.109126,-0.536714 -0.060135,1.053034 -0.118877,1.38752c-0.18673,1.181242 -0.43056,2.441954 -1.094181,3.405746c-0.152678,-0.093432 -0.084567,-0.548444 -0.358906,-0.463393l-0.000001,0z" fill-opacity="null" stroke-opacity="null" stroke-width="0" stroke="#000" fill="#696969"/>
   <rect stroke="#000" id="svg_15" height="165.499792" width="7.000245" y="7.000236" x="78.500413" fill-opacity="null" stroke-opacity="null" stroke-width="0" fill="#696969"/>
   <rect stroke="#000" id="svg_17" height="165.499792" width="7.000245" y="7.500211" x="3.004083" fill-opacity="null" stroke-opacity="null" stroke-width="0" fill="#696969"/>
   <rect id="svg_18" height="4.499781" width="75.496327" y="13.503478" x="7.254544" fill-opacity="null" stroke-opacity="null" stroke-width="0" stroke="#000" fill="#696969"/>
  </g>
 </g>
</svg>