<svg width="700" height="393" xmlns="http://www.w3.org/2000/svg">
 <!-- Created with Method Draw - http://github.com/duopixel/Method-Draw/ -->

 <g>
  <title>background</title>
  <rect x="-1" y="-1" width="702" height="395" id="canvas_background" fill="#ffffff"/>
  <g id="canvasGrid" display="none">
   <rect id="svg_6" width="100%" height="100%" x="0" y="0" stroke-width="0" fill="url(#gridpattern)"/>
  </g>
 </g>
 <g>
  <title>Layer 1</title>
  <ellipse fill="#181c34" stroke="#000" stroke-width="0" cx="393.000159" cy="337.450486" id="svg_37" rx="258.500081" ry="55.000035"/>
  <path id="svg_24" d="m-17.824249,327.449982c0,-29.63562 42.882689,-53.640442 95.82428,-53.640442c52.941605,0 95.824295,24.004822 95.824295,53.640442c0,29.63562 -42.88269,53.640472 -95.824295,53.640472c-52.941601,0 -95.82428,-24.004852 -95.82428,-53.640472z"/>
  <path id="svg_31" d="m-17.824249,327.449982c0,-29.63562 42.882689,-53.640442 95.82428,-53.640442c52.941605,0 95.824295,24.004822 95.824295,53.640442c0,29.63562 -42.88269,53.640472 -95.824295,53.640472c-52.941601,0 -95.82428,-24.004852 -95.82428,-53.640472z"/>
  <path id="svg_33" d="m-17.824249,327.449982c0,-29.63562 42.882689,-53.640442 95.82428,-53.640442c52.941605,0 95.824295,24.004822 95.824295,53.640442c0,29.63562 -42.88269,53.640472 -95.824295,53.640472c-52.941601,0 -95.82428,-24.004852 -95.82428,-53.640472z"/>
  <path id="svg_34" d="m-17.824249,327.449982c0,-29.63562 42.882689,-53.640442 95.82428,-53.640442c52.941605,0 95.824295,24.004822 95.824295,53.640442c0,29.63562 -42.88269,53.640472 -95.824295,53.640472c-52.941601,0 -95.82428,-24.004852 -95.82428,-53.640472z"/>
  <path id="svg_35" d="m-17.824249,327.449982c0,-29.63562 42.882689,-53.640442 95.82428,-53.640442c52.941605,0 95.824295,24.004822 95.824295,53.640442c0,29.63562 -42.88269,53.640472 -95.824295,53.640472c-52.941601,0 -95.82428,-24.004852 -95.82428,-53.640472z"/>
  <path id="svg_38" d="m-17.824249,327.449982c0,-29.63562 42.882689,-53.640442 95.82428,-53.640442c52.941605,0 95.824295,24.004822 95.824295,53.640442c0,29.63562 -42.88269,53.640472 -95.824295,53.640472c-52.941601,0 -95.82428,-24.004852 -95.82428,-53.640472z"/>
  <path id="svg_39" d="m-17.824249,327.449982c0,-29.63562 42.882689,-53.640442 95.82428,-53.640442c52.941605,0 95.824295,24.004822 95.824295,53.640442c0,29.63562 -42.88269,53.640472 -95.824295,53.640472c-52.941601,0 -95.82428,-24.004852 -95.82428,-53.640472z"/>
  <path id="svg_40" d="m-17.824249,327.449982c0,-29.63562 42.882689,-53.640442 95.82428,-53.640442c52.941605,0 95.824295,24.004822 95.824295,53.640442c0,29.63562 -42.88269,53.640472 -95.824295,53.640472c-52.941601,0 -95.82428,-24.004852 -95.82428,-53.640472z"/>
  <path id="svg_41" d="m-22.824261,335.450012c0,-29.63562 42.88269,-53.640472 95.824291,-53.640472c52.941589,0 95.82428,24.004852 95.82428,53.640472c0,29.63562 -42.88269,53.640442 -95.82428,53.640442c-52.941591,0 -95.824291,-24.004822 -95.824291,-53.640442z"/>
  <path id="svg_42" d="m-22.824261,335.450012c0,-29.63562 42.88269,-53.640472 95.824291,-53.640472c52.941589,0 95.82428,24.004852 95.82428,53.640472c0,29.63562 -42.88269,53.640442 -95.82428,53.640442c-52.941591,0 -95.824291,-24.004822 -95.824291,-53.640442z"/>
  <path d="m-22.824261,335.450012c0,-29.63562 42.882692,-53.640472 95.824284,-53.640472c52.941597,0 95.824287,24.004852 95.824287,53.640472c0,29.63562 -42.88269,53.640442 -95.824287,53.640442c-52.941591,0 -95.824284,-24.004822 -95.824284,-53.640442z"/>
  <path d="m-22.824261,335.450012c0,-29.63562 42.882692,-53.640472 95.824284,-53.640472c52.941597,0 95.824287,24.004852 95.824287,53.640472c0,29.63562 -42.88269,53.640442 -95.824287,53.640442c-52.941591,0 -95.824284,-24.004822 -95.824284,-53.640442z"/>
  <path d="m-22.824261,335.450012c0,-29.63562 42.882692,-53.640472 95.824284,-53.640472c52.941597,0 95.824287,24.004852 95.824287,53.640472c0,29.63562 -42.88269,53.640442 -95.824287,53.640442c-52.941591,0 -95.824284,-24.004822 -95.824284,-53.640442z"/>
  <path d="m-22.824261,335.450012c0,-29.63562 42.882692,-53.640472 95.824284,-53.640472c52.941597,0 95.824287,24.004852 95.824287,53.640472c0,29.63562 -42.88269,53.640442 -95.824287,53.640442c-52.941591,0 -95.824284,-24.004822 -95.824284,-53.640442z"/>
  <path d="m-22.824261,335.450012c0,-29.63562 42.882692,-53.640472 95.824284,-53.640472c52.941597,0 95.824287,24.004852 95.824287,53.640472c0,29.63562 -42.88269,53.640442 -95.824287,53.640442c-52.941591,0 -95.824284,-24.004822 -95.824284,-53.640442z"/>
  <path d="m-22.824261,335.450012c0,-29.63562 42.882692,-53.640472 95.824284,-53.640472c52.941597,0 95.824287,24.004852 95.824287,53.640472c0,29.63562 -42.88269,53.640442 -95.824287,53.640442c-52.941591,0 -95.824284,-24.004822 -95.824284,-53.640442z"/>
  <path d="m-22.824261,335.450012c0,-29.63562 42.882692,-53.640472 95.824284,-53.640472c52.941597,0 95.824287,24.004852 95.824287,53.640472c0,29.63562 -42.88269,53.640442 -95.824287,53.640442c-52.941591,0 -95.824284,-24.004822 -95.824284,-53.640442z"/>
  <path d="m-22.824261,335.450012c0,-29.63562 42.882692,-53.640472 95.824284,-53.640472c52.941597,0 95.824287,24.004852 95.824287,53.640472c0,29.63562 -42.88269,53.640442 -95.824287,53.640442c-52.941591,0 -95.824284,-24.004822 -95.824284,-53.640442z"/>
  <path d="m-22.824261,335.450012c0,-29.63562 42.882692,-53.640472 95.824284,-53.640472c52.941597,0 95.824287,24.004852 95.824287,53.640472c0,29.63562 -42.88269,53.640442 -95.824287,53.640442c-52.941591,0 -95.824284,-24.004822 -95.824284,-53.640442z"/>
  <path d="m-22.824261,335.450012c0,-29.63562 42.882692,-53.640472 95.824284,-53.640472c52.941597,0 95.824287,24.004852 95.824287,53.640472c0,29.63562 -42.88269,53.640442 -95.824287,53.640442c-52.941591,0 -95.824284,-24.004822 -95.824284,-53.640442z"/>
  <path d="m-22.824261,335.450012c0,-29.63562 42.882692,-53.640472 95.824284,-53.640472c52.941597,0 95.824287,24.004852 95.824287,53.640472c0,29.63562 -42.88269,53.640442 -95.824287,53.640442c-52.941591,0 -95.824284,-24.004822 -95.824284,-53.640442z"/>
  <path d="m-22.824261,335.450012c0,-29.63562 42.882692,-53.640472 95.824284,-53.640472c52.941597,0 95.824287,24.004852 95.824287,53.640472c0,29.63562 -42.88269,53.640442 -95.824287,53.640442c-52.941591,0 -95.824284,-24.004822 -95.824284,-53.640442z"/>
  <path d="m-22.824261,335.450012c0,-29.63562 42.882692,-53.640472 95.824284,-53.640472c52.941597,0 95.824287,24.004852 95.824287,53.640472c0,29.63562 -42.88269,53.640442 -95.824287,53.640442c-52.941591,0 -95.824284,-24.004822 -95.824284,-53.640442z"/>
  <path d="m-22.824261,335.450012c0,-29.63562 42.882692,-53.640472 95.824284,-53.640472c52.941597,0 95.824287,24.004852 95.824287,53.640472c0,29.63562 -42.88269,53.640442 -95.824287,53.640442c-52.941591,0 -95.824284,-24.004822 -95.824284,-53.640442z"/>
  <path d="m-22.824261,335.450012c0,-29.63562 42.882692,-53.640472 95.824284,-53.640472c52.941597,0 95.824287,24.004852 95.824287,53.640472c0,29.63562 -42.88269,53.640442 -95.824287,53.640442c-52.941591,0 -95.824284,-24.004822 -95.824284,-53.640442z"/>
  <path d="m-22.824261,335.450012c0,-29.63562 42.882692,-53.640472 95.824284,-53.640472c52.941597,0 95.824287,24.004852 95.824287,53.640472c0,29.63562 -42.88269,53.640442 -95.824287,53.640442c-52.941591,0 -95.824284,-24.004822 -95.824284,-53.640442z"/>
  <path d="m-22.824261,335.450012c0,-29.63562 42.882692,-53.640472 95.824284,-53.640472c52.941597,0 95.824287,24.004852 95.824287,53.640472c0,29.63562 -42.88269,53.640442 -95.824287,53.640442c-52.941591,0 -95.824284,-24.004822 -95.824284,-53.640442z"/>
  <path d="m-22.824261,335.450012c0,-29.63562 42.882692,-53.640472 95.824284,-53.640472c52.941597,0 95.824287,24.004852 95.824287,53.640472c0,29.63562 -42.88269,53.640442 -95.824287,53.640442c-52.941591,0 -95.824284,-24.004822 -95.824284,-53.640442z"/>
  <path d="m-22.824261,335.450012c0,-29.63562 42.882692,-53.640472 95.824284,-53.640472c52.941597,0 95.824287,24.004852 95.824287,53.640472c0,29.63562 -42.88269,53.640442 -95.824287,53.640442c-52.941591,0 -95.824284,-24.004822 -95.824284,-53.640442z"/>
  <path d="m-22.824261,335.450012c0,-29.63562 42.882692,-53.640472 95.824284,-53.640472c52.941597,0 95.824287,24.004852 95.824287,53.640472c0,29.63562 -42.88269,53.640442 -95.824287,53.640442c-52.941591,0 -95.824284,-24.004822 -95.824284,-53.640442z"/>
  <path d="m-22.824261,335.450012c0,-29.63562 42.882692,-53.640472 95.824284,-53.640472c52.941597,0 95.824287,24.004852 95.824287,53.640472c0,29.63562 -42.88269,53.640442 -95.824287,53.640442c-52.941591,0 -95.824284,-24.004822 -95.824284,-53.640442z"/>
  <path d="m-22.824261,335.450012c0,-29.63562 42.882692,-53.640472 95.824284,-53.640472c52.941597,0 95.824287,24.004852 95.824287,53.640472c0,29.63562 -42.88269,53.640442 -95.824287,53.640442c-52.941591,0 -95.824284,-24.004822 -95.824284,-53.640442z"/>
  <path d="m-22.824261,335.450012c0,-29.63562 42.882692,-53.640472 95.824284,-53.640472c52.941597,0 95.824287,24.004852 95.824287,53.640472c0,29.63562 -42.88269,53.640442 -95.824287,53.640442c-52.941591,0 -95.824284,-24.004822 -95.824284,-53.640442z"/>
  <path d="m-22.824261,335.450012c0,-29.63562 42.882692,-53.640472 95.824284,-53.640472c52.941597,0 95.824287,24.004852 95.824287,53.640472c0,29.63562 -42.88269,53.640442 -95.824287,53.640442c-52.941591,0 -95.824284,-24.004822 -95.824284,-53.640442z"/>
  <path d="m-22.824261,335.450012c0,-29.63562 42.882692,-53.640472 95.824284,-53.640472c52.941597,0 95.824287,24.004852 95.824287,53.640472c0,29.63562 -42.88269,53.640442 -95.824287,53.640442c-52.941591,0 -95.824284,-24.004822 -95.824284,-53.640442z"/>
  <path d="m-22.824261,335.450012c0,-29.63562 42.882692,-53.640472 95.824284,-53.640472c52.941597,0 95.824287,24.004852 95.824287,53.640472c0,29.63562 -42.88269,53.640442 -95.824287,53.640442c-52.941591,0 -95.824284,-24.004822 -95.824284,-53.640442z"/>
  <path d="m-22.824261,335.450012c0,-29.63562 42.882692,-53.640472 95.824284,-53.640472c52.941597,0 95.824287,24.004852 95.824287,53.640472c0,29.63562 -42.88269,53.640442 -95.824287,53.640442c-52.941591,0 -95.824284,-24.004822 -95.824284,-53.640442z"/>
  <path d="m-22.824261,335.450012c0,-29.63562 42.882692,-53.640472 95.824284,-53.640472c52.941597,0 95.824287,24.004852 95.824287,53.640472c0,29.63562 -42.88269,53.640442 -95.824287,53.640442c-52.941591,0 -95.824284,-24.004822 -95.824284,-53.640442z"/>
  <path d="m-22.824261,335.450012c0,-29.63562 42.882692,-53.640472 95.824284,-53.640472c52.941597,0 95.824287,24.004852 95.824287,53.640472c0,29.63562 -42.88269,53.640442 -95.824287,53.640442c-52.941591,0 -95.824284,-24.004822 -95.824284,-53.640442z"/>
  <path d="m-22.824261,335.450012c0,-29.63562 42.882692,-53.640472 95.824284,-53.640472c52.941597,0 95.824287,24.004852 95.824287,53.640472c0,29.63562 -42.88269,53.640442 -95.824287,53.640442c-52.941591,0 -95.824284,-24.004822 -95.824284,-53.640442z"/>
  <path d="m-22.824261,335.450012c0,-29.63562 42.882692,-53.640472 95.824284,-53.640472c52.941597,0 95.824287,24.004852 95.824287,53.640472c0,29.63562 -42.88269,53.640442 -95.824287,53.640442c-52.941591,0 -95.824284,-24.004822 -95.824284,-53.640442z"/>
  <path d="m-22.824261,335.450012c0,-29.63562 42.882692,-53.640472 95.824284,-53.640472c52.941597,0 95.824287,24.004852 95.824287,53.640472c0,29.63562 -42.88269,53.640442 -95.824287,53.640442c-52.941591,0 -95.824284,-24.004822 -95.824284,-53.640442z"/>
  <path d="m-22.824261,335.450012c0,-29.63562 42.882692,-53.640472 95.824284,-53.640472c52.941597,0 95.824287,24.004852 95.824287,53.640472c0,29.63562 -42.88269,53.640442 -95.824287,53.640442c-52.941591,0 -95.824284,-24.004822 -95.824284,-53.640442z"/>
  <path d="m-22.824261,335.450012c0,-29.63562 42.882692,-53.640472 95.824284,-53.640472c52.941597,0 95.824287,24.004852 95.824287,53.640472c0,29.63562 -42.88269,53.640442 -95.824287,53.640442c-52.941591,0 -95.824284,-24.004822 -95.824284,-53.640442z"/>
  <path d="m-22.824261,335.450012c0,-29.63562 42.882692,-53.640472 95.824284,-53.640472c52.941597,0 95.824287,24.004852 95.824287,53.640472c0,29.63562 -42.88269,53.640442 -95.824287,53.640442c-52.941591,0 -95.824284,-24.004822 -95.824284,-53.640442z"/>
  <path d="m-22.824261,335.450012c0,-29.63562 42.882692,-53.640472 95.824284,-53.640472c52.941597,0 95.824287,24.004852 95.824287,53.640472c0,29.63562 -42.88269,53.640442 -95.824287,53.640442c-52.941591,0 -95.824284,-24.004822 -95.824284,-53.640442z"/>
  <path d="m-22.824261,335.450012c0,-29.63562 42.882692,-53.640472 95.824284,-53.640472c52.941597,0 95.824287,24.004852 95.824287,53.640472c0,29.63562 -42.88269,53.640442 -95.824287,53.640442c-52.941591,0 -95.824284,-24.004822 -95.824284,-53.640442z"/>
  <path d="m-22.824261,335.450012c0,-29.63562 42.882692,-53.640472 95.824284,-53.640472c52.941597,0 95.824287,24.004852 95.824287,53.640472c0,29.63562 -42.88269,53.640442 -95.824287,53.640442c-52.941591,0 -95.824284,-24.004822 -95.824284,-53.640442z"/>
  <path d="m-22.824261,335.450012c0,-29.63562 42.882692,-53.640472 95.824284,-53.640472c52.941597,0 95.824287,24.004852 95.824287,53.640472c0,29.63562 -42.88269,53.640442 -95.824287,53.640442c-52.941591,0 -95.824284,-24.004822 -95.824284,-53.640442z"/>
  <path d="m-22.824261,335.450012c0,-29.63562 42.882692,-53.640472 95.824284,-53.640472c52.941597,0 95.824287,24.004852 95.824287,53.640472c0,29.63562 -42.88269,53.640442 -95.824287,53.640442c-52.941591,0 -95.824284,-24.004822 -95.824284,-53.640442z"/>
  <path d="m-22.824261,335.450012c0,-29.63562 42.882692,-53.640472 95.824284,-53.640472c52.941597,0 95.824287,24.004852 95.824287,53.640472c0,29.63562 -42.88269,53.640442 -95.824287,53.640442c-52.941591,0 -95.824284,-24.004822 -95.824284,-53.640442z"/>
  <path d="m-22.824261,335.450012c0,-29.63562 42.882692,-53.640472 95.824284,-53.640472c52.941597,0 95.824287,24.004852 95.824287,53.640472c0,29.63562 -42.88269,53.640442 -95.824287,53.640442c-52.941591,0 -95.824284,-24.004822 -95.824284,-53.640442z"/>
  <path d="m-22.824261,335.450012c0,-29.63562 42.882692,-53.640472 95.824284,-53.640472c52.941597,0 95.824287,24.004852 95.824287,53.640472c0,29.63562 -42.88269,53.640442 -95.824287,53.640442c-52.941591,0 -95.824284,-24.004822 -95.824284,-53.640442z"/>
  <path d="m-22.824261,335.450012c0,-29.63562 42.882692,-53.640472 95.824284,-53.640472c52.941597,0 95.824287,24.004852 95.824287,53.640472c0,29.63562 -42.88269,53.640442 -95.824287,53.640442c-52.941591,0 -95.824284,-24.004822 -95.824284,-53.640442z"/>
  <path d="m-22.824261,335.450012c0,-29.63562 42.882692,-53.640472 95.824284,-53.640472c52.941597,0 95.824287,24.004852 95.824287,53.640472c0,29.63562 -42.88269,53.640442 -95.824287,53.640442c-52.941591,0 -95.824284,-24.004822 -95.824284,-53.640442z"/>
  <path d="m-22.824261,335.450012c0,-29.63562 42.882692,-53.640472 95.824284,-53.640472c52.941597,0 95.824287,24.004852 95.824287,53.640472c0,29.63562 -42.88269,53.640442 -95.824287,53.640442c-52.941591,0 -95.824284,-24.004822 -95.824284,-53.640442z"/>
  <path d="m-22.824261,335.450012c0,-29.63562 42.882692,-53.640472 95.824284,-53.640472c52.941597,0 95.824287,24.004852 95.824287,53.640472c0,29.63562 -42.88269,53.640442 -95.824287,53.640442c-52.941591,0 -95.824284,-24.004822 -95.824284,-53.640442z"/>
  <ellipse fill="#181c34" stroke="#000" stroke-width="0" cx="73.000026" cy="335.450005" id="svg_2" rx="95.824287" ry="53.640461" transform="rotate(1.50784, 73, 335.45)"/>
  <rect fill="#181c34" stroke="#000" stroke-width="0" x="-5.50002" y="-10.550818" width="709" height="343" id="svg_1"/>
  <path id="svg_43" d="m-16.824249,427.450165c0,-29.63562 42.882689,-53.640472 95.82428,-53.640472c52.941605,0 95.824295,24.004852 95.824295,53.640472c0,29.63559 -42.88269,53.640442 -95.824295,53.640442c-52.941591,0 -95.82428,-24.004852 -95.82428,-53.640442z"/>
  <path id="svg_44" d="m-16.824249,427.450165c0,-29.63562 42.882689,-53.640472 95.82428,-53.640472c52.941605,0 95.824295,24.004852 95.824295,53.640472c0,29.63559 -42.88269,53.640442 -95.824295,53.640442c-52.941591,0 -95.82428,-24.004852 -95.82428,-53.640442z"/>
  <path id="svg_45" d="m-16.824249,427.450165c0,-29.63562 42.882689,-53.640472 95.82428,-53.640472c52.941605,0 95.824295,24.004852 95.824295,53.640472c0,29.63559 -42.88269,53.640442 -95.824295,53.640442c-52.941591,0 -95.82428,-24.004852 -95.82428,-53.640442z"/>
  <path id="svg_46" d="m-16.824249,427.450165c0,-29.63562 42.882689,-53.640472 95.82428,-53.640472c52.941605,0 95.824295,24.004852 95.824295,53.640472c0,29.63559 -42.88269,53.640442 -95.824295,53.640442c-52.941591,0 -95.82428,-24.004852 -95.82428,-53.640442z" fill="#ffffff" stroke="#ffffff"/>
  <ellipse fill="#181c34" stroke="#000" stroke-width="0" cx="72.499586" cy="335.450482" id="svg_3" rx="137.999845" ry="55.000035"/>
  <path id="svg_49" d="m74,352l100.6875,-271l335.625,0l100.6875,271z" stroke-opacity="null" stroke-width="0" stroke="#000" fill="#35506b"/>
  <path id="svg_48" d="m247,329l72,-271.000004l240,0l72,271.000004z" stroke-opacity="null" stroke-width="0" stroke="#000" fill="#527496"/>
  <ellipse fill="#181c34" stroke="#000" stroke-width="0" cx="606.497532" cy="339.95091" id="svg_4" rx="200.999992" ry="52.500024"/>
  <path fill="#683d3d" stroke="#000" stroke-width="0" stroke-opacity="null" d="m271.19873,276.824615c-4.158478,-7.49707 -9.246216,-13.567352 -14.349854,-17.812744c-5.954559,4.352417 -13.206268,7.001434 -21.113831,7.001434c-7.922028,0 -15.185272,-2.65509 -21.129578,-7.001434c-5.104523,4.245392 -10.196259,10.315674 -14.364471,17.812744c-9.677902,17.40564 -10.742569,35.258881 -2.383514,39.887695c3.742081,2.085846 7.668121,0.531403 11.72197,-3.367096c-0.711334,3.952545 -1.127197,8.237061 -1.127197,12.718719c0,19.910614 7.752487,36.039673 17.304062,36.039673c5.757233,0 8.60733,-5.873688 9.978729,-14.864868c1.366028,8.99118 4.215881,14.864868 9.951904,14.864868c9.56813,0 17.320038,-16.129059 17.320038,-36.039673c0,-4.481659 -0.415833,-8.766174 -1.141846,-12.718719c4.064941,3.898499 7.983887,5.452942 11.738525,3.367096c8.352203,-4.628815 7.272675,-22.482056 -2.404938,-39.887695zm-35.474365,-17.602386c16.073242,0 29.109528,-13.010056 29.109528,-29.057968s-13.036285,-29.056702 -29.109528,-29.056702c-16.079102,0 -29.124832,13.011292 -29.124832,29.056702s13.045731,29.057968 29.124832,29.057968z" id="svg_5"/>
  <path fill="#964e4e" stroke="#000" stroke-width="0" stroke-opacity="null" d="m268.213684,277.062195c-3.63269,-7.124542 -8.077179,-12.893188 -12.535568,-16.927612c-5.201721,4.136139 -11.536591,6.653534 -18.444382,6.653534c-6.920441,0 -13.265381,-2.523132 -18.458145,-6.653534c-4.459152,4.034424 -8.907135,9.80307 -12.548355,16.927612c-8.454315,16.54071 -9.384384,33.506805 -2.082169,37.905579c3.268967,1.982208 6.698639,0.505035 10.239944,-3.199738c-0.621399,3.756134 -0.98468,7.827728 -0.98468,12.0867c0,18.921204 6.772339,34.248779 15.116287,34.248779c5.029343,0 7.519104,-5.581818 8.717117,-14.126221c1.193314,8.544403 3.682861,14.126221 8.693665,14.126221c8.358444,0 15.130249,-15.327576 15.130249,-34.248779c0,-4.258972 -0.363251,-8.330566 -0.997467,-12.0867c3.550995,3.704773 6.974457,5.181946 10.254395,3.199738c7.296234,-4.398773 6.35318,-21.364868 -2.100891,-37.905579zm-30.989288,-16.727692c14.041092,0 25.429169,-12.363571 25.429169,-27.614029s-11.388077,-27.612793 -25.429169,-27.612793c-14.046204,0 -25.442551,12.364716 -25.442551,27.612793s11.396347,27.614029 25.442551,27.614029z" id="svg_9"/>
  <ellipse fill="#a5754a" stroke="#000" stroke-width="0" stroke-opacity="null" cx="236.000004" cy="230.950133" id="svg_7" rx="29.5" ry="29.5"/>
  <ellipse fill="#d19660" stroke="#000" stroke-width="0" stroke-opacity="null" cx="231.500005" cy="233.950133" id="svg_8" rx="25.000001" ry="26.499999"/>
  <rect fill="#999999" stroke="#000" stroke-width="0" stroke-opacity="null" x="344.500039" y="190.45002" width="238.000418" height="160.000282" id="svg_30"/>
  <rect fill="#dbdbdb" stroke="#000" stroke-width="0" stroke-opacity="null" x="336.500023" y="198.450033" width="238.000418" height="160.000282" id="svg_32"/>
  <ellipse fill="#1e1212" stroke="#000" stroke-width="0" stroke-opacity="null" cx="233.999982" cy="211.450131" id="svg_12" rx="23.500011" ry="12"/>
  <ellipse fill="#1e1212" stroke="#000" stroke-width="0" stroke-opacity="null" cx="256.333357" cy="221.950056" id="svg_13" rx="9.500039" ry="12.500005"/>
  <ellipse fill="#a5754a" stroke="#000" stroke-width="0" stroke-opacity="null" cx="205.000643" cy="308.950898" id="svg_17" rx="11.999815" ry="11.999809"/>
  <ellipse fill="#a5754a" stroke="#000" stroke-width="0" stroke-opacity="null" cx="271.250457" cy="303.450915" id="svg_16" rx="11.249818" ry="11.49981"/>
  <ellipse fill="#0f1430" stroke="#000" stroke-width="0" stroke-opacity="null" cx="224.249686" cy="334.749756" id="svg_19" rx="15.749977" ry="20.24997"/>
  <ellipse fill="#0f1430" stroke="#000" stroke-width="0" stroke-opacity="null" cx="248.249651" cy="335.749755" id="svg_20" rx="15.249977" ry="20.24997"/>
  <rect fill="#0f1430" stroke="#000" stroke-width="0" stroke-opacity="null" x="208.499708" y="312.499792" width="54.499919" height="20.499972" id="svg_21"/>
  <ellipse fill="#d19660" stroke="#000" stroke-width="0" stroke-opacity="null" cx="270.000423" cy="305.950934" id="svg_15" rx="10.499841" ry="10.999843"/>
  <ellipse fill="#d19660" stroke="#000" stroke-width="0" stroke-opacity="null" cx="205.499653" cy="310.700959" id="svg_14" rx="11.000131" ry="10.749844"/>
  <ellipse fill="#111b49" stroke="#000" stroke-width="0" stroke-opacity="null" cx="223.749684" cy="332.249761" id="svg_22" rx="12.749982" ry="18.249973"/>
  <ellipse fill="#111b49" stroke="#000" stroke-width="0" stroke-opacity="null" cx="249.249648" cy="332.74976" id="svg_23" rx="12.749982" ry="18.249973"/>
  <ellipse fill="#161212" stroke="#000" stroke-width="0" stroke-opacity="null" cx="251.499643" cy="353.749734" id="svg_25" rx="18.499973" ry="10.749985"/>
  <ellipse fill="#161212" stroke="#000" stroke-width="0" stroke-opacity="null" cx="221.499685" cy="353.749734" id="svg_26" rx="18.499973" ry="10.749985"/>
  <ellipse fill="#282121" stroke="#000" stroke-width="0" stroke-opacity="null" cx="218.749689" cy="353.999736" id="svg_27" rx="15.249979" ry="8.999987"/>
  <ellipse fill="#282121" stroke="#000" stroke-width="0" stroke-opacity="null" cx="254.999634" cy="353.249737" id="svg_28" rx="13.499981" ry="9.249987"/>
  <text fill="#62b262" stroke="#62b262" stroke-width="2" x="365.500082" y="251.450198" id="svg_36" font-size="35" font-family="'Trebuchet MS', Gadget, sans-serif" text-anchor="start" xml:space="preserve">Studies and</text>
  <text style="cursor: move;" fill="#62b262" stroke="#62b262" stroke-width="2" x="365.500082" y="291.450198" id="svg_47" font-size="35" font-family="'Trebuchet MS', Gadget, sans-serif" text-anchor="start" xml:space="preserve">experience</text>
  <rect id="svg_50" height="28.000001" width="155.999998" y="290.950005" x="134.5" stroke-opacity="null" stroke-width="0" stroke="#000" fill="#684b30"/>
  <rect id="svg_51" height="73.000004" width="24.000001" y="291.950007" x="134.5" stroke-opacity="null" stroke-width="0" stroke="#000" fill="#684b30"/>
  <rect id="svg_52" height="73.000004" width="24.000001" y="291.950007" x="266.5" stroke-opacity="null" stroke-width="0" stroke="#000" fill="#684b30"/>
  <rect id="svg_53" height="22" width="141.999995" y="295.950006" x="140.5" stroke-opacity="null" stroke-width="0" stroke="#000" fill="#826246"/>
  <rect id="svg_54" height="39.000001" width="12.999999" y="320.949983" x="140.499998" stroke-opacity="null" stroke-width="0" stroke="#000" fill="#826246"/>
  <rect id="svg_55" height="40.000002" width="12" y="319.949981" x="272.499999" stroke-opacity="null" stroke-width="0" stroke="#000" fill="#826246"/>
  <rect id="svg_57" height="30.000001" width="81" y="260.949996" x="137.499999" stroke-opacity="null" stroke-width="0" stroke="#000" fill="#4f7f49"/>
  <rect id="svg_56" height="27" width="74" y="263.949997" x="140.5" stroke-opacity="null" stroke-width="0" stroke="#000" fill="#5cb752"/>
  <rect id="svg_58" height="21" width="74" y="265.950001" x="137.5" stroke-opacity="null" stroke-width="0" stroke="#000" fill="#eae8e8"/>
  <rect id="svg_59" height="5" width="59" y="277.950014" x="137.500001" stroke-opacity="null" stroke-width="0" stroke="#000" fill="#c9c9c9"/>
  <rect id="svg_60" height="5" width="59" y="269.950014" x="153.500001" stroke-opacity="null" stroke-width="0" stroke="#000" fill="#c9c9c9"/>
  <rect id="svg_61" height="10.333319" width="20.166638" y="226.999682" x="201.999705" stroke-width="2" stroke="#0f0f00" fill="none"/>
  <rect id="svg_62" height="10.333319" width="20.166638" y="226.999682" x="227.833003" stroke-width="2" stroke="#0f0f00" fill="none"/>
 </g>
</svg>