<svg width="700" height="393" xmlns="http://www.w3.org/2000/svg">
 <!-- Created with Method Draw - http://github.com/duopixel/Method-Draw/ -->

 <g>
  <title>background</title>
  <rect fill="#ffffff" id="canvas_background" height="395" width="702" y="-1" x="-1"/>
  <g display="none" overflow="visible" y="0" x="0" height="100%" width="100%" id="canvasGrid">
   <rect fill="url(#gridpattern)" stroke-width="0" y="0" x="0" height="100%" width="100%"/>
  </g>
 </g>
 <g>
  <title>Layer 1</title>
  <ellipse ry="55.000035" rx="258.500081" id="svg_37" cy="337.450486" cx="393.000159" stroke-width="0" stroke="#000" fill="#181c34"/>
  <path d="m-17.824253,327.449982c0,-29.63562 42.882692,-53.640442 95.824291,-53.640442c52.941597,0 95.824287,24.004822 95.824287,53.640442c0,29.63562 -42.88269,53.640472 -95.824287,53.640472c-52.941599,0 -95.824291,-24.004852 -95.824291,-53.640472z"/>
  <path d="m-17.824253,327.449982c0,-29.63562 42.882692,-53.640442 95.824291,-53.640442c52.941597,0 95.824287,24.004822 95.824287,53.640442c0,29.63562 -42.88269,53.640472 -95.824287,53.640472c-52.941599,0 -95.824291,-24.004852 -95.824291,-53.640472z"/>
  <path d="m-17.824253,327.449982c0,-29.63562 42.882692,-53.640442 95.824291,-53.640442c52.941597,0 95.824287,24.004822 95.824287,53.640442c0,29.63562 -42.88269,53.640472 -95.824287,53.640472c-52.941599,0 -95.824291,-24.004852 -95.824291,-53.640472z"/>
  <path d="m-17.824253,327.449982c0,-29.63562 42.882692,-53.640442 95.824291,-53.640442c52.941597,0 95.824287,24.004822 95.824287,53.640442c0,29.63562 -42.88269,53.640472 -95.824287,53.640472c-52.941599,0 -95.824291,-24.004852 -95.824291,-53.640472z"/>
  <path d="m-17.824253,327.449982c0,-29.63562 42.882692,-53.640442 95.824291,-53.640442c52.941597,0 95.824287,24.004822 95.824287,53.640442c0,29.63562 -42.88269,53.640472 -95.824287,53.640472c-52.941599,0 -95.824291,-24.004852 -95.824291,-53.640472z"/>
  <path d="m-17.824253,327.449982c0,-29.63562 42.882692,-53.640442 95.824291,-53.640442c52.941597,0 95.824287,24.004822 95.824287,53.640442c0,29.63562 -42.88269,53.640472 -95.824287,53.640472c-52.941599,0 -95.824291,-24.004852 -95.824291,-53.640472z"/>
  <path d="m-17.824253,327.449982c0,-29.63562 42.882692,-53.640442 95.824291,-53.640442c52.941597,0 95.824287,24.004822 95.824287,53.640442c0,29.63562 -42.88269,53.640472 -95.824287,53.640472c-52.941599,0 -95.824291,-24.004852 -95.824291,-53.640472z"/>
  <path d="m-17.824253,327.449982c0,-29.63562 42.882692,-53.640442 95.824291,-53.640442c52.941597,0 95.824287,24.004822 95.824287,53.640442c0,29.63562 -42.88269,53.640472 -95.824287,53.640472c-52.941599,0 -95.824291,-24.004852 -95.824291,-53.640472z"/>
  <path d="m-22.824261,335.450012c0,-29.63562 42.882692,-53.640472 95.824284,-53.640472c52.941597,0 95.824287,24.004852 95.824287,53.640472c0,29.63562 -42.88269,53.640442 -95.824287,53.640442c-52.941591,0 -95.824284,-24.004822 -95.824284,-53.640442z"/>
  <path d="m-22.824261,335.450012c0,-29.63562 42.882692,-53.640472 95.824284,-53.640472c52.941597,0 95.824287,24.004852 95.824287,53.640472c0,29.63562 -42.88269,53.640442 -95.824287,53.640442c-52.941591,0 -95.824284,-24.004822 -95.824284,-53.640442z"/>
  <ellipse transform="rotate(1.50784, 73, 335.45)" ry="53.640461" rx="95.824287" id="svg_2" cy="335.450005" cx="73.000026" stroke-width="0" stroke="#000" fill="#181c34"/>
  <rect id="svg_1" height="343" width="709" y="-18.550818" x="-4.50002" stroke-width="0" stroke="#000" fill="#181c34"/>
  <path d="m-16.824251,427.450165c0,-29.63562 42.882692,-53.640472 95.824282,-53.640472c52.941605,0 95.824295,24.004852 95.824295,53.640472c0,29.63559 -42.88269,53.640442 -95.824295,53.640442c-52.941589,0 -95.824282,-24.004852 -95.824282,-53.640442z"/>
  <path d="m-16.824251,427.450165c0,-29.63562 42.882692,-53.640472 95.824282,-53.640472c52.941605,0 95.824295,24.004852 95.824295,53.640472c0,29.63559 -42.88269,53.640442 -95.824295,53.640442c-52.941589,0 -95.824282,-24.004852 -95.824282,-53.640442z"/>
  <path d="m-16.824251,427.450165c0,-29.63562 42.882692,-53.640472 95.824282,-53.640472c52.941605,0 95.824295,24.004852 95.824295,53.640472c0,29.63559 -42.88269,53.640442 -95.824295,53.640442c-52.941589,0 -95.824282,-24.004852 -95.824282,-53.640442z"/>
  <path stroke="#ffffff" fill="#ffffff" d="m-16.824251,427.450165c0,-29.63562 42.882692,-53.640472 95.824282,-53.640472c52.941605,0 95.824295,24.004852 95.824295,53.640472c0,29.63559 -42.88269,53.640442 -95.824295,53.640442c-52.941589,0 -95.824282,-24.004852 -95.824282,-53.640442z"/>
  <ellipse ry="55.000035" rx="137.999845" id="svg_3" cy="335.450482" cx="72.499586" stroke-width="0" stroke="#000" fill="#181c34"/>
  <ellipse ry="132.512897" rx="223.521775" id="svg_18" cy="230.947105" cx="322.996173" stroke-opacity="null" stroke-width="0" stroke="#000" fill="#1d233f"/>
  <ellipse ry="110.012854" rx="188.021707" id="svg_29" cy="216.447072" cx="295.496148" stroke-opacity="null" stroke-width="0" stroke="#000" fill="#2f3554"/>
  <ellipse ry="52.500024" rx="200.999992" id="svg_4" cy="339.95091" cx="606.497532" stroke-width="0" stroke="#000" fill="#181c34"/>
  <path id="svg_5" d="m271.19873,276.824615c-4.158478,-7.49707 -9.246216,-13.567352 -14.349854,-17.812744c-5.954559,4.352417 -13.206268,7.001434 -21.113831,7.001434c-7.922028,0 -15.185272,-2.65509 -21.129578,-7.001434c-5.104523,4.245392 -10.196259,10.315674 -14.364471,17.812744c-9.677902,17.40564 -10.742569,35.258881 -2.383514,39.887695c3.742081,2.085846 7.668121,0.531403 11.72197,-3.367096c-0.711334,3.952545 -1.127197,8.237061 -1.127197,12.718719c0,19.910614 7.752487,36.039673 17.304062,36.039673c5.757233,0 8.60733,-5.873688 9.978729,-14.864868c1.366028,8.99118 4.215881,14.864868 9.951904,14.864868c9.56813,0 17.320038,-16.129059 17.320038,-36.039673c0,-4.481659 -0.415833,-8.766174 -1.141846,-12.718719c4.064941,3.898499 7.983887,5.452942 11.738525,3.367096c8.352203,-4.628815 7.272675,-22.482056 -2.404938,-39.887695zm-35.474365,-17.602386c16.073242,0 29.109528,-13.010056 29.109528,-29.057968s-13.036285,-29.056702 -29.109528,-29.056702c-16.079102,0 -29.124832,13.011292 -29.124832,29.056702s13.045731,29.057968 29.124832,29.057968z" stroke-opacity="null" stroke-width="0" stroke="#000" fill="#4f934f"/>
  <path id="svg_9" d="m268.213684,277.062195c-3.63269,-7.124542 -8.077179,-12.893188 -12.535568,-16.927612c-5.201721,4.136139 -11.536591,6.653534 -18.444382,6.653534c-6.920441,0 -13.265381,-2.523132 -18.458145,-6.653534c-4.459152,4.034424 -8.907135,9.80307 -12.548355,16.927612c-8.454315,16.54071 -9.384384,33.506805 -2.082169,37.905579c3.268967,1.982208 6.698639,0.505035 10.239944,-3.199738c-0.621399,3.756134 -0.98468,7.827728 -0.98468,12.0867c0,18.921204 6.772339,34.248779 15.116287,34.248779c5.029343,0 7.519104,-5.581818 8.717117,-14.126221c1.193314,8.544403 3.682861,14.126221 8.693665,14.126221c8.358444,0 15.130249,-15.327576 15.130249,-34.248779c0,-4.258972 -0.363251,-8.330566 -0.997467,-12.0867c3.550995,3.704773 6.974457,5.181946 10.254395,3.199738c7.296234,-4.398773 6.35318,-21.364868 -2.100891,-37.905579zm-30.989288,-16.727692c14.041092,0 25.429169,-12.363571 25.429169,-27.614029s-11.388077,-27.612793 -25.429169,-27.612793c-14.046204,0 -25.442551,12.364716 -25.442551,27.612793s11.396347,27.614029 25.442551,27.614029z" stroke-opacity="null" stroke-width="0" stroke="#000" fill="#62b262"/>
  <ellipse ry="29.5" rx="29.5" id="svg_7" cy="230.950133" cx="236.000004" stroke-opacity="null" stroke-width="0" stroke="#000" fill="#a5754a"/>
  <ellipse ry="26.499999" rx="25.000001" id="svg_8" cy="233.950133" cx="231.500005" stroke-opacity="null" stroke-width="0" stroke="#000" fill="#d19660"/>
  <rect id="svg_30" height="160.000282" width="238.000418" y="190.45002" x="344.500039" stroke-opacity="null" stroke-width="0" stroke="#000" fill="#999999"/>
  <rect id="svg_32" height="160.000282" width="238.000418" y="198.450033" x="336.500023" stroke-opacity="null" stroke-width="0" stroke="#000" fill="#dbdbdb"/>
  <ellipse ry="44.499998" rx="55.500001" id="svg_11" cy="198.950157" cx="336.999989" stroke-opacity="null" stroke-width="0" stroke="#000" fill="#d1cfcf"/>
  <path id="svg_10" d="m327.469208,155.82457c-31.204285,0 -56.5,19.305588 -56.5,43.123474c0,8.137695 2.99054,15.742767 8.135956,22.235382l-8.135956,18.15567l22.652374,-5.916107c9.439484,5.405273 21.135132,8.651581 33.847626,8.651581c31.204376,0 56.5,-19.308716 56.5,-43.126526s-25.295624,-43.123474 -56.5,-43.123474zm3.96344,67.508453l-7.946899,0l0,-7.758514l7.946899,0l0,7.758514zm0,-16.043579l0,2.566345l-7.946899,0l0,-3.1586c0,-9.532135 10.658813,-11.04245 10.658813,-17.810852c0,-3.089722 -2.711914,-5.458649 -6.267334,-5.458649c-3.680969,0 -6.913208,2.760681 -6.913208,2.760681l-4.520752,-5.721832c0,0 4.456116,-4.734726 12.143646,-4.734726c7.304962,0 14.08493,4.603119 14.08493,12.358582c0.003906,10.854538 -11.239197,12.101639 -11.239197,19.199051z" stroke-opacity="null" stroke-width="0" stroke="#000" fill="#ffffff"/>
  <ellipse ry="12" rx="23.500011" id="svg_12" cy="211.450131" cx="233.999982" stroke-opacity="null" stroke-width="0" stroke="#000" fill="#1e1212"/>
  <ellipse ry="12.500005" rx="9.500039" id="svg_13" cy="221.950056" cx="256.333357" stroke-opacity="null" stroke-width="0" stroke="#000" fill="#1e1212"/>
  <ellipse ry="11.999809" rx="11.999815" id="svg_17" cy="308.950898" cx="205.000643" stroke-opacity="null" stroke-width="0" stroke="#000" fill="#a5754a"/>
  <ellipse ry="11.49981" rx="11.249818" id="svg_16" cy="303.450915" cx="271.250457" stroke-opacity="null" stroke-width="0" stroke="#000" fill="#a5754a"/>
  <ellipse ry="20.24997" rx="15.749977" id="svg_19" cy="334.749756" cx="224.249686" stroke-opacity="null" stroke-width="0" stroke="#000" fill="#0f1430"/>
  <ellipse ry="20.24997" rx="15.249977" id="svg_20" cy="335.749755" cx="248.249651" stroke-opacity="null" stroke-width="0" stroke="#000" fill="#0f1430"/>
  <rect id="svg_21" height="20.499972" width="54.499919" y="312.499792" x="208.499708" stroke-opacity="null" stroke-width="0" stroke="#000" fill="#0f1430"/>
  <ellipse ry="10.999843" rx="10.499841" id="svg_15" cy="305.950934" cx="270.000423" stroke-opacity="null" stroke-width="0" stroke="#000" fill="#d19660"/>
  <ellipse ry="10.749844" rx="11.000131" id="svg_14" cy="310.700959" cx="205.499653" stroke-opacity="null" stroke-width="0" stroke="#000" fill="#d19660"/>
  <ellipse ry="18.249973" rx="12.749982" id="svg_22" cy="332.249761" cx="223.749684" stroke-opacity="null" stroke-width="0" stroke="#000" fill="#111b49"/>
  <ellipse ry="18.249973" rx="12.749982" id="svg_23" cy="332.74976" cx="249.249648" stroke-opacity="null" stroke-width="0" stroke="#000" fill="#111b49"/>
  <ellipse ry="10.749985" rx="18.499973" id="svg_25" cy="353.749734" cx="251.499643" stroke-opacity="null" stroke-width="0" stroke="#000" fill="#161212"/>
  <ellipse ry="10.749985" rx="18.499973" id="svg_26" cy="353.749734" cx="221.499685" stroke-opacity="null" stroke-width="0" stroke="#000" fill="#161212"/>
  <ellipse ry="8.999987" rx="15.249979" id="svg_27" cy="353.999736" cx="218.749689" stroke-opacity="null" stroke-width="0" stroke="#000" fill="#282121"/>
  <ellipse ry="9.249987" rx="13.499981" id="svg_28" cy="353.249737" cx="254.999634" stroke-opacity="null" stroke-width="0" stroke="#000" fill="#282121"/>
  <text xml:space="preserve" text-anchor="start" font-family="'Trebuchet MS', Gadget, sans-serif" font-size="35" id="svg_36" y="290.450198" x="373.500082" stroke-width="2" stroke="#62b262" fill="#62b262">Who am I?</text>
 </g>
</svg>